<?xml version="1.0" standalone="no"?>
<!DOCTYPE svg PUBLIC "-//W3C//DTD SVG 20010904//EN"
 "http://www.w3.org/TR/2001/REC-SVG-20010904/DTD/svg10.dtd">
<svg version="1.0" xmlns="http://www.w3.org/2000/svg"
 width="512.000000pt" height="512.000000pt" viewBox="0 0 512.000000 512.000000"
 preserveAspectRatio="xMidYMid meet">
<metadata>
Created by potrace 1.16, written by Peter Selinger 2001-2019
</metadata>
<g transform="translate(0.000000,512.000000) scale(0.100000,-0.100000)"
fill="#000000" stroke="none">
<path d="M2584 4966 c-27 -19 -83 -105 -99 -154 -9 -25 -21 -39 -37 -42 -12
-3 -38 -26 -57 -52 l-34 -45 -53 52 c-57 57 -136 101 -201 111 -40 6 -42 5
-66 -32 -24 -37 -37 -73 -51 -137 l-7 -28 -30 25 c-33 28 -72 42 -89 31 -5 -3
-41 6 -78 21 -96 40 -210 40 -302 1 -36 -16 -73 -37 -82 -48 -25 -30 -40 -115
-29 -172 6 -36 5 -61 -8 -101 l-17 -54 -28 15 c-31 16 -216 37 -227 25 -4 -4
-26 -45 -50 -91 -43 -84 -44 -86 -44 -185 0 -56 3 -119 7 -141 l7 -40 -112 0
c-94 0 -118 -3 -152 -21 -38 -20 -40 -24 -43 -70 -4 -90 -7 -94 -49 -82 -21 6
-72 8 -114 6 -62 -4 -87 -10 -130 -35 l-54 -31 1 -118 c1 -104 4 -128 27 -187
15 -38 36 -81 47 -97 25 -36 25 -37 -7 -44 -50 -12 -130 -73 -177 -135 -42
-54 -46 -65 -46 -114 0 -72 44 -161 111 -221 l49 -44 -15 -36 c-8 -19 -15 -46
-15 -60 0 -30 65 -91 127 -118 l44 -19 -58 -29 c-129 -65 -195 -165 -171 -259
10 -38 8 -42 -30 -88 -45 -55 -82 -123 -82 -153 0 -49 145 -117 271 -127 l78
-6 -14 -27 c-12 -23 -12 -30 0 -47 8 -11 27 -26 43 -32 l29 -12 -43 -85 c-46
-89 -56 -146 -29 -161 13 -8 9 -21 -25 -88 -57 -109 -54 -130 25 -169 51 -26
74 -31 158 -34 93 -4 99 -6 108 -28 9 -25 33 -38 109 -59 51 -13 50 -6 15
-130 -29 -106 -31 -146 -7 -167 26 -22 98 -41 182 -47 l75 -6 7 -53 c4 -29 14
-68 22 -87 13 -31 19 -35 54 -35 83 0 197 48 272 116 l37 34 12 -55 c15 -66
67 -149 97 -153 12 -2 47 8 79 22 32 15 61 26 65 26 4 0 11 -17 15 -37 8 -47
47 -136 81 -185 14 -20 53 -60 86 -88 l59 -53 71 48 c39 27 88 72 111 102 22
30 43 50 47 46 4 -4 27 -37 52 -74 26 -36 65 -82 87 -102 47 -43 44 -43 143
26 l57 39 58 -49 c91 -79 93 -79 150 -35 72 58 122 117 153 184 l28 59 27 -35
c27 -36 105 -97 136 -109 10 -3 33 3 53 14 l36 19 59 -48 c32 -26 94 -65 136
-87 l78 -40 54 60 c69 77 118 174 133 265 7 39 15 69 18 67 79 -42 277 -94
297 -77 26 22 57 114 62 187 l6 75 31 -6 c17 -4 85 -9 151 -13 113 -5 121 -4
139 15 10 12 21 41 23 65 7 59 -21 195 -56 272 l-28 61 93 1 c52 1 96 -2 99
-7 11 -18 84 -31 106 -20 18 10 20 17 14 48 -9 51 -40 118 -70 154 l-25 30 25
30 c32 38 31 51 -5 117 -17 30 -29 55 -28 56 13 8 91 25 114 25 16 0 47 10 69
23 37 21 40 26 43 70 4 55 -20 146 -51 196 -24 40 -27 36 73 94 73 43 75 60
14 178 l-47 92 29 20 c53 38 102 95 119 141 17 44 17 48 0 94 -11 28 -37 66
-67 95 l-49 48 22 38 c12 22 41 53 65 70 25 17 50 42 56 56 11 24 8 30 -37 75
-48 49 -128 97 -198 120 l-37 12 25 30 c34 40 58 88 84 167 30 91 28 104 -22
145 -42 34 -140 86 -164 86 -7 0 7 29 31 64 42 61 51 83 92 219 16 55 16 58
-1 78 -11 11 -52 36 -92 56 -61 30 -87 37 -154 41 -76 4 -80 6 -74 26 18 63
17 83 -7 111 -20 23 -35 29 -79 33 l-55 4 4 34 c7 57 -8 162 -26 184 -11 14
-35 24 -67 28 l-50 7 -6 65 c-6 69 -36 187 -52 208 -13 17 -102 15 -163 -3
-27 -8 -70 -28 -96 -44 l-46 -30 -7 42 c-10 65 -50 145 -79 158 -34 16 -86 4
-134 -31 l-40 -29 -7 37 c-10 53 -55 141 -85 164 -19 15 -34 19 -66 14 -71 -9
-147 -44 -210 -94 l-60 -49 -34 30 c-29 26 -38 29 -75 23 -40 -5 -44 -4 -55
24 -44 106 -246 228 -306 186z m111 -62 c62 -29 130 -92 160 -148 l20 -37 -45
-39 -45 -39 -23 47 c-12 26 -21 39 -18 30 28 -99 28 -94 -6 -143 -35 -49 -44
-46 -48 20 l-2 30 -8 -30 -7 -30 -7 40 c-5 22 -12 56 -16 75 l-8 35 -1 -35 -1
-36 -60 58 c-33 32 -60 65 -60 74 0 42 78 154 107 154 8 0 39 -12 68 -26z
m688 -134 c31 -37 56 -110 59 -175 l3 -49 -35 2 c-26 2 -47 -5 -80 -28 -76
-53 -149 -100 -155 -100 -11 0 -4 103 10 137 23 55 16 54 -10 -2 l-24 -49 -11
29 c-6 17 -20 54 -31 83 -17 41 -19 55 -9 67 21 25 113 81 160 98 69 24 95 21
123 -13z m-1195 -13 c49 -24 142 -110 142 -131 0 -6 -15 -42 -33 -78 l-33 -65
-18 64 c-10 35 -20 62 -22 60 -2 -2 3 -34 11 -72 14 -67 11 -195 -5 -195 -13
0 -28 51 -46 155 -9 55 -19 95 -21 88 -2 -6 3 -51 11 -100 9 -48 16 -92 16
-97 0 -18 -58 46 -66 73 l-7 26 -6 -27 c-6 -25 -8 -27 -30 -15 -36 18 -64 106
-57 183 5 60 17 97 45 142 17 28 47 25 119 -11z m366 -81 c75 -74 135 -233
108 -282 -9 -16 -12 -16 -16 -4 -2 8 -12 39 -21 67 -9 29 -21 55 -26 59 -6 3
-3 -11 5 -31 26 -61 18 -64 -15 -6 -43 75 -130 161 -163 161 -33 0 -33 11 0
49 38 46 74 42 128 -13z m445 18 c42 -35 88 -133 107 -227 l16 -78 -23 -26
-24 -25 -6 44 -6 43 -1 -51 c-2 -67 -11 -73 -34 -23 -10 23 -35 64 -55 92 -21
28 -37 60 -37 71 1 15 0 16 -3 4 -4 -16 -7 -17 -33 -3 -54 28 -54 15 2 -37 67
-64 105 -127 113 -188 3 -25 2 -39 -1 -31 -4 9 -14 -10 -26 -47 -10 -34 -23
-62 -28 -62 -6 0 -11 19 -11 43 -1 23 -5 56 -10 72 -5 20 -7 6 -4 -45 l4 -75
-24 59 c-13 32 -29 64 -36 70 -9 8 -10 6 -4 -9 48 -126 65 -264 50 -401 -7
-59 -9 -65 -15 -37 -9 39 -46 89 -53 71 -3 -7 -6 16 -7 52 l-2 65 -12 -61 c-7
-33 -22 -73 -34 -89 l-22 -28 -1 49 -1 49 -12 -65 c-6 -36 -17 -74 -24 -85
-11 -17 -12 -1 -7 95 3 63 8 140 10 170 4 50 4 52 -4 15 -5 -22 -15 -106 -22
-187 -7 -82 -16 -148 -20 -148 -4 0 -14 19 -22 43 -20 54 -21 29 -2 -48 15
-64 20 -181 5 -135 -4 14 -8 46 -9 71 -1 25 -12 78 -26 118 -45 134 -53 268
-20 366 6 17 5 18 -5 5 -23 -29 -1 68 35 155 19 46 35 90 35 98 0 34 75 160
128 215 48 50 119 100 144 102 3 0 20 -12 37 -26z m-1239 -18 c19 -10 37 -20
39 -22 2 -2 -13 -25 -34 -51 -21 -27 -40 -50 -42 -53 -4 -4 -13 1 -73 39 -21
13 -20 10 7 -17 17 -17 36 -32 42 -32 6 0 11 -8 11 -17 0 -13 -3 -14 -8 -5 -5
8 -13 -6 -21 -38 -7 -27 -14 -50 -16 -50 -1 0 -28 12 -60 26 -39 18 -79 28
-124 30 l-66 3 -3 38 c-2 21 2 55 8 76 10 33 19 42 73 68 57 28 69 30 147 26
56 -2 97 -9 120 -21z m1889 -35 c22 -22 51 -109 51 -152 0 -15 -10 -40 -23
-54 -20 -24 -25 -25 -49 -15 -21 10 -32 9 -59 -4 -40 -20 -36 -21 -43 10 -5
17 -1 35 9 50 8 13 22 35 31 49 26 41 8 29 -25 -17 l-31 -42 -1 40 c-1 23 -3
30 -6 16 -6 -28 -23 -19 -23 13 0 30 49 87 92 108 43 21 54 21 77 -2z m-1705
-38 c48 -66 80 -151 64 -170 -6 -8 -19 -12 -28 -10 -9 2 -17 -1 -17 -8 0 -14
-55 -85 -65 -85 -4 0 -13 21 -20 47 -6 26 -13 42 -15 36 -2 -6 3 -39 12 -73 9
-34 14 -64 11 -67 -2 -3 -21 26 -41 63 -19 38 -33 58 -29 44 4 -14 15 -42 26
-63 l19 -39 -70 59 c-55 45 -71 64 -71 84 0 66 118 229 167 229 16 0 34 -15
57 -47z m528 -30 c53 -45 76 -74 110 -142 36 -71 43 -149 18 -206 l-12 -30
-30 88 c-17 49 -31 87 -33 85 -1 -2 8 -43 21 -93 18 -72 23 -116 23 -220 0
-136 -9 -144 -27 -25 l-10 65 3 -75 c4 -61 2 -69 -5 -40 -6 19 -9 60 -8 90 0
30 -1 62 -4 70 -3 8 -11 48 -18 88 -15 92 -24 89 -10 -4 13 -91 13 -254 0
-234 -5 8 -15 42 -22 75 l-13 60 -5 -55 -5 -55 -23 59 c-12 33 -29 64 -37 70
-8 6 -21 38 -29 71 -8 35 -15 50 -16 35 -1 -23 -3 -22 -14 10 -13 33 -14 34
-17 10 -5 -25 -5 -25 -22 7 -16 30 -16 37 -1 109 40 191 103 255 186 187z
m1560 -98 c10 -33 20 -87 21 -120 l2 -59 -45 -8 c-25 -4 -77 -11 -117 -15 -70
-9 -71 -9 -61 12 6 11 -19 -11 -55 -50 l-66 -70 5 50 c4 29 19 71 35 100 l30
50 -31 -33 c-17 -19 -33 -32 -34 -30 -6 6 -26 71 -26 82 0 14 91 86 140 111
54 28 112 44 150 42 33 -2 35 -5 52 -62z m-593 25 c18 -9 65 -104 59 -120 -3
-9 -105 -90 -113 -90 -5 0 0 48 11 110 4 24 3 24 -12 -4 l-16 -28 -18 30 c-10
16 -23 33 -29 36 -20 13 -11 36 22 56 35 22 68 25 96 10z m-1916 -65 c97 -20
177 -67 252 -147 68 -71 80 -104 52 -142 -12 -16 -19 -11 -79 58 -107 121
-155 158 -70 52 65 -81 81 -106 68 -106 -12 0 -134 56 -157 72 -36 24 -170 88
-186 88 -28 0 -8 103 24 128 20 15 13 15 96 -3z m1776 -36 c25 -27 41 -93 41
-171 0 -78 -8 -112 -24 -99 -16 13 -84 30 -88 23 -2 -4 -26 -19 -55 -33 l-52
-26 40 78 c21 44 37 79 35 79 -3 0 -22 -30 -42 -67 -21 -38 -48 -84 -62 -103
l-24 -35 6 50 c5 50 5 50 -5 10 -6 -22 -12 -49 -14 -60 -3 -11 -23 -49 -46
-85 l-41 -65 6 50 c4 28 9 68 12 90 5 39 4 40 -10 15 -20 -33 -20 -24 3 41 46
133 119 230 227 298 57 37 67 38 93 10z m-1178 -28 c83 -54 237 -233 281 -328
29 -62 30 -64 12 -84 -18 -20 -18 -20 -41 30 -29 68 -36 65 -10 -4 19 -54 19
-56 2 -95 -10 -23 -22 -37 -25 -33 -4 4 -18 39 -30 76 -12 38 -24 67 -26 65
-1 -2 8 -47 22 -101 19 -74 23 -106 17 -137 l-8 -40 -49 100 c-28 55 -51 98
-53 97 -1 -2 15 -48 37 -103 21 -54 42 -117 45 -139 l7 -40 -37 60 c-20 33
-56 81 -81 106 l-45 46 -6 95 c-7 108 10 176 55 230 l27 31 -33 -6 c-17 -4
-32 -3 -32 1 0 4 -10 18 -21 32 -21 24 -20 24 1 -14 l21 -39 -22 -51 c-14 -33
-24 -82 -28 -136 l-6 -85 -18 60 c-10 33 -22 94 -27 135 l-9 75 3 -95 c2 -52
7 -104 10 -115 4 -11 -10 13 -30 53 -20 40 -39 71 -41 69 -4 -5 54 -172 73
-209 21 -40 4 -34 -27 10 -15 20 -52 71 -84 112 l-57 75 5 60 c7 87 42 172 92
223 51 50 74 53 136 13z m1537 -35 c18 -36 27 -132 18 -182 -11 -58 -156 -202
-156 -155 0 5 11 26 25 47 l26 39 -33 -35 c-18 -19 -46 -51 -62 -70 l-28 -35
31 60 c40 75 8 37 -49 -57 -23 -38 -45 -68 -50 -68 -14 0 -13 77 1 102 8 15 8
19 0 14 -23 -15 -9 14 53 108 70 106 63 111 -12 9 -44 -60 -67 -72 -42 -21 10
21 10 21 -3 5 -23 -28 -28 -6 -15 63 9 55 16 68 63 114 65 66 126 97 180 94
33 -3 42 -8 53 -32z m-2371 -10 c4 -3 -5 -6 -19 -6 -32 0 -75 -48 -83 -93 -4
-19 0 -50 9 -76 24 -66 23 -68 -45 -76 -59 -7 -66 -11 -93 -50 -13 -18 -15
-16 -21 30 -11 69 8 153 49 228 l35 63 81 -7 c45 -4 84 -10 87 -13z m207 -89
c42 -20 76 -39 76 -42 0 -13 -46 -22 -65 -12 -18 9 -18 8 -7 -6 11 -13 11 -19
0 -36 -12 -20 -13 -20 -53 17 -34 31 -35 32 -10 4 24 -26 28 -40 26 -75 -1
-23 -6 -46 -11 -51 -17 -17 -58 12 -80 54 -25 50 -36 53 -15 4 8 -20 15 -37
15 -39 0 -1 -24 3 -54 8 -64 12 -76 29 -83 123 -5 56 -3 63 18 78 41 30 150
17 243 -27z m2684 -3 c19 -13 22 -23 22 -87 0 -109 -2 -113 -71 -126 -51 -10
-125 -33 -181 -56 -14 -5 -18 -2 -18 12 0 12 18 33 45 52 54 39 60 52 8 16
-21 -14 -39 -21 -41 -15 -3 9 23 58 65 120 9 14 -3 3 -27 -24 l-45 -50 -6 55
c-4 30 -9 61 -13 69 -11 28 11 43 75 50 79 9 157 2 187 -16z m-270 -6 c-3 -7
-13 -15 -24 -17 -10 -2 -21 -6 -24 -10 -3 -3 -25 -3 -50 0 l-45 5 35 17 c43
20 114 23 108 5z m-37 -79 c18 -18 21 -30 17 -93 -4 -93 -40 -169 -81 -174
-32 -4 -44 16 -27 50 11 22 10 22 -9 -2 -11 -14 -21 -29 -21 -33 0 -8 -90 -50
-95 -45 -2 2 23 45 56 96 76 121 58 109 -31 -21 -114 -166 -105 -160 -104 -67
1 75 3 84 37 133 102 147 205 209 258 156z m-2122 -39 c93 -45 162 -108 229
-209 70 -105 53 -111 -45 -13 -77 78 -88 83 -27 12 12 -14 29 -37 38 -52 17
-26 17 -26 -51 10 -37 19 -75 45 -82 56 -8 12 -39 46 -69 76 l-54 55 44 -60
c25 -33 47 -65 51 -70 3 -7 -14 -11 -49 -11 -42 0 -59 -4 -76 -21 l-21 -22
-19 22 c-19 22 -19 22 -4 -10 14 -28 14 -35 1 -65 -11 -26 -14 -29 -15 -11 0
12 -5 25 -11 29 -7 4 -9 0 -6 -12 13 -42 19 -74 14 -74 -2 0 -16 17 -30 39
-41 62 -59 141 -55 236 3 72 6 87 27 109 39 41 106 36 210 -14z m1565 -50 c30
-51 26 -177 -9 -295 -29 -98 -53 -143 -118 -220 -23 -28 -50 -61 -59 -75 -17
-24 -17 -24 -4 15 8 22 37 85 64 140 62 122 79 179 23 76 -65 -120 -79 -117
-41 9 26 85 24 110 -3 41 l-21 -54 -18 52 c-17 52 -17 54 3 93 27 53 19 59
-10 7 -19 -32 -25 -38 -37 -28 -8 6 -14 28 -14 48 l-1 36 -12 -27 c-7 -16 -28
-36 -48 -46 l-37 -19 8 26 c25 87 95 173 185 226 78 47 120 45 149 -5z m-1984
-40 c25 -6 66 -20 92 -32 43 -19 48 -25 57 -67 5 -25 8 -47 6 -50 -2 -2 -26
12 -52 31 -71 52 -107 69 -63 29 l35 -31 -44 15 c-71 24 -116 20 -153 -16
l-33 -31 32 23 c41 28 91 22 182 -22 105 -52 200 -157 226 -249 5 -19 -5 -12
-48 33 -54 57 -93 82 -46 30 56 -64 63 -73 48 -73 -8 0 -38 32 -68 70 -29 39
-67 80 -84 92 -24 17 -18 7 25 -44 69 -82 85 -108 64 -108 -15 0 -53 29 -135
104 -43 40 -43 39 10 -22 88 -103 86 -99 47 -117 -31 -16 -36 -15 -85 8 -77
35 -120 95 -154 212 l-18 60 0 -43 c-1 -42 31 -156 51 -179 19 -23 -30 -15
-51 9 -36 38 -81 209 -81 310 0 57 18 68 113 68 45 0 102 -5 127 -10z m3015
-43 c16 -22 2 -88 -25 -112 -16 -15 -20 -14 -47 14 -52 52 -190 55 -335 8 -43
-14 -78 -21 -78 -17 0 26 140 92 245 116 86 19 223 14 240 -9z m-3288 -49 c-3
-8 -6 -5 -6 6 -1 11 2 17 5 13 3 -3 4 -12 1 -19z m1473 -34 c91 -85 129 -203
115 -362 l-8 -87 -13 45 c-7 25 -20 81 -28 125 l-15 80 3 -87 c1 -48 1 -86 -1
-84 -2 2 -10 32 -18 67 l-15 64 6 -57 c5 -53 4 -58 -14 -58 -16 0 -23 13 -37
70 -10 39 -20 69 -22 66 -3 -2 0 -35 6 -71 7 -50 7 -75 -2 -97 -12 -29 -13
-27 -36 62 -13 50 -25 89 -27 87 -2 -2 2 -46 10 -98 18 -118 6 -148 -19 -50
-22 84 -31 87 -15 4 12 -64 24 -253 16 -253 -10 0 -29 84 -28 120 1 19 -5 64
-13 100 l-14 65 4 -56 c3 -30 7 -71 10 -90 3 -18 -4 -5 -15 31 -50 154 -11
400 75 486 13 13 29 24 35 24 6 0 33 -21 60 -46z m1011 12 c16 -34 -4 -137
-37 -193 -32 -55 -41 -49 -20 13 9 26 14 49 12 51 -7 8 -38 -89 -32 -103 11
-29 -4 -33 -29 -8 -13 13 -31 24 -39 24 -11 0 -13 6 -9 18 5 12 -3 9 -26 -11
-19 -15 -36 -25 -39 -22 -13 12 80 174 123 213 51 48 80 53 96 18z m-2530 -39
c30 -12 36 -21 50 -75 10 -34 14 -62 10 -62 -3 0 -22 9 -41 20 l-35 20 30 -22
c48 -37 96 -89 92 -102 -8 -24 -39 -15 -104 29 l-68 47 55 -50 c30 -28 52 -53
48 -57 -4 -4 -41 11 -82 33 -42 23 -76 40 -76 38 0 -2 71 -53 128 -91 1 -1 -1
-10 -4 -19 -7 -17 -31 -17 -92 0 -9 2 1 -4 23 -15 22 -11 47 -20 56 -20 15 -1
39 -39 39 -62 0 -5 -13 -3 -30 6 -38 20 -80 36 -80 30 0 -2 26 -20 58 -39 31
-20 67 -46 79 -59 l21 -23 -91 4 -92 3 -43 47 c-24 26 -60 81 -80 122 -33 68
-37 84 -40 177 -5 111 -5 110 67 134 37 12 161 4 202 -14z m3218 -7 c22 -11
23 -16 17 -71 -15 -147 -166 -404 -277 -475 -21 -13 -41 -24 -45 -24 -3 0 17
25 46 56 78 86 130 205 99 225 -11 7 -10 14 5 41 l19 33 -25 -22 c-15 -15 -37
-23 -58 -23 l-34 0 44 47 45 47 -42 -36 c-23 -20 -52 -42 -65 -48 -18 -10 -15
-4 12 24 l35 37 -46 -25 c-25 -15 -67 -32 -93 -40 -39 -12 -46 -12 -46 0 0 7
18 26 40 40 41 27 49 45 12 25 -25 -13 -32 -14 -32 -3 0 8 110 87 155 111 11
6 15 11 10 11 -6 0 -44 -20 -85 -45 l-75 -44 -3 30 c-2 17 -1 37 2 45 7 17
115 70 184 90 55 16 167 13 201 -6z m-2439 -5 c66 -23 163 -98 203 -157 39
-57 77 -155 77 -197 0 -21 -7 -15 -33 34 -34 63 -115 185 -122 185 -2 0 12
-28 32 -62 52 -88 112 -228 106 -245 -8 -21 -27 0 -84 93 -28 46 -52 84 -55
84 -2 0 7 -23 21 -51 14 -27 30 -62 36 -77 9 -26 8 -26 -7 -7 -8 11 -47 64
-86 117 -83 116 -107 138 -45 41 24 -37 65 -101 91 -142 47 -73 55 -112 19
-92 -32 17 -123 113 -169 177 -25 35 -48 64 -50 64 -8 0 25 -70 54 -112 47
-71 48 -75 1 -33 -66 59 -97 102 -114 158 -18 60 -20 149 -4 180 31 60 55 68
129 42z m1087 -105 c-3 -47 -12 -105 -21 -130 l-16 -45 4 85 c5 107 -9 60 -24
-85 -14 -129 -29 -146 -32 -35 l-2 85 -3 -73 c-5 -101 -23 -82 -24 26 l-2 87
-12 -88 c-13 -86 -25 -125 -25 -76 1 89 22 207 45 255 33 67 81 110 102 92 12
-10 14 -30 10 -98z m935 0 c-6 -147 -60 -279 -159 -390 -38 -42 -45 -46 -78
-42 l-37 4 44 46 43 45 -68 -52 c-38 -28 -72 -51 -76 -51 -5 0 -33 -16 -62
-36 l-54 -36 60 63 c182 194 194 215 36 64 -72 -69 -73 -69 -51 -28 45 82 145
179 246 239 53 30 94 58 91 60 -3 3 -33 -7 -68 -21 -59 -25 -89 -41 -159 -84
-34 -22 44 72 113 136 34 31 42 41 22 30 -16 -10 -70 -60 -119 -110 -78 -82
-77 -68 4 28 13 17 -1 5 -33 -25 -31 -30 -57 -51 -57 -47 0 52 149 203 244
248 33 16 54 29 46 29 -9 0 -32 -8 -53 -19 -47 -24 -38 -7 11 19 23 12 52 19
77 17 l40 -2 -3 -85z m748 51 c30 -12 67 -31 82 -43 l27 -23 -18 -65 c-23 -82
-61 -158 -102 -205 -29 -33 -35 -35 -90 -35 -47 0 -60 4 -68 19 -9 16 -4 21
30 36 22 10 42 22 45 26 3 5 -18 -2 -46 -15 -41 -19 -58 -22 -83 -15 -18 5
-52 9 -76 9 l-44 0 77 50 c42 27 76 52 76 54 0 3 -37 -17 -82 -44 -46 -27 -82
-54 -80 -60 1 -5 -5 -10 -14 -10 -30 0 18 63 67 87 49 24 49 27 1 14 -37 -11
-39 -5 -13 53 14 32 31 46 96 82 94 52 89 58 -8 11 -49 -24 -66 -29 -61 -18 3
9 8 33 11 54 3 20 6 37 7 37 0 0 19 7 41 15 52 20 152 13 225 -14z m-2411 -10
c39 -28 78 -87 112 -171 37 -92 36 -101 -2 -26 -33 64 -49 70 -25 10 l16 -39
-37 40 c-21 22 -46 51 -55 65 -17 24 -17 24 -2 -14 13 -32 13 -40 2 -47 -21
-13 -26 -11 -42 19 -14 27 -14 27 -9 -15 3 -24 1 -43 -4 -43 -24 0 -56 155
-41 207 7 26 14 33 34 33 14 0 38 -9 53 -19z m936 -24 c24 -43 36 -127 16
-127 -4 0 -11 -28 -13 -63 -4 -41 -18 -92 -43 -150 -47 -109 -73 -112 -51 -7
6 30 4 28 -18 -17 -14 -29 -28 -53 -31 -53 -3 0 1 12 9 28 19 36 76 201 75
215 0 7 -9 -10 -19 -38 -10 -27 -30 -77 -44 -110 l-26 -60 5 65 c5 62 4 59
-29 -60 -18 -69 -37 -145 -42 -170 -7 -35 -9 -17 -7 80 1 69 7 147 13 174 16
73 5 67 -15 -9 -18 -65 -35 -86 -35 -42 0 42 59 212 95 272 41 69 87 115 115
115 12 0 28 -16 45 -43z m-2412 -70 c16 -10 26 -29 30 -54 3 -21 9 -49 13 -62
6 -21 4 -23 -14 -19 -12 4 -20 2 -16 -3 3 -5 11 -9 19 -9 7 0 27 -21 44 -46
30 -43 30 -45 9 -39 -13 4 -47 20 -77 36 -85 45 -34 0 64 -57 46 -27 85 -52
85 -55 0 -4 -20 -12 -44 -19 -43 -12 -46 -11 -110 25 -36 20 -66 35 -66 32 0
-2 27 -21 60 -42 33 -21 57 -42 54 -47 -4 -6 -30 -8 -60 -6 -30 3 -54 3 -54 1
0 -1 20 -8 45 -14 33 -8 45 -16 45 -30 0 -17 -9 -19 -99 -19 l-99 0 -31 48
c-51 80 -71 153 -71 257 0 104 3 108 72 131 54 17 169 12 201 -9z m2753 -72
c6 -23 -32 -151 -57 -195 -14 -25 -11 10 6 66 14 48 21 98 8 64 -18 -48 -55
-98 -69 -93 -10 3 -14 13 -11 25 5 18 4 18 -11 5 -9 -9 -30 -19 -47 -23 l-30
-7 19 24 c10 13 -14 -9 -53 -50 l-73 -75 34 57 c57 97 117 166 171 197 66 38
104 40 113 5z m-2106 -67 c54 -27 66 -38 68 -60 2 -16 1 -28 -3 -28 -3 0 -28
11 -55 25 -76 38 -83 30 -10 -13 39 -22 70 -49 78 -66 8 -15 12 -29 10 -31 -1
-1 -33 14 -70 36 -38 21 -68 36 -68 34 0 -2 30 -25 67 -51 76 -54 103 -79 103
-95 0 -10 -115 48 -185 93 -23 15 -21 11 10 -17 22 -21 74 -57 116 -82 67 -38
135 -93 117 -93 -4 0 -67 29 -141 65 -150 72 -221 127 -268 209 -37 66 -37 83
4 102 51 23 148 11 227 -28z m288 -6 c67 -26 136 -75 206 -146 73 -76 160
-190 148 -194 -5 -1 -62 50 -127 115 -65 65 -90 87 -56 49 34 -39 77 -92 96
-118 53 -73 16 -62 -80 23 -151 134 -180 153 -68 46 103 -99 134 -139 119
-154 -9 -9 -112 65 -189 137 l-71 65 34 -49 c19 -27 67 -75 105 -108 112 -96
136 -120 132 -132 -10 -27 -139 33 -217 101 -60 52 -52 35 19 -39 37 -39 42
-48 26 -48 -88 0 -242 232 -253 380 -4 67 -4 68 24 78 45 16 99 14 152 -6z
m612 -8 c38 -23 95 -113 110 -174 18 -76 8 -79 -38 -8 -24 36 -53 74 -65 84
-22 19 -22 19 -5 -1 28 -34 78 -141 77 -166 0 -18 -6 -12 -24 26 -26 56 -32
55 -11 -2 8 -21 17 -63 20 -93 l6 -55 -49 100 c-27 55 -50 97 -50 94 -1 -3 12
-45 28 -92 16 -48 27 -87 26 -87 -2 0 -27 46 -55 103 -29 56 -50 92 -47 80 7
-32 0 -29 -18 8 -22 42 -23 141 -1 174 19 30 55 33 96 9z m1775 6 c38 -15 40
-34 9 -98 -28 -58 -177 -222 -190 -209 -4 3 -1 14 7 24 8 9 -2 5 -21 -9 -44
-33 -140 -81 -140 -70 0 4 14 25 32 46 33 40 15 38 -29 -4 -13 -11 -23 -17
-23 -11 0 5 28 35 63 66 34 31 46 46 27 32 -19 -13 -48 -33 -65 -43 -29 -18
-29 -17 10 29 21 27 62 69 90 94 44 39 46 43 17 28 -47 -23 -50 -13 -7 29 19
20 32 36 27 36 -4 0 -13 -5 -20 -12 -17 -17 -15 4 3 30 28 39 151 64 210 42z
m-1422 -68 c45 -50 60 -162 36 -274 -15 -66 -27 -45 -29 52 -2 36 -6 79 -10
95 -6 24 -8 15 -10 -40 -2 -40 -5 -59 -8 -45 -5 19 -8 13 -12 -25 l-6 -50 -11
55 -11 55 -2 -65 -2 -65 -13 50 c-11 42 -13 45 -14 20 l-2 -30 -10 25 c-18 45
-13 143 10 187 36 73 64 88 94 55z m878 -60 c-32 -42 -61 -69 -61 -58 0 7 80
96 87 96 3 0 -9 -17 -26 -38z m897 14 c22 -21 8 -57 -41 -111 l-43 -48 -89 2
c-56 1 -109 -4 -140 -13 l-50 -15 40 34 c22 19 68 46 103 61 78 33 76 41 -4
14 l-59 -21 45 46 c41 42 71 58 130 69 39 7 92 -2 108 -18z m-1573 -9 c23 -35
29 -108 15 -181 -15 -83 -30 -94 -31 -24 l-1 53 -11 -45 -11 -45 -6 45 -6 45
-11 -45 -11 -45 -2 50 c-2 39 -4 45 -9 25 l-7 -25 -8 24 c-9 27 1 127 17 156
21 41 59 47 82 12z m552 -9 c28 -27 29 -52 2 -120 -31 -80 -138 -272 -171
-310 -20 -22 -25 -24 -14 -8 9 14 23 39 31 55 l16 30 -25 -28 c-15 -15 -26
-26 -26 -22 0 3 20 46 45 95 25 50 44 90 42 90 -2 0 -23 -27 -48 -61 -24 -33
-45 -56 -47 -51 -2 6 13 42 32 82 42 84 30 82 -26 -4 -22 -33 -37 -50 -33 -36
10 35 33 79 62 120 20 29 17 27 -17 -10 -42 -45 -42 -45 -25 -10 10 19 35 58
58 85 l40 50 -42 -40 c-47 -44 -77 -89 -98 -144 l-14 -36 5 48 c6 52 28 100
75 165 58 78 132 104 178 60z m-1398 -83 c-3 -2 -16 10 -29 28 l-23 32 29 -27
c15 -15 26 -30 23 -33z m2626 33 c53 -11 112 -38 159 -71 26 -18 28 -23 22
-66 -9 -66 -61 -169 -107 -213 -22 -21 -44 -38 -49 -38 -5 0 -6 22 -3 50 5 46
3 54 -23 81 -25 26 -27 32 -13 39 9 5 27 19 40 30 16 14 11 13 -18 -5 l-42
-27 -72 36 c-40 20 -89 39 -110 42 -60 10 -35 24 44 26 l72 1 -63 6 -62 6 25
38 c14 20 33 38 43 38 16 1 16 2 0 6 -10 2 -18 8 -18 13 0 30 62 33 175 8z
m-1706 -56 c0 -31 -7 -79 -14 -107 -12 -49 -13 -49 -14 -14 -2 65 12 189 20
183 5 -3 9 -31 8 -62z m-1728 29 c30 -12 64 -28 75 -37 18 -15 18 -15 -10 -9
-77 17 -86 14 -27 -9 35 -13 68 -29 74 -35 21 -21 -4 -24 -59 -7 -78 25 -77
15 2 -13 35 -12 69 -31 74 -41 9 -16 6 -17 -32 -9 -66 15 -69 4 -3 -13 l60
-16 -85 5 c-75 4 -93 2 -150 -21 -80 -33 -130 -78 -130 -120 l0 -31 -29 30
c-68 69 -141 228 -126 275 7 23 64 55 122 70 58 14 181 5 244 -19z m932 15
c50 -21 114 -93 148 -164 16 -35 28 -66 26 -69 -3 -2 -19 18 -37 44 -35 51
-34 52 -15 -37 3 -14 2 -18 -1 -10 -17 41 -67 108 -95 129 l-32 24 25 -34 c14
-19 34 -47 44 -63 18 -29 18 -29 -3 -18 -12 7 -36 29 -54 49 -24 28 -28 31
-15 9 13 -20 14 -27 4 -24 -15 5 -78 105 -78 125 0 13 35 53 45 53 3 0 20 -6
38 -14z m951 -58 c17 -24 20 -81 6 -113 -7 -14 -8 -9 -4 18 4 20 4 37 2 37 -3
0 -20 -39 -39 -86 -35 -92 -48 -98 -30 -14 16 76 13 81 -14 23 -13 -29 -27
-53 -30 -53 -8 0 5 108 17 140 12 31 47 70 64 70 7 0 20 -10 28 -22z m996 -3
c0 -10 -84 -65 -99 -65 -9 0 9 15 39 34 62 39 60 38 60 31z m-412 -33 c20 -25
14 -93 -13 -151 -33 -71 -150 -185 -238 -233 -79 -43 -76 -30 11 42 34 28 62
54 62 57 0 3 -6 1 -12 -4 -21 -15 -108 -64 -108 -60 0 2 41 36 90 76 50 40 90
75 90 77 0 3 -26 -13 -57 -34 -32 -21 -76 -49 -98 -62 l-40 -23 29 31 30 32
-55 -29 c-102 -55 -104 -43 -4 33 55 43 119 89 143 103 23 14 42 27 42 29 0
15 -141 -67 -189 -110 -30 -26 -21 -10 45 80 56 75 97 115 148 141 65 34 99
35 124 5z m-2164 -59 c100 -60 153 -99 145 -108 -3 -3 -28 2 -55 10 -63 19
-65 19 -26 -6 37 -24 43 -44 10 -33 -61 19 -148 65 -172 90 -43 45 -60 83 -45
100 16 19 33 13 143 -53z m978 40 c30 -26 31 -65 3 -124 -13 -30 -25 -49 -25
-43 0 6 -11 36 -25 65 -19 41 -24 47 -21 24 3 -16 8 -50 11 -75 l5 -45 -15 40
c-17 46 -20 137 -4 166 11 22 40 19 71 -8z m1806 1 c35 -10 26 -24 -15 -25
-21 0 -81 -6 -133 -13 -52 -7 -97 -12 -98 -10 -8 6 45 27 101 39 70 15 111 18
145 9z m-3527 -14 c54 0 29 -19 -28 -22 l-58 -3 63 -9 c34 -5 62 -12 62 -16 0
-5 3 -15 6 -24 5 -12 -1 -16 -24 -16 -116 0 -302 -89 -302 -144 0 -15 20 -42
58 -78 60 -57 61 -62 11 -88 -13 -7 -36 -24 -51 -37 l-27 -26 -29 24 c-83 68
-134 179 -112 244 16 50 100 131 164 161 58 26 161 45 210 38 16 -2 41 -4 57
-4z m3619 -41 c96 -15 219 -76 234 -116 25 -64 -153 -239 -282 -278 l-23 -7
25 39 c42 64 43 88 5 125 -18 18 -32 36 -31 41 2 6 -12 11 -29 9 -4 -1 -37 5
-75 12 l-69 13 35 11 c25 7 29 10 13 11 -12 1 -34 -4 -50 -10 -15 -7 -48 -15
-72 -19 -39 -6 -42 -6 -26 6 10 7 47 23 82 35 35 11 63 23 61 24 -3 4 -74 -10
-110 -21 -13 -4 -16 -1 -12 10 9 23 69 39 179 47 l100 7 -124 -2 c-109 -2
-120 -1 -90 10 40 15 28 18 -18 5 -26 -7 -31 -7 -26 5 3 8 8 14 12 15 3 0 38
9 76 19 81 22 125 24 215 9z m-386 -9 c45 -17 51 -45 21 -106 -40 -81 -141
-176 -239 -224 -111 -54 -163 -63 -63 -10 81 42 103 62 40 34 -109 -47 -174
-60 -172 -35 0 3 51 30 112 59 62 30 124 62 137 73 15 12 -4 6 -45 -14 -71
-35 -237 -97 -258 -97 -7 0 42 27 108 59 66 33 129 67 140 76 11 9 16 14 10
12 -31 -14 -205 -87 -208 -87 -2 0 24 29 57 64 40 42 83 75 124 95 34 17 62
33 62 36 0 3 -25 -5 -56 -16 -30 -12 -58 -19 -60 -16 -3 3 7 19 23 37 49 55
194 88 267 60z m-1870 -30 c33 -13 67 -35 85 -56 46 -51 43 -57 -9 -19 -52 38
-57 30 -11 -20 43 -47 57 -83 19 -48 -35 31 -108 77 -114 70 -3 -3 11 -17 31
-32 37 -29 81 -83 73 -91 -3 -2 -24 9 -46 26 -23 17 -42 28 -42 25 0 -3 17
-24 38 -47 52 -58 8 -33 -59 34 -58 58 -48 28 13 -38 29 -32 34 -41 19 -37
-58 15 -141 142 -141 216 l0 37 45 0 c24 0 69 -9 99 -20z m813 -2 c-3 -8 -6
-5 -6 6 -1 11 2 17 5 13 3 -3 4 -12 1 -19z m-123 6 c9 -3 16 -15 16 -25 0 -16
-5 -18 -27 -14 -27 6 -27 6 -9 -9 20 -16 20 -16 -1 -16 -26 0 -57 35 -50 55 6
15 42 20 71 9z m-286 -56 c-12 -18 -24 -26 -26 -19 -5 16 27 63 39 56 5 -4 0
-20 -13 -37z m109 25 c7 -18 -38 -63 -63 -63 -18 0 -18 14 1 50 17 33 52 40
62 13z m-1224 -24 c31 -11 78 -29 103 -42 43 -20 47 -25 49 -63 l3 -40 -80 23
c-86 25 -155 31 -78 7 122 -38 175 -64 192 -94 9 -17 15 -30 12 -30 -2 0 -57
13 -122 29 -127 32 -200 47 -192 38 3 -3 72 -26 154 -51 82 -25 154 -51 160
-57 8 -9 -21 -10 -119 -7 -119 5 -126 5 -80 -7 28 -7 70 -14 95 -14 60 -2 79
-13 60 -37 -13 -14 -28 -16 -110 -11 -53 3 -124 15 -162 27 -187 58 -321 234
-229 299 86 62 215 73 344 30z m-568 -11 c15 -23 15 -23 -22 -29 l-38 -6 43
-8 c39 -7 102 -46 102 -63 0 -4 -53 -6 -117 -5 l-118 1 83 -10 c86 -10 103
-22 52 -33 -17 -4 -50 -22 -74 -40 -40 -31 -45 -32 -78 -20 -80 27 -154 94
-146 131 7 38 165 102 255 103 33 1 45 -4 58 -21z m2099 -3 c6 -11 14 -22 17
-25 20 -19 39 -59 38 -85 l0 -30 -22 29 c-12 17 -39 47 -59 68 -46 45 -50 71
-12 66 15 -2 32 -12 38 -23z m-560 -7 c9 -12 16 -36 15 -53 0 -25 -2 -26 -8
-10 -6 15 -9 10 -14 -24 -7 -53 -27 -79 -27 -35 0 16 -5 36 -10 44 -7 11 -10
5 -10 -25 0 -61 -15 -75 -30 -30 -16 47 -7 101 21 131 28 30 44 30 63 2z m351
7 c0 -13 -73 -37 -87 -29 -5 3 -2 14 8 25 19 21 79 24 79 4z m419 -1 c30 -30
18 -153 -18 -176 -20 -14 -26 -8 -26 25 0 25 -3 29 -11 17 -8 -11 -9 -6 -5 20
4 20 3 30 -2 25 -13 -15 -32 -74 -33 -104 -1 -46 -17 8 -18 61 -1 55 12 94 41
126 25 26 50 28 72 6z m-1279 -53 c56 -26 170 -109 162 -117 -2 -2 -25 5 -53
15 -91 34 -100 33 -26 -5 108 -55 95 -72 -23 -30 -118 43 -115 30 5 -20 85
-35 111 -54 73 -54 -10 1 -58 16 -107 34 -101 39 -101 32 -1 -18 39 -20 67
-35 64 -36 -14 0 -118 34 -154 52 l-40 19 25 -20 c14 -11 77 -41 140 -67 63
-25 116 -47 118 -48 6 -6 -134 1 -153 7 -11 4 -3 -1 17 -11 54 -27 59 -36 15
-29 -120 19 -276 150 -315 265 -6 18 -8 40 -5 48 10 26 63 43 133 44 51 0 78
-6 125 -29z m982 4 l28 -24 -28 -1 c-40 0 -94 29 -76 41 24 15 47 10 76 -16z
m-115 -6 c17 -9 18 -13 7 -20 -30 -19 -107 -1 -94 22 8 12 62 11 87 -2z m-202
-8 c0 -8 -99 -61 -114 -61 -14 0 -4 23 19 45 16 17 35 25 60 25 19 0 35 -4 35
-9z m100 -21 c30 -16 32 -19 17 -26 -10 -3 -36 -1 -58 5 -34 10 -38 15 -28 27
15 18 26 17 69 -6z m180 -30 c0 -13 -34 -30 -59 -30 -29 0 -28 38 2 49 23 9
57 -2 57 -19z m-264 0 c26 -10 26 -11 8 -25 -20 -15 -94 -21 -94 -7 0 6 47 40
57 42 1 0 14 -5 29 -10z m174 0 c0 -12 -28 -25 -36 -17 -9 9 6 27 22 27 8 0
14 -5 14 -10z m200 -5 c40 -21 38 -35 -4 -35 -50 0 -87 16 -80 35 8 19 47 19
84 0z m1340 -10 c54 -32 59 -48 31 -101 -28 -51 -89 -109 -141 -132 -48 -21
-151 -20 -182 3 -21 15 -21 16 -2 11 12 -4 42 4 75 19 52 24 37 25 -26 1 -32
-12 -105 -10 -105 3 0 4 18 13 41 20 54 16 44 25 -17 14 -32 -6 -65 -5 -94 2
-48 12 -44 16 30 30 43 9 172 56 167 61 -4 4 -144 -34 -192 -52 -13 -5 -9 1
10 16 17 13 51 43 77 66 59 52 100 64 209 61 63 -2 94 -8 119 -22z m-1997 -2
c3 -10 8 -35 12 -55 5 -31 3 -37 -9 -32 -8 3 -18 13 -22 22 -6 14 -8 13 -14
-8 -6 -19 -8 -14 -9 26 -1 28 2 54 6 57 12 13 32 7 36 -10z m394 -17 c-5 -16
-37 -20 -50 -7 -9 9 -8 14 2 20 17 11 53 2 48 -13z m2155 -29 c57 -26 138 -90
138 -111 0 -7 -5 -17 -12 -24 -8 -8 -23 0 -62 34 -57 52 -122 88 -191 105 -33
8 -43 14 -33 21 21 14 99 2 160 -25z m-2384 0 c3 -17 -93 -126 -103 -116 -2 3
-2 22 2 43 10 66 91 124 101 73z m167 13 c8 -14 -13 -40 -32 -40 -7 0 -16 7
-20 16 -10 26 38 47 52 24z m123 -8 c5 -15 -40 -34 -50 -19 -3 6 -4 16 -1 24
7 17 45 13 51 -5z m138 3 c16 -13 17 -16 4 -25 -35 -23 -78 -6 -66 25 7 19 37
19 62 0z m461 -12 c9 -24 -27 -84 -66 -110 -42 -29 -61 -30 -30 -2 l24 20 -27
-5 c-33 -8 -35 2 -7 38 22 28 19 32 -13 15 -39 -21 -13 15 28 38 46 27 82 29
91 6z m-2287 -18 l34 -25 -40 -1 -39 -1 43 -9 c23 -4 51 -14 63 -22 17 -13 18
-15 4 -21 -9 -3 -58 -7 -108 -8 -90 -1 -89 -1 38 -8 167 -10 222 -28 86 -29
-52 -1 -92 -3 -89 -6 3 -3 56 -10 119 -16 62 -6 120 -15 129 -19 12 -8 13 -9
1 -10 -8 0 -33 -9 -56 -20 -22 -11 -81 -26 -130 -35 l-90 -14 79 4 78 4 -28
-30 c-35 -37 -80 -45 -173 -30 -96 14 -167 49 -220 106 -46 50 -50 74 -21 115
42 59 133 99 226 100 49 0 66 -5 94 -25z m1493 11 c6 -16 -1 -23 -55 -51 -49
-25 -57 -15 -21 29 29 37 66 48 76 22z m247 1 c0 -14 -20 -37 -32 -37 -4 0 -8
11 -8 25 0 18 5 25 20 25 11 0 20 -6 20 -13z m186 -3 c18 -9 43 -31 54 -49 24
-38 26 -52 5 -35 -21 18 -19 3 6 -31 15 -21 19 -38 14 -56 -6 -26 -8 -25 -36
28 -17 29 -48 73 -71 96 -55 56 -41 80 28 47z m-303 -8 c3 -7 1 -18 -5 -24
-15 -15 -49 4 -42 23 8 19 40 20 47 1z m-515 -12 c12 -8 27 -24 33 -35 10 -19
9 -20 -11 -9 -32 17 -35 5 -4 -19 28 -22 17 -29 -17 -10 -19 10 -20 9 -9 -11
6 -11 10 -29 8 -38 -5 -28 -78 52 -78 86 0 50 35 66 78 36z m2579 -16 c57 -21
140 -74 156 -100 15 -23 -63 -151 -111 -183 -29 -19 -170 -75 -189 -75 -2 0 8
15 22 34 14 19 30 49 35 67 9 29 7 37 -18 62 -37 39 -110 92 -147 106 -26 9
-18 10 50 7 44 -2 89 -6 100 -10 11 -3 4 1 -15 10 -19 9 -60 19 -90 23 l-55 6
25 18 c13 9 34 17 45 18 11 0 14 3 7 6 -10 4 -9 10 5 25 15 17 25 19 73 13 30
-4 78 -16 107 -27z m-1997 -4 c0 -8 -9 -14 -20 -14 -22 0 -28 26 -7 33 16 6
27 -1 27 -19z m90 5 c0 -12 -29 -24 -37 -16 -3 4 -3 13 0 21 6 16 37 11 37 -5z
m344 5 c11 -28 6 -74 -10 -112 l-16 -37 -10 33 c-5 18 -13 30 -18 27 -19 -12
-21 18 -5 61 17 46 47 60 59 28z m-564 -30 c0 -33 -33 -30 -38 4 -3 17 2 22
17 22 16 0 21 -6 21 -26z m312 9 c31 -28 23 -46 -19 -40 -43 7 -58 20 -50 41
8 21 46 20 69 -1z m-364 -14 c3 -18 -37 -39 -76 -39 l-27 1 35 30 c37 31 63
34 68 8z m217 0 c0 -7 -8 -15 -17 -17 -18 -3 -25 18 -11 32 10 10 28 1 28 -15z
m-503 -60 l-9 -54 -7 47 c-9 52 -2 88 15 71 6 -6 6 -30 1 -64z m378 45 c0 -31
-23 -28 -28 4 -2 15 2 22 12 22 11 0 16 -9 16 -26z m40 -12 c0 -24 -1 -25 -16
-10 -10 9 -14 24 -10 33 9 23 26 9 26 -23z m145 18 c4 -6 -4 -19 -17 -29 -21
-18 -24 -18 -29 -3 -11 30 30 58 46 32z m735 -19 c86 -61 -39 -177 -201 -186
l-74 -5 50 16 c28 8 61 19 75 24 24 9 24 9 -5 8 -16 0 -43 0 -60 1 -28 2 -27
3 20 22 75 30 77 41 4 19 -75 -23 -72 -23 -64 -10 7 11 74 49 120 67 25 10 26
12 8 12 -26 1 -104 -31 -147 -61 l-31 -22 36 44 c20 24 48 53 62 64 51 38 158
42 207 7z m-2895 -18 c-10 -28 -10 -42 -2 -51 8 -10 7 -16 -4 -23 -11 -7 -11
-9 -1 -9 8 0 33 -20 57 -45 l44 -44 -32 -6 c-18 -2 -48 -6 -67 -8 -19 -2 1 -5
45 -6 44 -1 89 -6 100 -10 17 -7 12 -11 -30 -30 -62 -28 -146 -25 -220 8 -96
43 -115 83 -72 153 36 59 110 107 168 108 26 0 27 0 14 -37z m2055 23 c0 -8
-4 -18 -10 -21 -5 -3 -10 -4 -10 -1 0 2 -3 11 -6 20 -4 11 -1 16 10 16 9 0 16
-6 16 -14z m-429 -66 c-9 -24 -10 -24 -10 7 -1 17 2 40 7 50 6 15 7 14 10 -7
2 -14 -2 -37 -7 -50z m300 50 c28 -16 25 -42 -3 -31 -13 4 -29 6 -35 4 -14 -5
-18 19 -6 30 9 10 21 9 44 -3z m-841 -37 c30 -20 88 -51 128 -69 87 -38 95
-44 56 -44 -45 0 -163 34 -224 64 l-55 27 33 -30 c38 -37 32 -39 -22 -8 -54
31 -65 50 -42 76 28 31 64 26 126 -16z m688 15 c2 -11 -9 -23 -30 -34 -18 -9
-48 -33 -65 -52 l-33 -36 0 38 c0 50 55 109 97 104 17 -2 29 -10 31 -20z m322
-8 c-21 -14 -30 -12 -30 4 0 18 22 27 35 14 6 -6 5 -12 -5 -18z m105 20 c11
-18 -3 -27 -35 -22 -25 3 -28 7 -19 18 13 16 45 19 54 4z m-341 -16 c8 -20
-11 -44 -34 -44 -24 0 -32 26 -14 45 20 20 40 19 48 -1z m430 6 c31 -11 41
-31 50 -93 l7 -47 -37 25 c-44 30 -88 90 -80 111 6 16 25 18 60 4z m-304 -16
c0 -8 -5 -12 -10 -9 -6 4 -8 11 -5 16 9 14 15 11 15 -7z m1211 -9 c59 -31 89
-56 89 -76 0 -28 -67 -97 -119 -124 -62 -31 -147 -55 -190 -54 -35 1 -35 1 19
20 l55 18 -55 -4 c-30 -3 -50 -2 -43 1 8 4 3 13 -15 29 l-27 24 30 1 c17 1 46
7 65 15 33 12 29 12 -50 9 -70 -3 -80 -2 -57 7 17 7 26 16 23 24 -3 9 16 18
62 29 37 8 76 17 87 20 11 3 -15 4 -57 2 l-77 -3 19 38 c12 22 29 40 42 43 45
9 166 -2 199 -19z m-744 -7 c-3 -8 -6 -5 -6 6 -1 11 2 17 5 13 3 -3 4 -12 1
-19z m-886 -19 c10 -13 21 -35 25 -49 l7 -25 -23 20 -23 20 12 -23 c19 -36 9
-45 -22 -17 -19 18 -27 36 -27 59 0 53 20 59 51 15z m573 22 c3 -4 16 -6 29
-4 14 3 29 -2 36 -11 12 -14 10 -16 -13 -16 -14 0 -35 6 -46 12 -16 10 -24 10
-39 1 -10 -7 -22 -9 -25 -6 -3 4 4 12 17 19 28 15 34 16 41 5z m1657 -14 c71
-30 128 -73 135 -104 8 -29 -30 -80 -95 -130 -52 -41 -71 -41 -93 -4 -15 28
-15 30 0 34 13 4 12 5 -4 6 -11 0 -29 10 -38 20 -17 19 -17 20 6 24 20 4 19 4
-6 6 -16 0 -45 11 -65 24 l-36 22 60 5 60 5 -83 7 c-45 4 -92 13 -104 19 -22
12 -22 12 -3 20 11 4 43 9 70 10 l50 2 -45 6 -45 6 39 14 c28 10 35 16 25 22
-9 5 10 9 51 9 45 0 82 -8 121 -23z m-1861 3 c13 -9 13 -11 0 -20 -18 -12 -70
-13 -70 -2 0 27 42 40 70 22z m-152 -17 c-2 -10 -18 -26 -37 -35 -18 -9 -44
-27 -58 -40 l-26 -23 16 31 c30 59 114 111 105 67z m354 -21 c-27 -4 -37 2
-27 17 4 8 13 7 28 -1 l22 -13 -23 -3z m-1277 8 c-29 -7 -30 -8 -4 -9 34 -1
129 -32 129 -41 0 -4 -37 -10 -82 -14 -140 -11 -166 -25 -38 -19 63 3 156 2
205 -3 l90 -8 -105 -12 -105 -11 85 -2 c106 -1 97 -19 -16 -32 -44 -5 -104
-13 -134 -18 -71 -11 -17 -12 93 -2 79 7 127 -2 71 -14 -102 -22 -164 -39
-217 -60 -33 -14 -72 -25 -86 -26 l-26 -1 25 -7 24 -7 -31 -22 c-43 -30 -88
-28 -162 9 -61 30 -121 93 -121 125 0 45 133 138 230 162 74 19 83 20 145 20
47 0 54 -2 30 -8z m593 -19 c28 -24 28 -34 0 -25 -21 6 -20 3 7 -25 l30 -32
-28 10 c-47 18 -65 11 -25 -9 49 -26 57 -41 16 -29 -64 18 -89 32 -103 60 -18
35 -18 34 1 53 21 22 76 20 102 -3z m980 -15 c4 -34 -13 -78 -39 -102 -18 -17
-19 -15 -19 44 0 76 7 94 34 90 15 -2 22 -11 24 -32z m-590 2 c3 -14 -57 -82
-66 -74 -2 2 -4 19 -4 36 -2 50 61 84 70 38z m132 17 c0 -2 -7 -11 -16 -19
-21 -22 -45 -21 -37 2 5 13 1 12 -19 -5 -13 -13 -30 -23 -36 -23 -21 0 -13 30
11 39 22 8 97 13 97 6z m120 -11 c0 -2 -7 -4 -15 -4 -8 0 -15 4 -15 10 0 5 7
7 15 4 8 -4 15 -8 15 -10z m139 3 c8 -10 7 -18 -2 -32 -11 -14 -17 -16 -35 -6
-12 6 -22 16 -22 21 0 5 -6 7 -13 4 -7 -2 -24 0 -38 6 -22 10 -22 10 9 7 18
-2 35 0 38 5 8 13 50 9 63 -5z m339 -9 c28 -28 1 -106 -44 -127 l-23 -10 22
37 c13 22 16 33 7 26 -8 -6 -25 -15 -38 -19 l-23 -7 17 34 17 33 -22 -19 c-17
-15 -21 -16 -21 -4 0 16 36 52 60 61 24 9 35 8 48 -5z m-558 -8 c12 -8 13 -13
3 -30 -7 -11 -13 -28 -13 -39 0 -10 -7 -21 -15 -25 -19 -7 -19 14 0 40 8 10
14 26 14 34 0 11 -3 10 -14 -4 -15 -20 -20 -10 -9 18 7 18 13 19 34 6z m100
-61 c0 -29 -19 -23 -26 8 l-7 27 -10 -25 c-9 -23 -9 -23 -17 -4 -8 23 -2 47
11 39 5 -3 9 1 9 8 1 20 40 -32 40 -53z m22 49 c10 -9 13 -21 8 -38 l-7 -25
-12 29 c-6 16 -14 33 -17 37 -8 13 10 11 28 -3z m1352 -18 c78 -27 117 -48
159 -89 52 -49 81 -105 67 -131 -28 -51 -179 -123 -286 -135 l-59 -7 -33 41
-33 41 83 1 83 1 -90 13 c-49 7 -106 20 -125 29 l-35 15 65 1 c36 1 85 5 110
9 36 7 20 9 -75 11 -66 1 -138 7 -160 14 -38 12 -34 13 95 22 l135 9 -105 5
c-64 3 -95 8 -80 12 14 4 43 11 65 17 38 10 38 10 -15 5 -50 -4 -53 -4 -36 10
17 14 37 18 131 29 17 2 4 5 -28 6 l-59 1 25 30 c14 16 29 39 32 51 6 19 12
20 62 14 30 -4 78 -15 107 -25z m-1742 8 c1 -7 2 -70 3 -140 0 -124 0 -127
-19 -109 -10 11 -27 43 -37 72 l-18 54 -1 -50 c-1 -37 -4 -45 -10 -30 -15 36
-11 95 11 138 34 66 66 96 71 65z m173 -20 c-4 -13 -18 -34 -31 -48 l-24 -25
0 26 c0 30 26 69 46 69 11 0 14 -6 9 -22z m45 2 c0 -13 -7 -20 -20 -20 -18 0
-19 3 -10 20 6 11 15 20 20 20 6 0 10 -9 10 -20z m353 -4 c23 -34 30 -71 23
-111 -7 -35 -26 -40 -26 -7 0 9 -7 25 -14 35 -12 15 -13 12 -9 -28 7 -60 -9
-58 -36 4 -24 56 -27 101 -9 119 20 20 55 14 71 -12z m-119 -2 c9 -8 16 -26
16 -39 0 -13 3 -31 7 -40 11 -30 -35 2 -53 36 -24 48 -4 78 30 43z m-348 -36
c-3 -18 -17 -44 -30 -58 -13 -14 -28 -34 -34 -45 -10 -18 -11 -17 -12 12 0 57
36 123 68 123 11 0 13 -8 8 -32z m-520 8 c17 -13 15 -15 -36 -22 -30 -5 -46
-10 -35 -11 11 -2 52 -11 90 -21 l70 -17 -55 -5 c-49 -5 -52 -7 -25 -13 92
-24 92 -24 21 -25 -93 -2 -98 -12 -6 -12 58 0 71 -3 62 -12 -7 -7 -51 -14
-106 -16 -78 -4 -100 -1 -140 16 -40 18 -46 25 -46 51 0 65 150 128 206 87z
m714 -21 c0 -13 -4 -27 -10 -30 -11 -7 -25 39 -15 55 10 16 25 2 25 -25z
m-450 3 c21 -23 28 -64 9 -52 -7 4 -7 -1 1 -16 6 -12 9 -24 7 -27 -10 -10 -55
29 -67 57 -23 55 10 81 50 38z m351 -24 c-9 -21 -14 -24 -26 -14 -19 16 -19
25 1 45 24 24 41 4 25 -31z m154 -16 c17 -59 18 -68 7 -68 -15 0 -48 74 -44
98 6 37 20 25 37 -30z m783 32 c17 -11 32 -25 32 -31 0 -67 -141 -99 -280 -64
l-55 13 110 2 c123 3 121 5 -10 16 -49 4 -83 9 -75 10 8 1 33 6 55 10 l40 8
-60 6 -60 7 77 1 c85 2 119 21 41 23 -43 1 -45 2 -18 9 17 4 62 8 100 9 54 1
78 -4 103 -19z m-728 -6 c11 -13 10 -19 -8 -36 l-21 -21 -6 26 c-11 43 10 62
35 31z m2094 -47 c29 -38 41 -84 32 -120 -7 -29 -65 -88 -111 -113 l-34 -18
-58 55 c-32 31 -78 69 -102 85 l-45 29 55 6 c52 5 50 6 -26 8 -86 3 -85 4 30
40 49 16 83 21 110 16 40 -6 40 -6 11 8 l-30 13 45 26 c40 24 46 25 71 12 15
-8 38 -29 52 -47z m-2264 -31 c-25 -41 -40 -39 -40 5 0 19 10 39 28 57 l27 27
3 -26 c2 -14 -7 -42 -18 -63z m-1619 64 c27 0 39 -4 39 -14 0 -19 -22 -26 -83
-27 -29 -1 -63 -4 -77 -8 -14 -5 16 -6 65 -3 86 4 91 3 114 -21 l24 -26 -24
-5 c-13 -3 -33 -7 -44 -9 -11 -3 3 -6 30 -7 l50 -2 -90 -24 c-49 -13 -72 -22
-50 -19 22 2 67 7 100 11 33 4 57 4 54 0 -10 -11 -140 -45 -205 -55 l-59 -9
47 -1 c26 0 94 8 150 19 115 22 128 23 128 12 0 -4 -35 -15 -77 -24 -96 -20
-180 -51 -228 -83 -45 -31 -54 -31 -114 0 -89 45 -129 121 -97 183 38 73 160
127 265 116 24 -2 61 -4 82 -4z m1546 -40 c15 -30 17 -96 3 -105 -5 -3 -16 8
-25 26 -27 51 -28 26 -1 -35 24 -54 22 -72 -4 -41 -7 9 -15 13 -18 10 -3 -3 5
-17 19 -31 l24 -27 -33 17 c-43 22 -76 92 -67 139 15 70 76 98 102 47z m163
-52 l0 -29 -32 22 c-18 12 -35 24 -37 25 -2 2 4 16 14 31 l18 27 18 -23 c11
-13 19 -37 19 -53z m398 55 c15 -25 -6 -71 -40 -89 -40 -20 -47 -10 -17 23
l24 27 -29 -22 c-36 -27 -42 -23 -22 16 31 59 66 78 84 45z m-247 -22 c23 -24
29 -38 29 -73 0 -64 -16 -80 -24 -24 -9 58 -21 66 -23 15 0 -22 -9 -52 -19
-67 l-19 -27 -3 25 c-4 24 -4 23 -17 -8 -8 -18 -18 -32 -23 -32 -12 0 -36 115
-27 130 4 6 16 9 27 7 15 -4 18 -1 13 14 -8 24 19 69 41 69 9 0 29 -13 45 -29z
m-2253 -38 c-6 -16 -34 -50 -62 -77 l-51 -48 47 36 c25 20 48 36 51 36 2 0 7
-17 11 -38 3 -23 20 -55 41 -80 40 -46 40 -45 -40 -55 -16 -2 -2 -5 33 -6 63
-1 128 -24 117 -41 -3 -5 -21 -14 -41 -20 -45 -15 -39 -23 7 -10 l34 9 -30
-24 c-38 -31 -95 -40 -170 -26 -146 27 -223 110 -185 201 19 45 113 126 173
149 73 28 79 27 65 -6z m1125 -1 l26 -28 -81 -29 c-93 -33 -93 -45 0 -16 34
10 62 17 62 15 0 -2 -30 -20 -67 -39 -70 -37 -59 -38 37 -4 l55 19 -25 -21
c-14 -12 -58 -38 -99 -57 -62 -30 -86 -36 -140 -36 -76 0 -137 17 -151 44 -13
24 24 70 85 106 41 23 204 71 251 73 11 1 32 -11 47 -27z m417 -7 l-35 -13 32
-3 32 -4 -24 -28 c-19 -22 -30 -26 -50 -21 -70 17 -40 85 38 83 l42 -1 -35
-13z m517 -10 c20 -14 33 -43 48 -110 7 -30 6 -29 -26 10 l-32 40 6 -32 c5
-26 3 -33 -9 -33 -8 0 -21 15 -29 33 -13 30 -14 30 -15 7 0 -20 -2 -22 -10
-10 -18 28 -12 78 12 94 28 20 28 20 55 1z m576 8 c-7 -2 -19 -2 -25 0 -7 3
-2 5 12 5 14 0 19 -2 13 -5z m461 -8 c91 -24 167 -65 219 -118 26 -26 47 -52
47 -57 0 -19 -57 -61 -108 -80 -109 -41 -249 -43 -324 -4 -25 13 -68 67 -68
86 0 3 23 -3 52 -14 29 -11 84 -21 123 -24 l70 -4 -60 14 c-67 16 -140 43
-170 63 -25 17 -11 16 71 -2 96 -23 90 -11 -10 20 -47 14 -86 30 -86 36 0 11
3 11 75 -6 98 -24 97 -16 -2 16 -51 16 -93 34 -93 39 0 6 45 10 108 11 l107 0
-47 15 c-27 8 -48 17 -48 19 0 11 89 4 144 -10z m-368 -14 c23 -10 51 -33 64
-51 30 -42 19 -78 -30 -103 -46 -24 -159 -19 -210 9 l-35 19 63 3 c34 2 62 6
62 10 0 5 -34 18 -76 30 -42 13 -75 25 -72 27 2 2 33 0 68 -5 36 -5 85 -11
110 -14 l45 -4 -34 29 c-19 16 -53 35 -75 44 l-41 15 47 -5 c27 -2 60 -7 75
-10 23 -4 21 -2 -7 9 -24 10 -29 15 -15 15 11 0 38 -8 61 -18z m-1071 -11 c21
-8 21 -8 -25 -23 -8 -3 -2 -6 13 -6 16 -1 26 -5 22 -11 -4 -6 8 -10 30 -10 47
0 37 -15 -17 -25 l-43 -9 45 -6 c48 -6 40 -13 -32 -25 -49 -9 -74 0 -88 34
-23 57 34 106 95 81z m2294 -20 c103 -49 226 -193 281 -329 13 -33 13 -35 -15
-57 -77 -61 -190 -100 -256 -87 -15 3 -44 19 -65 36 l-39 32 45 6 45 6 -52 1
c-48 2 -66 12 -44 26 4 3 11 20 15 37 l6 31 82 -6 c97 -7 93 -3 -14 15 -80 13
-116 37 -49 32 l36 -2 -41 11 c-27 7 -46 19 -57 37 -9 15 -41 51 -72 80 l-57
54 39 -6 c21 -3 49 -9 63 -12 14 -3 4 6 -22 20 -47 25 -62 45 -34 45 7 0 58
-11 112 -25 53 -14 99 -23 101 -22 5 5 -150 57 -169 57 -10 0 -18 4 -18 9 0
11 24 21 53 22 20 1 20 2 -3 9 -21 7 -17 8 20 9 31 1 65 -9 109 -29z m-2534
11 c-6 -5 -27 -14 -48 -21 -21 -7 -37 -14 -34 -16 2 -2 18 1 35 7 17 6 37 9
43 7 7 -2 -23 -14 -66 -27 -90 -26 -96 -40 -7 -17 33 9 70 16 83 16 39 -1 -35
-36 -140 -66 -99 -28 -134 -28 -139 -1 -9 46 91 108 188 118 36 3 72 7 80 7 8
1 10 -1 5 -7z m1012 -26 c10 -28 -26 -55 -74 -55 -38 0 -42 2 -31 14 8 8 23
16 34 19 15 4 14 5 -6 6 -24 2 -24 2 -6 16 26 20 75 19 83 0z m228 0 l30 -14
-35 5 c-19 3 -57 9 -85 13 l-50 9 55 0 c30 1 69 -5 85 -13z m-1971 -80 c-5
-21 0 -27 30 -41 l36 -17 -90 -43 c-99 -47 -121 -66 -37 -33 97 40 172 59 227
59 67 0 60 -8 -50 -54 -86 -35 -98 -49 -20 -21 23 8 45 15 49 15 19 0 -95 -64
-161 -91 -43 -17 -78 -33 -78 -36 0 -3 16 -2 36 2 44 8 39 -4 -18 -46 -30 -21
-52 -29 -82 -29 -74 0 -136 57 -123 112 18 69 136 191 231 238 46 22 58 18 50
-15z m-185 -26 c-30 -22 -90 -58 -134 -80 -44 -21 -98 -55 -120 -75 -38 -34
-38 -34 -4 -10 40 29 182 97 188 90 9 -9 -66 -77 -131 -121 -38 -25 -68 -47
-68 -49 0 -2 29 13 65 32 36 20 67 35 69 33 2 -2 1 -18 -1 -35 -4 -26 -14 -35
-62 -58 -31 -15 -68 -36 -81 -47 -14 -11 9 -2 50 21 41 22 79 40 83 40 4 0 13
-13 18 -29 6 -16 20 -32 32 -35 20 -5 15 -12 -48 -69 -39 -36 -86 -91 -105
-124 l-35 -60 -38 9 c-49 11 -147 60 -169 85 -16 17 -16 23 -4 64 21 68 79
178 125 237 94 119 272 219 395 221 28 1 27 -1 -25 -40z m1333 20 c21 -11 21
-12 -8 -24 l-29 -13 28 -1 c34 -1 35 -14 1 -29 -41 -19 -93 23 -78 62 7 19 55
21 86 5z m1901 -58 c55 -51 87 -106 87 -149 0 -42 -17 -52 -85 -52 -56 0 -62
2 -77 28 -9 15 -35 48 -57 73 -22 26 -37 50 -33 54 4 5 2 5 -5 2 -6 -4 -13 -4
-15 1 -1 4 -21 19 -43 32 -36 22 -38 25 -17 28 19 3 54 -5 149 -34 10 -3 -4 7
-32 22 l-49 27 44 17 c53 20 64 16 133 -49z m-2343 36 c-96 -40 -176 -88 -93
-56 96 37 183 68 183 64 0 -2 -28 -20 -62 -39 -83 -47 -72 -47 35 -2 54 23 46
13 -23 -30 -67 -41 -73 -52 -14 -28 59 24 28 1 -59 -45 -43 -23 -71 -41 -64
-41 8 0 49 17 91 38 42 21 76 35 76 31 0 -14 -95 -89 -155 -121 -55 -30 -67
-33 -151 -33 -109 0 -134 14 -134 75 0 74 108 142 292 185 130 30 147 30 78 2z
m911 13 c22 -12 27 -68 7 -88 -32 -32 -128 5 -128 50 0 20 1 21 20 3 19 -18
20 -17 20 5 0 13 5 20 13 17 6 -2 23 -8 37 -12 25 -8 25 -8 6 14 -21 23 -8 28
25 11z m209 -20 c42 -21 71 -45 97 -80 108 -144 152 -197 178 -214 28 -18 28
-18 -7 25 -19 24 -50 67 -68 94 l-33 50 54 -50 c30 -28 72 -66 93 -85 l40 -35
-32 41 c-17 22 -38 47 -47 54 -22 18 -38 50 -26 50 5 0 54 -34 108 -76 l98
-76 -70 72 c-66 68 -68 77 -10 54 18 -7 19 -6 6 9 -22 28 -5 31 31 6 111 -76
158 -135 158 -198 0 -41 -32 -61 -95 -61 -131 1 -279 111 -377 281 -25 43 -79
98 -144 146 -41 31 -24 28 46 -7z m-1400 1 c0 -11 -14 -28 -32 -40 -40 -24
-142 -128 -111 -112 30 15 31 14 26 -13 -3 -14 0 -41 7 -60 15 -46 55 -68 131
-69 l57 -2 -56 -23 c-70 -30 -196 -41 -242 -22 -52 22 -65 91 -31 165 22 50
99 120 177 163 69 37 74 38 74 13z m854 -6 c-18 -13 -18 -14 -1 -15 24 0 12
-19 -19 -30 -32 -13 -54 -3 -54 25 0 27 11 33 59 34 33 1 34 0 15 -14z m111
-5 c7 -21 -17 -70 -35 -70 -15 0 -40 30 -40 49 0 41 63 58 75 21z m-437 -6
c-36 -19 -35 -25 1 -14 36 10 47 2 23 -16 -15 -12 -14 -13 11 -14 40 0 33 -17
-17 -42 -50 -24 -91 -19 -101 12 -12 38 40 89 90 89 17 0 15 -2 -7 -15z m1218
-52 c14 -72 -59 -82 -132 -17 -41 36 -39 41 14 25 28 -7 33 -7 28 5 -7 19 24
20 44 3 12 -11 12 -10 1 5 -11 14 -11 20 0 33 12 14 14 14 26 -2 7 -10 16 -33
19 -52z m-285 -55 c26 -43 24 -73 -6 -102 -37 -38 -85 -34 -136 12 -40 36 -69
80 -69 105 0 7 18 -7 40 -32 43 -49 54 -47 16 3 -13 18 -29 43 -36 57 -12 22
-9 21 31 -11 24 -19 51 -39 59 -44 13 -7 13 -6 0 11 -27 34 -55 90 -39 78 8
-6 33 -25 57 -43 52 -40 53 -34 5 21 l-38 42 48 -33 c27 -18 57 -47 68 -64z
m912 51 c81 -52 156 -149 182 -235 9 -33 -44 -63 -113 -63 -48 0 -90 18 -76
32 13 14 -68 107 -127 145 -35 24 -73 49 -84 57 -39 29 31 18 96 -15 72 -36
71 -22 -1 18 -28 15 -50 31 -50 34 0 16 53 18 86 4 21 -8 39 -13 42 -10 3 2
-11 12 -31 20 -33 14 -36 17 -25 35 15 24 34 20 101 -22z m-1998 12 c-3 -5
-12 -10 -18 -10 -7 0 -6 4 3 10 19 12 23 12 15 0z m-1690 -86 c17 -13 42 -27
55 -32 24 -9 23 -10 -17 -21 -24 -7 -43 -14 -43 -17 0 -3 10 -2 23 2 12 4 69
8 127 9 l105 1 -37 -76 c-29 -58 -44 -76 -64 -82 -31 -8 -156 6 -200 22 -41
16 -94 58 -94 76 0 39 84 159 103 147 7 -4 26 -17 42 -29z m1874 -26 c-77 -95
-79 -110 -5 -38 58 56 65 61 56 35 -6 -16 -36 -61 -66 -100 l-56 -70 66 66
c36 37 66 64 66 61 0 -3 -14 -30 -31 -61 l-30 -56 36 38 c41 43 54 42 36 -2
-24 -57 -99 -102 -193 -115 -41 -6 -48 -4 -58 14 -18 34 -2 96 43 163 23 34
57 70 76 81 19 11 31 15 27 8 -11 -18 -1 -15 40 13 20 14 38 25 40 25 2 0 -19
-28 -47 -62z m179 40 c-33 -52 -30 -63 8 -28 l37 35 -23 -40 -23 -40 41 40
c23 21 42 35 42 30 -1 -24 -57 -120 -81 -138 -69 -51 -98 40 -39 121 32 44 64
60 38 20z m168 -27 c-3 -22 -8 -48 -11 -58 -3 -10 8 8 24 39 27 56 29 57 34
30 7 -35 -6 -94 -27 -127 -18 -28 -62 -43 -84 -28 -37 23 -38 41 -7 99 29 54
30 55 35 27 5 -27 6 -27 19 15 18 53 26 54 17 3z m120 -36 l13 -50 -3 57 c-3
70 3 67 21 -10 l13 -57 -3 68 c-2 37 -1 67 1 67 11 0 32 -78 32 -123 0 -62
-27 -107 -64 -107 -46 0 -54 33 -39 171 7 67 8 66 29 -16z m186 -100 c22 -101
26 -192 9 -224 -25 -46 -102 -8 -141 70 -21 41 -26 74 -10 64 6 -3 10 0 10 7
1 7 10 -4 20 -24 11 -20 25 -40 31 -44 7 -4 7 1 -1 16 -18 34 -30 80 -20 80 5
0 11 -6 13 -12 3 -7 6 -4 7 7 1 16 4 14 15 -10 l15 -30 -5 30 c-2 17 -7 57
-10 90 l-5 60 24 -50 c20 -40 25 -45 25 -25 1 14 -5 48 -13 75 -7 28 -16 61
-19 75 -4 14 2 5 14 -20 11 -25 30 -85 41 -135z m668 159 c22 -9 37 -20 34
-25 -3 -5 1 -9 9 -9 8 0 50 -20 93 -45 102 -58 118 -58 31 1 -118 78 -67 67
91 -20 45 -26 82 -45 82 -42 0 2 -36 27 -80 56 -44 29 -78 56 -75 60 13 20
144 -35 205 -86 57 -48 80 -142 41 -164 -29 -15 -122 -12 -172 5 -66 23 -132
72 -156 116 -23 41 -20 47 12 26 11 -8 34 -22 50 -32 l30 -17 -26 23 c-53 49
-168 139 -177 139 -10 0 -50 29 -40 30 4 0 26 -7 48 -16z m-1585 -86 l-90 -91
70 58 c39 33 81 68 94 80 50 41 -30 -54 -88 -106 -31 -28 -47 -46 -35 -40 11
5 45 31 75 58 61 54 59 50 -71 -102 -93 -109 -89 -111 24 -5 33 30 54 48 48
39 -7 -9 -9 -24 -6 -34 5 -13 -13 -37 -72 -93 l-79 -76 68 47 c37 25 67 44 67
41 0 -34 -84 -129 -135 -153 -75 -35 -219 -22 -247 22 -24 38 8 151 55 195 27
25 132 68 121 50 -4 -7 -21 -31 -38 -53 l-31 -40 40 32 c22 17 58 50 80 73 22
23 65 59 95 80 30 21 73 54 95 74 68 60 53 40 -40 -56z m-604 8 c-5 -27 -18
-43 -68 -80 -76 -55 -84 -71 -11 -21 28 20 56 34 62 32 6 -2 12 -17 14 -33 2
-25 -5 -34 -54 -69 -31 -22 -76 -66 -101 -97 -42 -55 -47 -58 -87 -58 -55 0
-69 15 -56 61 22 79 113 180 240 267 59 41 68 40 61 -2z m1879 -120 c29 -55
33 -68 25 -93 -8 -22 -17 -28 -40 -28 -24 0 -37 11 -77 65 -72 98 -76 110 -18
55 34 -32 48 -42 40 -26 -11 21 -10 23 5 17 13 -5 11 2 -9 29 -37 47 -29 64
13 29 29 -24 32 -25 22 -7 -6 12 -16 25 -21 28 -6 3 -10 11 -10 17 0 22 36
-22 70 -86z m-300 7 c0 -7 4 -13 8 -13 5 0 14 -10 20 -22 l11 -23 0 22 c1 12
-4 25 -9 28 -6 4 -8 11 -5 16 11 17 26 9 40 -23 16 -37 20 -19 6 30 -9 29 -8
31 9 22 40 -21 66 -161 40 -211 -16 -29 -85 -27 -104 4 -14 20 -56 189 -56
219 1 16 39 -33 40 -49z m1440 27 c73 -52 194 -240 202 -315 3 -27 -2 -32 -47
-55 -39 -19 -69 -25 -141 -28 l-91 -4 -30 55 -30 55 24 -9 c46 -17 48 -8 2 16
-25 13 -54 36 -64 52 -10 15 -39 49 -63 75 l-45 48 34 -14 c19 -8 56 -26 82
-40 60 -32 53 -16 -9 20 -24 14 -42 30 -39 34 7 12 78 -14 137 -50 26 -17 51
-30 55 -30 10 0 -80 66 -116 84 l-33 18 31 19 c17 10 31 24 31 30 0 6 26 -4
58 -21 62 -35 61 -31 -8 20 -76 58 -80 75 -14 66 25 -3 59 -15 74 -26z m-2000
-141 c-22 -61 -40 -114 -39 -117 0 -4 22 38 49 93 35 72 49 93 50 75 1 -23 2
-24 11 -5 7 14 8 4 5 -35 -7 -74 -21 -120 -52 -166 -15 -21 -19 -32 -10 -25
27 23 18 -4 -11 -31 -38 -34 -66 -48 -101 -48 -43 0 -58 40 -43 112 17 82 59
200 81 228 17 22 16 12 -10 -90 -16 -63 -29 -119 -29 -125 0 -9 71 171 86 217
4 15 17 22 45 27 4 0 -10 -49 -32 -110z m-1316 83 c-12 -9 -30 -23 -40 -30
-17 -11 -17 -12 5 -6 21 5 23 4 16 -12 -4 -11 -13 -35 -20 -54 -7 -19 -37 -57
-67 -83 l-53 -49 51 36 c59 41 64 43 64 17 0 -32 25 -44 80 -37 32 4 50 3 50
-4 0 -5 -10 -10 -22 -11 -13 0 -50 -11 -83 -25 -61 -25 -55 -26 26 -3 59 16
81 8 77 -28 -3 -24 -11 -31 -58 -47 -80 -28 -212 -28 -265 0 -22 12 -41 27
-43 36 -5 25 71 150 131 214 54 59 124 104 157 104 11 -1 9 -5 -6 -18z m1483
-43 c-7 -60 -3 -59 23 7 18 45 20 47 26 25 7 -23 8 -24 16 -5 5 12 7 2 4 -31
l-5 -50 17 45 c10 29 17 39 20 27 6 -29 -18 -86 -53 -123 -28 -29 -37 -34 -53
-25 -29 15 -45 64 -37 108 16 85 51 103 42 22z m825 -7 c23 -28 0 -19 -37 14
-39 35 -39 35 -7 17 19 -10 38 -24 44 -31z m-1952 30 c0 -4 -4 -12 -10 -18 -7
-7 1 -9 24 -6 76 9 72 -2 -16 -57 -49 -30 -88 -55 -88 -58 0 -5 85 39 149 77
48 28 51 28 40 7 -6 -12 -21 -33 -33 -46 l-21 -24 25 13 c14 7 36 22 50 34 13
11 0 -8 -28 -43 -60 -72 -80 -90 -138 -119 -36 -18 -147 -52 -171 -52 -15 0
-7 103 10 135 21 41 93 108 147 139 48 27 60 31 60 18z m1754 -133 c24 -79 21
-159 -7 -200 -27 -40 -72 -68 -86 -54 -6 6 -26 54 -45 108 l-36 97 29 0 c38 0
61 29 70 87 l7 48 19 -63 c24 -78 32 -65 11 15 -9 32 -18 69 -22 83 -12 45 45
-68 60 -121z m587 78 c24 -18 67 -48 94 -66 l50 -32 -39 34 -40 35 50 -5 c64
-7 127 -40 194 -100 30 -27 48 -38 42 -26 -6 11 -39 46 -73 76 l-61 56 31 16
c31 16 32 15 75 -21 56 -46 107 -114 151 -198 60 -115 43 -154 -62 -143 -72 8
-190 63 -208 97 -8 15 -30 48 -50 74 l-36 47 48 -27 c26 -15 57 -34 68 -41 11
-7 24 -13 30 -13 5 0 -29 28 -76 63 -118 85 -269 209 -269 219 0 11 28 -4 81
-45z m928 -9 c27 -56 35 -98 32 -164 -1 -12 -12 -26 -26 -32 -48 -22 -60 -16
-74 38 -7 27 -32 86 -56 130 -24 44 -38 80 -32 80 6 0 27 -15 47 -32 l35 -33
-29 32 -28 32 38 4 c22 2 44 4 51 5 6 1 25 -26 42 -60z m-2470 -95 c-41 -150
-59 -185 -131 -255 -65 -65 -123 -98 -167 -98 -39 0 -51 23 -51 98 0 95 31
176 100 263 51 65 64 75 85 71 l25 -4 -28 -37 c-69 -88 -70 -100 -3 -28 40 42
79 77 87 77 8 0 14 -2 14 -5 0 -2 -30 -52 -66 -111 -36 -58 -61 -103 -55 -100
6 4 41 46 78 94 72 94 134 164 141 158 2 -2 -11 -57 -29 -123z m1220 101 c18
-9 48 -38 68 -65 19 -27 37 -49 39 -49 2 0 -5 18 -16 40 -11 21 -20 42 -20 45
0 9 44 5 60 -5 9 -6 17 -5 22 3 26 38 81 -126 82 -241 1 -76 -1 -85 -23 -103
-38 -31 -131 -26 -209 11 -106 50 -209 163 -227 248 -9 42 3 40 50 -8 55 -56
65 -50 15 10 -37 45 -40 50 -21 50 13 0 25 9 29 21 7 18 17 7 70 -75 35 -53
65 -96 68 -96 2 0 -12 32 -31 71 -44 86 -26 82 54 -13 80 -93 86 -98 52 -42
-17 28 -58 80 -91 116 -33 37 -60 69 -60 73 0 4 16 -2 36 -14 43 -26 52 -27
32 -3 -39 44 -32 52 21 26z m361 -144 c89 -88 133 -156 170 -266 24 -69 25
-122 4 -152 -12 -18 -25 -22 -70 -22 -86 0 -184 51 -224 116 -18 28 -19 36 -8
53 7 12 16 21 20 21 5 0 8 15 9 33 0 29 1 30 9 10 14 -34 20 -28 9 9 -5 18 -9
48 -9 67 0 32 2 31 51 -45 88 -136 85 -115 -6 46 -46 81 -62 120 -47 120 4 0
28 -17 53 -37 l44 -38 -33 42 c-18 24 -44 51 -56 61 -13 10 -33 37 -45 61
l-22 43 33 -19 c18 -10 71 -56 118 -103z m-1093 -91 c6 -125 -1 -154 -63 -255
-68 -111 -110 -129 -162 -70 -69 79 -87 229 -43 364 17 52 27 69 33 60 7 -9 8
-6 5 10 -3 12 -1 20 4 17 4 -3 6 -41 2 -84 -3 -43 -2 -109 3 -147 l8 -69 7
105 c4 58 10 117 14 133 13 50 25 28 26 -50 l1 -78 13 80 c8 44 14 82 15 85 1
3 5 -4 10 -15 5 -11 9 -65 11 -120 1 -85 3 -93 10 -55 4 25 8 80 8 122 1 42 6
89 12 105 l11 28 10 -25 c6 -14 13 -83 17 -155 6 -121 7 -126 15 -72 4 32 5
109 2 170 -5 111 -5 112 10 67 9 -25 18 -93 21 -151z m-2058 93 l40 -19 -27
-21 -27 -22 39 15 c21 8 47 15 57 15 23 0 25 -18 4 -26 -14 -6 -13 -11 4 -40
l20 -34 -29 -15 c-17 -9 -30 -18 -30 -21 0 -2 14 3 30 11 26 13 36 14 65 3 19
-6 35 -15 35 -19 0 -14 -67 -31 -145 -36 -84 -5 -136 11 -158 48 -10 16 22
100 59 157 17 26 13 26 63 4z m2260 -77 l55 -50 -42 49 c-23 27 -42 56 -42 65
1 12 5 11 20 -8 l20 -23 0 33 0 32 37 -56 c21 -30 41 -53 45 -51 4 3 5 -3 1
-12 -5 -13 -3 -15 7 -9 10 6 12 3 8 -13 -4 -12 -2 -22 3 -22 14 0 11 -17 -7
-35 -44 -44 -151 43 -201 163 l-15 37 28 -25 c16 -13 53 -47 83 -75z m-116
-157 c9 -23 7 35 -3 101 -17 100 -4 83 15 -21 16 -91 54 -222 62 -215 2 2 -6
42 -17 88 -11 46 -20 102 -20 124 l1 40 39 -43 c43 -47 81 -146 105 -274 l14
-73 -5 75 c-3 41 -12 103 -20 138 -17 78 -18 75 5 63 10 -6 21 -8 24 -5 4 5
26 -81 51 -201 2 -11 4 0 4 25 1 25 -5 74 -13 110 -17 79 -18 80 -4 80 12 0
59 -102 59 -128 0 -14 2 -14 9 -3 14 22 25 -89 17 -177 -10 -111 -49 -172
-110 -172 -64 0 -182 103 -240 210 -33 61 -60 164 -51 198 6 24 10 19 31 -43
13 -38 21 -56 18 -40 -19 100 -22 146 -17 242 l7 108 17 -97 c9 -54 19 -103
22 -110z m-1413 105 c-36 -37 -51 -56 -35 -42 49 43 126 99 136 99 5 0 -8 -16
-29 -36 l-37 -35 33 16 32 16 -31 -50 c-17 -28 -28 -55 -25 -59 3 -5 -6 -20
-20 -33 -14 -13 -44 -46 -67 -74 l-41 -50 45 40 c24 22 58 53 75 68 l31 28
-10 -50 c-8 -45 -16 -55 -63 -91 -69 -52 -70 -61 -1 -15 l52 35 5 -42 c5 -35
2 -46 -15 -60 -47 -41 -190 -63 -215 -33 -9 10 -11 51 -8 142 5 137 22 204 60
224 19 10 19 9 3 -21 -24 -46 -11 -48 15 -3 18 33 32 42 93 65 40 14 74 26 77
27 2 0 -25 -29 -60 -66z m256 51 l42 -16 -50 -94 c-27 -52 -48 -94 -46 -94 2
0 28 36 57 79 67 101 77 109 136 118 l49 6 -24 -34 c-13 -19 -37 -52 -54 -74
l-30 -40 49 45 c47 44 48 44 25 10 l-23 -35 31 29 c29 27 32 28 32 10 0 -26
-22 -57 -94 -133 l-61 -65 50 41 c28 22 58 50 69 62 23 25 36 19 36 -18 0 -21
-14 -41 -57 -82 -71 -67 -114 -94 -176 -109 -96 -25 -135 22 -124 149 7 77 37
170 72 223 29 43 33 44 91 22z m1657 -127 c48 -99 73 -129 42 -50 -14 35 -25
67 -25 73 0 5 22 -6 49 -25 34 -25 59 -55 85 -103 37 -67 40 -51 5 21 -23 43
-18 46 26 12 18 -13 35 -21 39 -18 3 4 18 -4 32 -18 26 -24 26 -24 15 -1 -11
21 -10 22 24 22 40 0 65 -18 65 -48 0 -50 -16 -88 -54 -128 -77 -80 -155 -71
-263 29 -69 65 -118 133 -146 203 -16 41 -15 42 9 75 13 18 24 39 24 47 0 29
37 -17 73 -91z m-1078 33 c-4 -12 -9 -19 -12 -17 -3 3 -2 15 2 27 4 12 9 19
12 17 3 -3 2 -15 -2 -27z m-1105 -36 l-55 -56 49 36 c27 20 50 35 51 34 1 -2
-2 -33 -7 -71 l-10 -67 -49 -22 c-60 -25 -59 -34 1 -13 24 8 44 14 46 13 1 -2
5 -19 9 -39 6 -30 3 -37 -17 -46 l-23 -12 23 0 c18 -1 22 -7 22 -31 0 -16 0
-33 0 -37 1 -13 -61 -23 -150 -24 -112 -1 -194 26 -198 63 -5 39 25 144 64
226 l35 72 52 0 52 -1 -45 -40 c-44 -40 -41 -43 10 -9 54 36 100 61 100 55 0
-3 -21 -29 -47 -58 l-47 -52 44 42 c50 46 117 93 134 93 5 0 -14 -25 -44 -56z
m1045 -14 c-19 -38 -33 -70 -31 -70 2 0 18 23 36 50 18 28 35 48 38 45 3 -3
16 5 29 17 31 29 29 11 -7 -68 -36 -80 -24 -75 24 10 35 63 50 76 87 76 23 0
23 6 3 -61 -21 -72 -67 -160 -104 -202 -85 -97 -190 -61 -190 66 0 48 3 53 73
128 39 42 73 78 75 78 1 1 -14 -30 -33 -69z m2273 56 c21 3 45 8 54 10 19 6
68 -69 68 -103 0 -50 -113 -103 -216 -103 -52 0 -54 1 -85 46 -25 37 -28 45
-13 40 11 -3 39 -2 64 3 42 9 42 10 10 9 -54 0 -57 2 -23 17 29 12 31 16 26
53 l-5 40 42 -9 c23 -5 58 -7 78 -3z m-1252 -221 c23 -90 23 -90 18 -30 l-5
60 17 -35 c9 -19 20 -46 24 -60 7 -22 8 -20 10 15 l2 40 13 -30 c40 -87 -7
-205 -82 -205 -29 0 -31 11 -37 190 -3 80 -7 161 -11 180 l-5 35 16 -35 c9
-19 27 -75 40 -125z m-2516 129 c36 -3 85 -1 110 5 24 5 45 9 46 8 1 -1 -13
-47 -31 -102 l-33 -100 -67 -3 c-42 -2 -87 3 -123 14 l-57 18 60 8 c94 12 97
17 8 15 -45 0 -85 2 -88 5 -9 9 12 78 35 117 18 28 25 32 48 27 15 -4 56 -9
92 -12z m3435 -69 c38 -47 70 -85 73 -85 2 0 -19 33 -47 73 -28 39 -47 73 -43
74 4 2 27 -1 52 -5 41 -7 48 -12 78 -62 37 -62 75 -177 70 -212 -4 -32 -43
-48 -113 -48 -86 1 -164 34 -182 79 -14 33 -14 34 12 29 20 -4 23 -2 14 8 -7
9 -7 18 0 33 6 11 11 32 11 48 l1 28 27 -34 c15 -19 38 -46 51 -60 l23 -26
-17 29 c-57 94 -83 144 -90 166 -7 23 -7 24 11 10 18 -14 18 -14 2 6 -10 11
-18 24 -18 27 0 20 24 -2 85 -78z m-1751 -57 l-3 -103 13 65 c8 36 15 58 16
50 1 -8 5 -4 10 10 6 20 8 14 10 -30 2 -49 3 -51 9 -20 6 34 7 33 14 -20 12
-92 9 -176 -7 -189 -27 -23 -80 -24 -106 -3 -21 17 -25 30 -28 94 -4 69 -1 82
34 162 21 47 39 86 40 86 0 0 0 -46 -2 -102z m-404 -38 c-22 -44 -38 -80 -36
-80 3 0 24 32 47 70 23 39 42 70 44 70 6 0 -2 -127 -9 -145 -4 -11 1 -6 10 10
10 18 19 25 22 17 2 -7 -2 -20 -9 -30 -11 -13 -9 -13 9 2 37 32 25 3 -26 -59
-69 -86 -130 -125 -198 -125 -68 0 -82 18 -96 126 l-10 77 73 67 c74 68 89 78
70 43 -16 -27 -52 -121 -40 -103 5 8 24 40 42 70 33 59 49 50 27 -16 -20 -60
-4 -48 19 15 21 57 23 60 59 64 20 2 38 4 40 5 1 1 -16 -34 -38 -78z m2613 23
c43 -64 62 -127 30 -102 -14 10 -13 8 2 -10 l20 -24 -30 7 c-16 3 -77 10 -133
15 -57 5 -107 13 -112 17 -11 12 -31 86 -25 93 3 2 15 -4 27 -15 18 -15 20
-16 9 -1 -12 15 -10 17 23 17 45 0 91 -18 152 -61 26 -18 44 -28 41 -22 -4 6
-32 27 -62 49 l-56 38 33 18 c46 24 52 23 81 -19z m-1859 -145 c0 -54 3 -92 5
-85 2 6 10 32 17 57 9 33 12 38 13 19 2 -42 -29 -130 -61 -176 -32 -47 -77
-76 -111 -71 -51 7 -107 142 -114 273 l-5 90 31 -32 c17 -18 32 -40 32 -50 1
-17 2 -17 6 0 2 9 8 17 13 17 5 0 16 3 26 7 16 6 17 -1 11 -73 -5 -72 -5 -75
6 -37 16 55 27 64 27 23 0 -55 10 -28 19 52 6 56 16 85 37 118 l29 43 9 -39
c5 -21 9 -83 10 -136z m1102 44 l-38 47 59 -21 c32 -12 70 -20 85 -19 23 1 28
-5 44 -51 12 -33 19 -83 19 -131 0 -71 -2 -81 -24 -98 -29 -23 -82 -19 -170
14 -54 20 -132 80 -119 92 3 3 33 -7 67 -24 65 -34 99 -42 40 -11 -55 29 -109
84 -109 110 l0 23 27 -24 27 -24 -18 29 c-49 78 -57 94 -46 101 5 3 15 -4 20
-17 8 -18 9 -13 4 22 l-7 45 49 -55 c27 -30 66 -73 87 -95 l39 -40 -43 60
c-23 33 -58 78 -76 101 -59 74 -35 70 44 -6 59 -59 68 -65 39 -28z m-1581
-113 c-17 -92 -14 -117 6 -40 7 28 16 51 20 51 3 0 12 -13 19 -29 6 -16 18
-32 26 -35 10 -4 13 -14 8 -33 l-6 -28 17 23 c12 17 24 23 41 19 13 -2 24 0
24 4 0 5 7 9 15 9 21 0 19 -24 -10 -84 -44 -92 -150 -176 -224 -176 -61 0
-117 108 -128 246 l-6 71 38 41 c44 49 55 52 56 15 l1 -28 14 30 c15 32 15 32
-1 -130 -3 -29 0 -24 10 20 27 111 34 130 62 160 l28 30 3 -27 c2 -14 -4 -63
-13 -109z m382 84 c-3 -10 -5 -2 -5 17 0 19 2 27 5 18 2 -10 2 -26 0 -35z
m775 -38 c24 -50 32 -44 12 9 -3 9 -2 16 3 16 14 0 35 -27 81 -105 51 -85 54
-79 7 15 l-35 69 33 -1 c21 0 43 -11 66 -32 l35 -31 -21 34 -21 34 34 19 c19
10 36 18 38 18 10 0 14 -112 5 -187 -10 -86 -35 -161 -66 -195 -22 -25 -105
-23 -163 3 -61 27 -135 102 -170 170 -26 50 -27 56 -12 66 14 8 20 4 34 -26
10 -20 17 -31 18 -24 0 7 -5 23 -11 37 -10 22 -8 29 20 61 17 20 31 41 31 48
0 6 16 -20 35 -58 20 -39 33 -63 31 -54 -2 9 -14 47 -25 84 -12 37 -21 78 -21
92 0 23 2 24 17 12 9 -8 29 -41 45 -74z m-1930 32 c-33 -34 -45 -60 -17 -37
13 11 14 10 9 -4 -5 -12 -2 -15 11 -10 15 6 16 4 7 -12 -35 -66 -208 -131
-241 -90 -33 39 23 146 69 131 9 -3 36 2 60 10 23 8 45 15 47 15 3 0 -10 -19
-28 -42 -32 -41 -30 -40 29 15 67 61 107 79 54 24z m158 -29 c-10 -29 -21 -78
-24 -108 l-6 -55 19 70 c10 39 24 84 31 100 l13 30 12 -65 c7 -36 18 -77 23
-91 8 -21 6 -34 -14 -70 l-25 -44 33 36 c32 35 35 36 91 31 l57 -4 -61 -71
c-62 -73 -98 -95 -154 -96 -74 -2 -102 72 -92 239 9 135 11 141 58 138 21 -1
42 1 45 5 13 13 13 7 -6 -45z m67 -30 c-3 -7 -5 -2 -5 12 0 14 2 19 5 13 2 -7
2 -19 0 -25z m-567 -45 l-55 -56 60 45 60 45 2 -53 c3 -92 3 -92 43 -84 19 4
57 11 84 14 l49 6 -19 -22 c-15 -18 -12 -17 16 5 19 15 53 36 75 47 l40 21
-55 -52 -55 -51 60 36 60 37 -50 -46 c-136 -124 -339 -168 -472 -103 -25 12
-28 19 -26 58 1 25 12 79 25 120 l24 75 64 6 c139 12 132 17 70 -48z m1679
-34 l8 -84 2 75 2 75 24 -28 c22 -24 25 -38 26 -105 1 -82 16 -68 18 16 l1 44
40 -32 c28 -22 40 -40 41 -58 1 -27 1 -27 9 3 6 25 8 27 15 12 10 -23 -2 -82
-25 -127 -21 -41 -83 -100 -105 -100 -28 0 -95 72 -126 135 l-31 63 31 53 c16
30 35 76 42 102 6 26 13 46 16 43 2 -2 8 -41 12 -87z m1568 -19 c9 -30 16 -91
17 -135 l1 -80 -38 -9 c-85 -22 -302 22 -367 74 -21 17 -23 21 -10 30 8 6 25
9 37 7 18 -3 20 -1 14 12 -5 9 -5 27 0 40 l10 24 41 -39 41 -39 -42 53 c-22
30 -41 60 -41 68 0 22 26 16 43 -10 9 -13 31 -34 49 -47 l33 -23 -29 39 c-16
22 -43 55 -59 72 -33 35 -32 52 1 34 12 -6 30 -11 41 -11 11 0 34 -12 53 -27
18 -15 27 -20 20 -11 -20 25 -6 38 41 38 23 1 56 7 72 14 37 17 49 5 72 -74z
m-2406 -48 c-7 -27 -11 -53 -10 -58 2 -9 -15 -56 -28 -77 -3 -6 -1 -7 5 -3 17
10 4 -21 -29 -70 -40 -59 -108 -115 -175 -143 l-57 -25 -22 28 c-22 28 -45 88
-45 120 0 11 9 16 33 16 46 0 79 20 102 62 11 20 42 55 68 78 l48 42 -21 -53
c-12 -30 -32 -79 -46 -109 -38 -86 3 -27 66 97 47 91 104 162 118 148 2 -2 -1
-26 -7 -53z m1299 -107 c17 -17 30 -42 30 -55 0 -20 2 -22 10 -10 7 11 12 12
21 3 16 -16 -33 -100 -66 -115 -52 -24 -171 69 -205 159 -20 54 -27 113 -12
113 4 0 16 3 27 6 18 4 23 -2 34 -46 17 -65 23 -60 12 11 -8 50 -2 79 18 79 3
0 17 -30 30 -66 13 -36 25 -64 27 -62 2 2 -3 31 -11 63 -20 86 -19 87 20 15
19 -35 48 -78 65 -95z m-770 78 c12 -21 24 -46 26 -57 5 -26 14 -33 23 -17 7
11 9 11 14 0 4 -11 7 -12 18 -1 7 6 21 12 30 12 15 0 17 -10 14 -71 -3 -64 -7
-77 -41 -127 -40 -57 -134 -132 -167 -132 -26 0 -92 45 -121 83 -39 52 -61
108 -44 118 7 5 17 9 21 9 4 0 30 21 57 46 54 51 52 52 68 -36 10 -53 10 -53
5 21 -5 67 -3 80 20 125 l26 49 1 -65 c0 -36 5 -72 10 -80 7 -10 10 12 10 73
0 48 2 87 4 87 2 0 14 -17 26 -37z m1240 -68 c29 -52 54 -94 56 -92 1 1 -13
34 -31 72 -19 38 -32 71 -30 73 2 2 16 -3 33 -12 17 -9 40 -37 58 -70 34 -66
42 -67 14 -2 -25 59 -25 59 1 45 12 -6 32 -12 45 -14 35 -4 151 -83 158 -108
11 -40 6 -113 -10 -160 -19 -56 -29 -58 -148 -27 -99 25 -169 63 -228 123 -49
49 -58 76 -35 95 10 8 19 -2 40 -42 16 -29 42 -66 60 -82 l32 -29 -27 30 c-33
37 -78 132 -78 165 0 14 3 35 6 48 6 22 8 21 41 -15 l34 -38 -24 50 c-63 130
-40 123 33 -10z m-2240 44 c0 -16 5 -51 12 -76 l11 -47 -43 -37 c-52 -45 -150
-96 -201 -104 -34 -6 -37 -5 -48 26 -6 17 -11 51 -11 74 0 41 1 43 48 60 62
23 139 67 182 104 44 38 50 38 50 0z m516 -125 c-22 -105 -19 -134 5 -49 11
39 24 74 29 79 17 17 21 -39 10 -140 -7 -58 -10 -107 -8 -110 3 -2 13 43 24
101 l18 104 21 -19 c12 -11 27 -20 34 -20 13 0 12 -22 -4 -100 -5 -22 -4 -23
4 -5 6 11 17 37 25 58 8 20 19 37 23 37 4 0 14 -19 21 -42 7 -23 22 -55 34
-70 19 -28 19 -31 3 -80 -31 -97 -85 -164 -176 -222 -25 -16 -26 -15 -80 33
-63 56 -105 133 -121 221 -11 58 -11 59 25 112 20 29 47 82 61 118 13 36 30
78 37 94 l13 28 9 -26 c6 -17 3 -52 -7 -102z m634 30 c-17 -50 -24 -35 -9 16
7 24 15 38 17 32 2 -7 -2 -28 -8 -48z m49 -66 c0 -61 -3 -86 -9 -73 -15 34
-10 165 6 165 2 0 4 -42 3 -92z m331 -13 c2 -28 2 -28 9 -6 l6 24 12 -25 c6
-13 19 -62 28 -109 9 -46 19 -86 22 -89 5 -5 -4 98 -13 159 l-6 34 37 -32 c21
-18 53 -40 71 -49 32 -15 34 -19 36 -71 l2 -56 3 51 c4 46 7 52 37 67 19 9 47
33 62 54 46 63 47 63 41 -17 -2 -43 -1 -64 3 -50 4 14 8 49 9 78 1 50 15 69
28 37 15 -40 -44 -224 -67 -210 -5 3 -7 0 -5 -8 7 -17 -104 -124 -138 -132
-36 -9 -80 20 -155 100 -67 71 -103 148 -95 203 8 49 20 47 28 -4 12 -80 25
-95 18 -22 -7 77 4 156 17 123 5 -11 9 -33 10 -50z m-273 -2 c15 -23 18 -46
15 -142 -2 -63 -1 -113 2 -110 2 2 10 52 16 110 l12 106 37 -13 c42 -14 46
-27 32 -96 -15 -66 -6 -74 12 -12 l14 49 33 -66 33 -66 -27 -60 c-28 -61 -143
-189 -164 -182 -5 2 -44 32 -86 67 -86 70 -124 122 -142 190 -11 46 -11 48 23
89 18 23 44 61 57 84 28 48 27 48 47 -81 15 -95 12 -101 40 78 7 45 17 82 21
82 4 0 16 -12 25 -27z m749 -15 c5 -7 14 -42 20 -78 l12 -65 -5 78 c-5 73 -5
77 15 77 30 0 42 -28 44 -102 l1 -63 6 58 6 58 39 -40 40 -41 -11 -75 c-13
-89 -46 -162 -107 -230 l-44 -50 -66 33 c-37 17 -87 51 -111 73 l-45 41 29 37
c15 20 41 56 56 81 l28 45 23 -60 c28 -72 30 -66 8 21 -14 54 -15 75 -5 116 6
27 11 60 11 74 0 19 5 24 24 24 14 0 28 -6 32 -12z m-1128 -212 c33 -15 47
-17 66 -8 23 10 23 10 19 -36 -3 -35 -2 -43 6 -32 6 8 11 29 11 47 0 17 5 35
10 38 6 4 10 -6 10 -22 0 -16 16 -55 35 -87 19 -32 35 -62 35 -66 0 -9 -88
-70 -100 -70 -16 0 -100 101 -124 148 -23 45 -38 145 -18 117 4 -6 26 -19 50
-29z"/>
<path d="M2206 4637 c3 -10 9 -15 12 -12 3 3 0 11 -7 18 -10 9 -11 8 -5 -6z"/>
<path d="M2873 4020 c0 -47 2 -66 4 -42 2 23 2 61 0 85 -2 23 -4 4 -4 -43z"/>
<path d="M1130 4264 c0 -6 7 -19 16 -30 14 -18 14 -18 3 6 -14 31 -19 36 -19
24z"/>
<path d="M3674 4028 c-44 -49 -68 -78 -62 -78 2 0 26 25 52 55 51 60 58 75 10
23z"/>
<path d="M1820 3096 c0 -2 7 -7 16 -10 8 -3 12 -2 9 4 -6 10 -25 14 -25 6z"/>
<path d="M2592 3235 c0 -16 2 -22 5 -12 2 9 2 23 0 30 -3 6 -5 -1 -5 -18z"/>
<path d="M1068 3313 c7 -3 16 -2 19 1 4 3 -2 6 -13 5 -11 0 -14 -3 -6 -6z"/>
<path d="M1078 3263 c7 -3 16 -2 19 1 4 3 -2 6 -13 5 -11 0 -14 -3 -6 -6z"/>
<path d="M548 3193 c6 -2 18 -2 25 0 6 3 1 5 -13 5 -14 0 -19 -2 -12 -5z"/>
<path d="M1898 2743 c7 -3 16 -2 19 1 4 3 -2 6 -13 5 -11 0 -14 -3 -6 -6z"/>
<path d="M4488 2833 c6 -2 18 -2 25 0 6 3 1 5 -13 5 -14 0 -19 -2 -12 -5z"/>
<path d="M1258 2433 c7 -3 16 -2 19 1 4 3 -2 6 -13 5 -11 0 -14 -3 -6 -6z"/>
<path d="M1868 2493 c7 -3 16 -2 19 1 4 3 -2 6 -13 5 -11 0 -14 -3 -6 -6z"/>
<path d="M4638 2423 c7 -3 16 -2 19 1 4 3 -2 6 -13 5 -11 0 -14 -3 -6 -6z"/>
<path d="M2421 2444 c0 -11 3 -14 6 -6 3 7 2 16 -1 19 -3 4 -6 -2 -5 -13z"/>
<path d="M3588 2313 c7 -3 16 -2 19 1 4 3 -2 6 -13 5 -11 0 -14 -3 -6 -6z"/>
<path d="M4498 2113 c7 -3 16 -2 19 1 4 3 -2 6 -13 5 -11 0 -14 -3 -6 -6z"/>
<path d="M2609 2223 c-13 -16 -12 -17 4 -4 16 13 21 21 13 21 -2 0 -10 -8 -17
-17z"/>
<path d="M2160 2075 c-7 -8 -8 -15 -2 -15 5 0 15 7 22 15 7 8 8 15 2 15 -5 0
-15 -7 -22 -15z"/>
<path d="M1954 1868 l-19 -23 23 19 c12 11 22 21 22 23 0 8 -8 2 -26 -19z"/>
<path d="M958 1603 c7 -3 16 -2 19 1 4 3 -2 6 -13 5 -11 0 -14 -3 -6 -6z"/>
<path d="M1226 1453 c-6 -14 -5 -15 5 -6 7 7 10 15 7 18 -3 3 -9 -2 -12 -12z"/>
<path d="M668 1283 c6 -2 18 -2 25 0 6 3 1 5 -13 5 -14 0 -19 -2 -12 -5z"/>
<path d="M1120 958 c-15 -21 -17 -28 -6 -19 16 13 41 51 33 51 -2 0 -14 -15
-27 -32z"/>
<path d="M2931 854 c0 -11 3 -14 6 -6 3 7 2 16 -1 19 -3 4 -6 -2 -5 -13z"/>
<path d="M2012 495 c0 -16 2 -22 5 -12 2 9 2 23 0 30 -3 6 -5 -1 -5 -18z"/>
<path d="M2461 404 c0 -11 3 -14 6 -6 3 7 2 16 -1 19 -3 4 -6 -2 -5 -13z"/>
</g>
</svg>