<svg width="100%" height="100%" viewBox="0 0 40 40" fill="none" xmlns="http://www.w3.org/2000/svg">
  <path d="M34.5356 3L22.0178 13.4308L24.4545 7.16555L34.5356 3Z" fill="#E17726" stroke="#E17726" stroke-width="0.25" stroke-linecap="round" stroke-linejoin="round"/>
  <path d="M5.46484 3L17.8561 13.529L15.5458 7.16555L5.46484 3Z" fill="#E27625" stroke="#E27625" stroke-width="0.25" stroke-linecap="round" stroke-linejoin="round"/>
  <path d="M29.7741 27.2891L26.2051 33.0429L33.8476 35.2608L36.0036 27.4044L29.7741 27.2891Z" fill="#E27625" stroke="#E27625" stroke-width="0.25" stroke-linecap="round" stroke-linejoin="round"/>
  <path d="M3.9961 27.4044L6.15223 35.2608L13.7947 33.0429L10.2257 27.2891L3.9961 27.4044Z" fill="#E27625" stroke="#E27625" stroke-width="0.25" stroke-linecap="round" stroke-linejoin="round"/>
  <path d="M13.3936 17.3503L11.3306 20.6594L18.9054 21.0281L18.6116 12.6448L13.3936 17.3503Z" fill="#E27625" stroke="#E27625" stroke-width="0.25" stroke-linecap="round" stroke-linejoin="round"/>
  <path d="M26.6074 17.3503L21.3222 12.5461L21.0957 21.0281L28.6705 20.6594L26.6074 17.3503Z" fill="#E27625" stroke="#E27625" stroke-width="0.25" stroke-linecap="round" stroke-linejoin="round"/>
  <path d="M13.7949 33.0422L18.4223 30.6431L14.4501 27.4532L13.7949 33.0422Z" fill="#E27625" stroke="#E27625" stroke-width="0.25" stroke-linecap="round" stroke-linejoin="round"/>
  <path d="M21.5781 30.6431L26.2055 33.0422L25.5503 27.4532L21.5781 30.6431Z" fill="#E27625" stroke="#E27625" stroke-width="0.25" stroke-linecap="round" stroke-linejoin="round"/>
  <path d="M26.2055 33.0428L21.5781 30.6437L21.9736 33.7138L21.9391 35.1626L26.2055 33.0428Z" fill="#D5BFB2" stroke="#D5BFB2" stroke-width="0.25" stroke-linecap="round" stroke-linejoin="round"/>
  <path d="M13.7949 33.0428L18.0613 35.1626L18.0269 33.7138L18.4223 30.6437L13.7949 33.0428Z" fill="#D5BFB2" stroke="#D5BFB2" stroke-width="0.25" stroke-linecap="round" stroke-linejoin="round"/>
  <path d="M18.1283 25.3284L14.2922 24.1567L17.034 22.8877L18.1283 25.3284Z" fill="#233447" stroke="#233447" stroke-width="0.25" stroke-linecap="round" stroke-linejoin="round"/>
  <path d="M21.8721 25.3284L22.9664 22.8877L25.7081 24.1567L21.8721 25.3284Z" fill="#233447" stroke="#233447" stroke-width="0.25" stroke-linecap="round" stroke-linejoin="round"/>
  <path d="M13.7949 33.0429L14.4502 27.2891L10.2256 27.4044L13.7949 33.0429Z" fill="#CC6228" stroke="#CC6228" stroke-width="0.25" stroke-linecap="round" stroke-linejoin="round"/>
  <path d="M25.5498 27.2891L26.205 33.0429L29.7743 27.4044L25.5498 27.2891Z" fill="#CC6228" stroke="#CC6228" stroke-width="0.25" stroke-linecap="round" stroke-linejoin="round"/>
  <path d="M28.6705 20.659L21.0957 21.0277L21.8721 25.3288L22.9664 22.8881L25.7082 24.1571L28.6705 20.659Z" fill="#CC6228" stroke="#CC6228" stroke-width="0.25" stroke-linecap="round" stroke-linejoin="round"/>
  <path d="M14.2922 24.1571L17.0339 22.8881L18.1282 25.3288L18.9046 21.0277L11.3299 20.659L14.2922 24.1571Z" fill="#CC6228" stroke="#CC6228" stroke-width="0.25" stroke-linecap="round" stroke-linejoin="round"/>
  <path d="M11.3301 20.659L14.4503 27.4532L14.2924 24.1571L11.3301 20.659Z" fill="#E27525" stroke="#E27525" stroke-width="0.25" stroke-linecap="round" stroke-linejoin="round"/>
  <path d="M25.708 24.1571L25.5501 27.4532L28.6703 20.659L25.708 24.1571Z" fill="#E27525" stroke="#E27525" stroke-width="0.25" stroke-linecap="round" stroke-linejoin="round"/>
  <path d="M18.9046 21.0277L18.1282 25.3288L19.1081 30.0336L19.3691 23.5788L18.9046 21.0277Z" fill="#E27525" stroke="#E27525" stroke-width="0.25" stroke-linecap="round" stroke-linejoin="round"/>
  <path d="M21.0948 21.0277L20.6304 23.5624L20.8914 30.0336L21.8712 25.3288L21.0948 21.0277Z" fill="#E27525" stroke="#E27525" stroke-width="0.25" stroke-linecap="round" stroke-linejoin="round"/>
  <path d="M21.8721 25.3282L20.8923 30.033L21.5784 30.6429L25.5506 27.4531L25.7085 24.1569L21.8721 25.3282Z" fill="#F5841F" stroke="#F5841F" stroke-width="0.25" stroke-linecap="round" stroke-linejoin="round"/>
  <path d="M14.2922 24.1569L14.4501 27.4531L18.4223 30.6429L19.1084 30.033L18.1286 25.3282L14.2922 24.1569Z" fill="#F5841F" stroke="#F5841F" stroke-width="0.25" stroke-linecap="round" stroke-linejoin="round"/>
  <path d="M21.9391 35.1627L21.9736 33.7139L21.6125 33.4108H18.3879L18.0269 33.7139L18.0613 35.1627L13.7949 33.0429L15.4427 34.3774L18.3534 36.4314H21.6471L24.5577 34.3774L26.2055 33.0429L21.9391 35.1627Z" fill="#C0AC9D" stroke="#C0AC9D" stroke-width="0.25" stroke-linecap="round" stroke-linejoin="round"/>
  <path d="M21.578 30.6433L20.8918 30.0334H19.1078L18.4216 30.6433L18.0262 33.7134L18.3872 33.4103H21.6118L21.9729 33.7134L21.578 30.6433Z" fill="#161616" stroke="#161616" stroke-width="0.25" stroke-linecap="round" stroke-linejoin="round"/>
  <path d="M35.0582 14.0245L36.1524 8.06931L34.5385 3L21.5781 12.9641L26.6071 17.3505L33.6553 19.5684L35.1695 17.6104L34.5041 17.1597L35.5639 16.2583L34.7186 15.6693L35.7784 14.9161L35.0582 14.0245Z" fill="#763E1A" stroke="#763E1A" stroke-width="0.25" stroke-linecap="round" stroke-linejoin="round"/>
  <path d="M3.84766 8.06931L4.94187 14.0245L4.20483 14.9161L5.26461 15.6693L4.4193 16.2583L5.47908 17.1597L4.81375 17.6104L6.32798 19.5684L13.3762 17.3505L18.4052 12.9641L5.44483 3L3.84766 8.06931Z" fill="#763E1A" stroke="#763E1A" stroke-width="0.25" stroke-linecap="round" stroke-linejoin="round"/>
  <path d="M33.6552 19.5682L26.6069 17.3503L28.6701 20.6594L25.55 27.4536L29.7745 27.4044H36.004L33.6552 19.5682Z" fill="#F5841F" stroke="#F5841F" stroke-width="0.25" stroke-linecap="round" stroke-linejoin="round"/>
  <path d="M13.3927 17.3503L6.3445 19.5682L3.9957 27.4044H10.2253L14.4498 27.4536L11.3296 20.6594L13.3927 17.3503Z" fill="#F5841F" stroke="#F5841F" stroke-width="0.25" stroke-linecap="round" stroke-linejoin="round"/>
  <path d="M21.0952 21.0278L21.5772 12.9639L24.456 7.16553H15.5449L18.4236 12.9639L18.9056 21.0278L19.0979 23.5952L19.1096 30.0335H20.8936L20.9052 23.5952L21.0952 21.0278Z" fill="#F5841F" stroke="#F5841F" stroke-width="0.25" stroke-linecap="round" stroke-linejoin="round"/>
</svg>