<svg width="40" height="40" viewBox="0 0 40 40" fill="none" xmlns="http://www.w3.org/2000/svg">
  <rect width="40" height="40" rx="8" fill="#FC8E2D"/>
  <path d="M32 25.2632C32 29.0189 28.866 32 25 32H8V25.2632C8 21.5074 11.134 18.5263 15 18.5263H32V25.2632Z" fill="white"/>
  <path d="M32 14.7368C32 18.4926 28.866 21.4737 25 21.4737H8V14.7368C8 10.9811 11.134 8 15 8H32V14.7368Z" fill="black"/>
  <path d="M15 24.5C16.3807 24.5 17.5 23.3807 17.5 22C17.5 20.6193 16.3807 19.5 15 19.5C13.6193 19.5 12.5 20.6193 12.5 22C12.5 23.3807 13.6193 24.5 15 24.5Z" fill="#FC8E2D"/>
</svg>