<svg width="40" height="40" viewBox="0 0 40 40" fill="none" xmlns="http://www.w3.org/2000/svg">
  <rect width="40" height="40" rx="8" fill="#0098EA"/>
  <path fill-rule="evenodd" clip-rule="evenodd" d="M12.9208 9.73975C12.4256 9.73975 12.0242 10.1412 12.0242 10.6364V29.3635C12.0242 29.8587 12.4256 30.2602 12.9208 30.2602H16.5142C17.0094 30.2602 17.4108 29.8587 17.4108 29.3635V10.6364C17.4108 10.1412 17.0094 9.73975 16.5142 9.73975H12.9208ZM23.4874 9.73975C22.9922 9.73975 22.5908 10.1412 22.5908 10.6364V29.3635C22.5908 29.8587 22.9922 30.2602 23.4874 30.2602H27.0808C27.576 30.2602 27.9774 29.8587 27.9774 29.3635V10.6364C27.9774 10.1412 27.576 9.73975 27.0808 9.73975H23.4874Z" fill="white"/>
</svg>