<svg width="40" height="40" viewBox="0 0 40 40" fill="none" xmlns="http://www.w3.org/2000/svg">
  <circle cx="20" cy="20" r="20" fill="#3B99FC"/>
  <path d="M13.3854 15.8452C16.6017 12.6388 21.7585 12.6388 24.9749 15.8452L25.542 16.4111C25.6953 16.5635 25.6953 16.8105 25.542 16.9629L24.0916 18.409C24.015 18.4851 23.8915 18.4851 23.8149 18.409L23.0231 17.6196C20.8238 15.428 17.5365 15.428 15.3372 17.6196L14.4882 18.4659C14.4116 18.542 14.2881 18.542 14.2115 18.4659L12.7611 17.0199C12.6079 16.8676 12.6079 16.6206 12.7611 16.4683L13.3854 15.8452ZM28.658 19.5193L29.9551 20.8126C30.1083 20.965 30.1083 21.212 29.9551 21.3644L23.5383 27.7588C23.3851 27.9112 23.1382 27.9112 22.985 27.7588L18.5152 23.3043C18.4769 23.2662 18.4134 23.2662 18.3751 23.3043L13.9053 27.7588C13.7521 27.9112 13.5052 27.9112 13.352 27.7588L6.93498 21.3644C6.78176 21.212 6.78176 20.965 6.93498 20.8126L8.23212 19.5193C8.38534 19.3669 8.63224 19.3669 8.78546 19.5193L13.2554 23.9739C13.2937 24.0119 13.3573 24.0119 13.3956 23.9739L17.8653 19.5193C18.0185 19.3669 18.2654 19.3669 18.4186 19.5193L22.8885 23.9739C22.9268 24.0119 22.9904 24.0119 23.0287 23.9739L27.4985 19.5193C27.6517 19.3669 27.8986 19.3669 28.0518 19.5193H28.658Z" fill="white"/>
</svg>