<?xml version="1.0" encoding="UTF-8" standalone="no"?>
<svg
   version="1.0"
   width="512.000000pt"
   height="512.000000pt"
   viewBox="0 0 512.000000 512.000000"
   preserveAspectRatio="xMidYMid meet"
   id="svg49"
   xmlns="http://www.w3.org/2000/svg"
   xmlns:svg="http://www.w3.org/2000/svg">
  <defs
     id="defs53" />
  <metadata
     id="metadata35">
Created by potrace 1.16, written by Peter Selinger 2001-2019
</metadata>
  <g
     transform="translate(0.000000,512.000000) scale(0.100000,-0.100000)"
     fill="#000000"
     stroke="none"
     id="g47">
    <path
       d="M2803 4910 c-102 -57 -200 -94 -352 -135 -155 -41 -223 -74 -323 -154 -68 -55 -195 -188 -248 -259 l-21 -29 -102 36 c-96 33 -109 35 -232 36 -105 0 -157 -6 -269 -29 -132 -27 -193 -30 -238 -11 -16 6 -18 1 -18 -40 0 -72 -43 -183 -151 -392 -132 -256 -198 -463 -215 -673 l-6 -85 -63 -65 c-35 -36 -84 -94 -109 -130 -54 -74 -103 -115 -158 -132 l-37 -11 44 -49 c51 -56 65 -96 100 -270 59 -302 151 -436 404 -592 l74 -45 23 -89 c24 -97 59 -187 128 -334 42 -88 48 -97 83 -109 21 -6 103 -45 183 -85 80 -40 185 -87 235 -104 49 -17 91 -32 92 -34 2 -2 -10 -32 -27 -67 -24 -51 -30 -77 -30 -131 0 -96 20 -137 98 -204 158 -135 422 -464 439 -547 9 -43 20 -41 44 5 61 120 213 273 305 308 33 12 169 47 304 77 134 30 279 67 321 83 79 29 176 88 218 134 26 28 53 32 97 15 26 -9 31 -7 64 33 19 23 60 70 91 105 31 34 80 102 109 152 30 52 89 130 136 180 59 64 87 104 102 144 20 54 48 187 54 257 3 32 6 35 43 41 111 20 374 144 441 208 19 19 46 55 59 80 38 76 133 358 164 491 39 162 107 393 127 433 9 18 27 47 41 64 l24 33 -36 31 c-65 57 -102 139 -151 334 -14 55 -35 115 -47 133 -12 18 -62 60 -112 95 -49 34 -135 104 -189 155 -169 159 -285 231 -517 317 -68 25 -149 61 -179 78 -49 29 -60 43 -101 120 -84 157 -162 242 -313 342 -120 79 -215 170 -255 245 -26 49 -55 81 -73 80 -2 0 -36 -18 -75 -40z m127 -72 c45 -82 104 -144 198 -209 183 -125 259 -203 326 -336 30 -61 31 -63 12 -63 -8 0 -25 14 -37 32 -24 33 -285 209 -408 274 -92 49 -133 88 -150 145 l-13 44 -17 -44 c-23 -63 -57 -85 -142 -89 -39 -3 -112 1 -164 7 -89 12 -96 11 -170 -14 -42 -14 -98 -36 -125 -50 -74 -37 -80 -31 -25 26 95 98 155 135 295 180 74 24 177 67 237 100 60 32 117 58 128 58 15 1 30 -16 55 -61z m-447 -383 c15 -6 47 -53 47 -70 0 -3 -21 -5 -47 -5 -76 0 -225 -28 -303 -56 -40 -14 -115 -50 -167 -80 -52 -31 -100 -53 -106 -50 -7 2 -5 5 4 5 11 1 25 23 40 63 37 100 99 156 213 194 43 14 284 14 319 -1z m374 -71 c-3 -3 -12 -4 -19 -1 -8 3 -5 6 6 6 11 1 17 -2 13 -5z m-1098 -38 c41 -14 76 -28 79 -30 2 -3 -14 -29 -36 -59 -40 -53 -42 -55 -154 -91 -81 -26 -140 -53 -208 -96 -54 -34 -106 -60 -121 -60 -14 0 -45 14 -68 30 -37 27 -40 28 -27 8 14 -22 12 -27 -24 -80 -57 -85 -81 -158 -89 -273 l-7 -101 -65 -65 c-36 -36 -80 -87 -99 -114 -18 -28 -59 -78 -91 -113 -78 -86 -97 -131 -108 -251 -8 -95 -5 -129 19 -270 6 -35 9 -66 6 -68 -16 -16 -80 133 -102 237 -27 129 -10 433 25 427 12 -1 18 19 28 88 21 141 50 232 111 345 125 233 177 359 196 475 l7 40 48 -3 c39 -3 211 25 326 52 11 3 79 3 150 2 110 -3 141 -7 204 -30z m913 -32 c101 -32 222 -92 304 -149 60 -43 174 -158 174 -176 0 -5 0 -11 0 -14 0 -3 9 -14 21 -26 23 -23 79 -136 79 -159 0 -8 -28 14 -63 50 -34 36 -82 82 -107 103 l-45 37 50 -5 c107 -13 -50 44 -194 70 -218 39 -498 -4 -693 -106 -43 -23 -96 -66 -168 -139 -58 -58 -131 -124 -161 -147 -60 -46 -107 -100 -144 -165 l-23 -40 -7 32 c-23 107 13 311 81 448 64 132 215 264 389 342 166 75 357 91 507 44z m721 -71 c-7 -2 -19 -2 -25 0 -7 3 -2 5 12 5 14 0 19 -2 13 -5z m102 -68 c105 -28 204 -83 279 -157 38 -37 72 -68 76 -68 5 0 13 -22 19 -50 6 -27 26 -89 45 -137 43 -111 59 -196 50 -273 -4 -33 -9 -62 -13 -64 -3 -2 -42 27 -86 65 -225 194 -282 223 -525 264 -32 5 -38 12 -70 83 -42 93 -114 203 -169 257 -47 46 -50 55 -18 55 12 0 54 9 92 19 89 24 239 27 320 6z m-1626 -13 l45 -7 -40 -26 c-67 -45 -96 -56 -184 -74 -133 -26 -185 -67 -259 -200 -12 -22 -40 -51 -62 -65 -21 -13 -40 -31 -41 -40 0 -8 -2 -21 -2 -28 -1 -14 -24 -32 -42 -32 -12 0 29 128 59 186 29 56 143 142 306 232 109 60 136 67 220 54z m-118 -214 c-57 -107 -95 -235 -111 -378 -12 -103 -116 -445 -149 -489 l-19 -24 -16 71 c-9 39 -16 95 -16 124 0 30 -7 110 -16 178 -22 180 -8 294 53 415 37 73 63 104 108 130 37 22 206 77 213 70 2 -2 -19 -45 -47 -97z m2247 16 c72 -35 109 -65 294 -241 48 -46 132 -112 186 -147 54 -35 103 -74 108 -87 6 -13 24 -73 39 -134 34 -139 84 -248 138 -303 36 -36 40 -45 29 -60 -28 -38 -75 -148 -151 -347 -43 -116 -93 -241 -110 -278 -89 -198 -256 -369 -461 -472 -30 -15 -67 -36 -82 -47 l-28 -19 0 43 c0 24 -3 52 -6 63 -4 17 8 30 63 67 113 78 119 87 129 203 13 163 9 314 -9 364 -12 29 -17 74 -17 137 0 51 -5 127 -11 168 -8 61 -7 105 7 214 22 184 16 347 -15 419 -13 29 -43 70 -67 93 -24 22 -47 52 -50 68 -10 39 -103 265 -114 276 -6 6 -10 23 -10 39 0 27 2 28 33 22 17 -3 65 -22 105 -41z m-995 -14 c48 -24 88 -54 141 -110 41 -43 79 -87 85 -99 11 -19 9 -19 -25 4 -21 14 -50 25 -68 24 -29 0 -29 -1 -11 -12 11 -7 48 -40 82 -74 51 -51 74 -87 127 -195 76 -156 93 -210 106 -337 9 -84 2 -256 -8 -206 -2 11 -26 67 -53 123 -43 92 -59 115 -139 195 -81 82 -295 356 -285 365 7 8 73 -19 118 -48 30 -19 57 -47 76 -82 35 -61 41 -58 11 6 -37 78 -86 117 -190 151 -34 11 -77 38 -116 70 -34 29 -99 72 -145 94 -69 34 -97 43 -159 47 -41 3 -85 7 -97 10 -63 12 6 46 175 85 174 40 279 37 375 -11z m-611 -46 c4 -3 -12 -29 -33 -59 -35 -46 -54 -59 -145 -104 -83 -40 -116 -51 -154 -51 -27 0 -52 5 -55 10 -4 6 22 40 56 75 84 88 176 135 264 135 34 0 64 -3 67 -6z m322 -153 c103 -36 172 -86 225 -159 l20 -28 -48 24 c-96 47 -261 38 -411 -23 -33 -13 -91 -25 -142 -29 -158 -13 -311 -71 -408 -154 l-42 -36 7 35 c12 56 44 110 104 172 105 111 225 181 366 213 85 20 253 12 329 -15z m816 -72 c36 -11 90 -36 120 -54 78 -47 309 -262 334 -310 49 -93 26 -323 -45 -473 l-32 -65 -39 81 c-44 94 -133 196 -201 232 l-43 23 -16 91 c-19 100 -79 236 -104 236 -8 0 -12 -4 -9 -10 14 -23 -8 -7 -48 34 -23 24 -48 45 -55 47 -9 3 -62 169 -62 196 0 12 138 -7 200 -28z m-1520 -42 c0 -39 -68 -119 -123 -146 -50 -24 -119 -84 -149 -131 l-17 -25 8 30 c34 126 178 295 253 295 23 0 28 -4 28 -23z m-651 -73 c0 -64 -4 -83 -12 -75 -18 18 -47 13 -47 -9 0 -11 4 -20 9 -20 5 0 7 -9 4 -20 -3 -11 0 -27 7 -35 11 -13 10 -14 -6 -9 -10 4 -16 4 -12 -1 4 -4 2 -15 -5 -23 -10 -13 -9 -14 3 -7 13 8 13 7 0 -11 -8 -10 -19 -22 -25 -26 -5 -4 -10 -13 -11 -20 -1 -24 -15 -58 -24 -58 -5 0 -7 -7 -4 -15 4 -10 0 -15 -12 -16 -11 0 -14 -3 -6 -6 6 -2 12 -9 12 -14 0 -6 -5 -7 -11 -3 -6 3 -22 -6 -35 -21 -13 -16 -24 -24 -24 -19 0 5 -15 9 -32 8 -18 0 -32 -5 -31 -10 0 -5 -3 -17 -9 -27 -8 -15 -12 -16 -24 -6 -30 25 -37 -4 -31 -143 5 -145 22 -221 76 -350 24 -57 46 -90 83 -125 27 -27 75 -84 105 -128 91 -129 122 -164 207 -225 45 -32 112 -88 151 -126 38 -37 100 -87 138 -111 67 -44 225 -119 302 -143 22 -7 71 -28 109 -46 l69 -33 -29 -13 c-47 -20 -436 -17 -554 5 -185 34 -361 106 -418 172 -69 78 -148 270 -160 384 -6 66 -8 71 -18 50 -7 -13 -16 -40 -21 -59 l-9 -35 -51 49 c-54 50 -93 118 -174 306 -51 118 -55 144 -34 256 39 211 95 342 209 483 98 121 98 122 5 48 -25 -20 -49 -37 -53 -37 -29 0 41 135 104 200 72 73 203 144 277 149 9 1 12 -23 12 -85z m1546 -13 c122 -57 206 -179 240 -350 23 -111 17 -240 -13 -298 -23 -44 -52 -72 -38 -37 21 53 37 164 32 217 -13 134 -139 289 -271 334 -43 14 -70 28 -174 91 l-25 15 23 18 c28 23 18 23 -74 4 -87 -19 -98 -18 -62 1 95 51 259 54 362 5z m-187 -105 c30 -15 74 -45 98 -68 41 -38 104 -122 104 -140 0 -4 -21 7 -47 26 -119 84 -159 92 -323 62 -52 -9 -119 -21 -149 -26 -73 -13 -150 -50 -200 -95 -48 -44 -54 -30 -17 43 32 63 108 146 163 178 73 44 120 54 223 51 80 -3 103 -7 148 -31z m-463 -26 c-3 -5 -34 -24 -68 -42 -119 -63 -223 -196 -272 -347 -10 -30 -25 -100 -35 -155 l-16 -101 -22 57 c-60 160 -28 352 78 458 54 54 107 86 192 115 73 25 154 34 143 15z m-855 -145 c6 -72 18 -160 26 -196 l15 -67 -34 -53 c-52 -83 -84 -150 -92 -196 -4 -24 -10 -45 -15 -48 -5 -3 -21 32 -37 77 -25 74 -28 96 -27 208 0 107 4 136 26 203 30 90 106 223 119 210 5 -5 14 -67 19 -138z m792 48 c-31 -44 -59 -105 -66 -143 -4 -21 -29 -63 -63 -105 -31 -38 -67 -92 -79 -120 -19 -41 -24 -45 -24 -24 0 43 37 174 65 228 30 60 83 122 139 163 49 35 52 35 28 1z m505 -54 c143 -69 192 -310 85 -422 -26 -27 -92 -68 -109 -67 -4 1 8 10 29 20 46 25 60 65 62 174 1 94 -13 141 -54 183 -37 38 -89 53 -180 53 l-73 0 19 21 c27 31 92 59 138 59 22 0 59 -9 83 -21z m109 -19 c46 -26 114 -105 114 -132 0 -18 -76 31 -92 60 -10 16 -36 46 -58 66 -48 44 -33 46 36 6z m-387 -37 c-7 -10 -36 -43 -65 -73 -29 -30 -78 -89 -109 -130 -52 -70 -56 -78 -51 -118 3 -23 13 -57 22 -75 l17 -32 17 60 c15 55 36 105 44 105 2 0 -3 -28 -10 -62 -7 -35 -13 -101 -14 -148 l0 -85 -26 43 c-75 125 -97 307 -50 407 39 84 100 124 190 125 44 0 47 -1 35 -17z m159 -59 c43 -17 97 -67 118 -106 20 -39 18 -40 -18 -6 -17 16 -44 36 -60 44 -41 21 -119 28 -160 15 -38 -13 -91 -59 -120 -106 -22 -37 -24 -14 -3 46 38 107 142 156 243 113z m-926 -29 c3 -3 -10 -56 -29 -118 -40 -131 -50 -237 -34 -352 7 -44 18 -128 26 -188 17 -129 55 -245 99 -307 17 -25 35 -50 39 -57 9 -15 -114 22 -174 52 -62 32 -124 85 -183 158 -93 117 -115 200 -77 290 11 25 31 89 46 143 31 118 62 188 112 256 59 81 152 146 175 123z m1653 -26 c46 -41 77 -96 106 -186 22 -69 22 -73 6 -115 -9 -23 -27 -56 -39 -71 l-23 -28 3 50 c6 88 -40 282 -83 345 -30 44 -18 46 30 5z m-2108 -61 c-3 -7 -5 -2 -5 12 0 14 2 19 5 13 2 -7 2 -19 0 -25z m927 -45 c-7 -93 13 -201 52 -282 31 -62 166 -201 253 -258 68 -46 203 -93 350 -123 l111 -23 -33 -23 c-19 -12 -78 -46 -132 -75 -91 -49 -99 -51 -109 -35 -57 96 -84 124 -328 348 -112 103 -180 192 -199 261 -7 23 -11 82 -11 130 1 72 6 96 23 123 11 19 23 34 25 34 2 0 2 -35 -2 -77z m1596 8 c96 -97 144 -196 148 -305 7 -157 -60 -258 -270 -406 l-56 -40 20 66 c19 65 26 154 19 244 -2 26 4 63 13 89 26 67 37 185 30 309 -6 103 -6 112 11 112 10 0 48 -31 85 -69z m-3059 -186 c12 -33 37 -87 56 -120 23 -39 38 -81 44 -120 19 -133 77 -266 149 -342 l40 -42 -21 -36 c-25 -42 -49 -133 -49 -188 l0 -38 -77 59 c-110 83 -211 194 -255 277 -44 85 -86 223 -90 299 -2 31 -6 56 -10 56 -5 0 -8 6 -8 14 0 29 -46 123 -77 156 l-32 34 52 25 c35 16 82 55 142 116 l90 92 13 -91 c7 -50 22 -118 33 -151z m1926 201 c69 -63 41 -146 -48 -146 -40 0 -69 26 -69 62 0 24 12 23 28 -3 10 -15 21 -19 45 -17 28 3 32 7 35 35 4 42 -11 69 -47 81 -62 22 -141 -52 -141 -131 0 -35 6 -47 48 -87 105 -101 236 -104 407 -11 112 61 127 58 35 -7 -47 -33 -103 -79 -125 -101 -24 -26 -48 -41 -63 -41 -14 0 -67 19 -119 41 -131 58 -223 144 -223 209 0 36 39 98 77 125 56 38 113 35 160 -9z m-784 -191 c8 -44 21 -109 27 -145 34 -191 162 -363 386 -517 43 -29 75 -53 73 -53 -16 0 -199 80 -283 123 -159 83 -212 149 -258 319 -31 113 -32 319 -4 423 l20 70 11 -70 c7 -38 19 -106 28 -150z m1268 134 c-27 -70 -100 -195 -140 -238 -53 -57 -45 -28 15 55 53 73 132 224 135 255 1 9 3 8 6 -2 2 -9 -5 -40 -16 -70z m-610 -8 c-13 -40 -17 -45 -19 -25 -3 21 20 74 31 74 2 0 -4 -22 -12 -49z m79 45 c0 -2 -9 -6 -20 -9 -11 -3 -18 -1 -14 4 5 9 34 13 34 5z m169 -92 c-20 -25 -30 -15 -14 16 8 16 16 42 17 57 1 16 3 10 5 -15 3 -25 -1 -50 -8 -58z m552 36 c-14 -65 -42 -119 -130 -252 -88 -134 -119 -194 -127 -250 -8 -44 -63 -116 -71 -91 -10 28 118 300 194 413 42 63 90 143 106 178 16 35 32 61 34 58 3 -2 0 -28 -6 -56z m-100 -69 c-9 -16 -49 -52 -136 -120 -12 -10 -9 -2 8 19 24 29 125 120 135 120 1 0 -2 -8 -7 -19z m384 -30 c-3 -14 -19 -48 -35 -74 -17 -27 -30 -61 -30 -76 0 -85 -83 -281 -163 -386 -41 -53 -136 -145 -151 -145 -4 0 26 64 65 143 40 78 91 187 115 242 l43 100 -76 -85 c-181 -200 -293 -288 -524 -409 -133 -70 -202 -96 -280 -105 -53 -6 -52 -5 86 62 243 119 392 216 590 383 124 104 279 268 315 332 32 57 57 68 45 18z m-1047 -191 l37 -30 -91 0 -91 0 -7 77 c-3 42 -6 91 -6 110 0 34 1 33 61 -46 33 -44 77 -94 97 -111z m112 163 l0 -22 -37 21 c-21 12 -39 22 -41 24 -1 1 15 1 38 0 34 -1 40 -4 40 -23z m1449 -152 c70 -133 77 -272 22 -455 -27 -89 -35 -104 -83 -153 -114 -117 -288 -231 -425 -279 -58 -21 -72 -40 -20 -29 48 11 174 62 225 93 l46 26 -25 -43 c-31 -56 -104 -123 -168 -155 -88 -45 -170 -59 -306 -52 -66 4 -134 9 -151 12 l-31 6 41 38 c22 21 66 72 96 113 30 42 67 83 83 92 44 26 119 93 165 149 49 57 81 117 106 192 14 44 29 62 90 113 77 65 122 116 149 168 22 41 47 147 47 196 0 22 8 52 17 68 l17 29 37 -36 c21 -20 51 -62 68 -93z m-1039 20 c0 -4 -23 -51 -50 -104 -28 -52 -61 -124 -73 -159 -17 -46 -28 -64 -43 -66 -33 -5 -254 57 -318 89 -34 16 -90 51 -125 77 l-63 47 103 7 c102 6 362 58 484 97 69 22 85 24 85 12z m-992 -236 c52 -82 105 -166 120 -185 22 -30 18 -28 -29 15 -131 121 -228 265 -245 365 l-6 35 33 -40 c19 -21 76 -107 127 -190z m1516 113 c10 -77 -8 -189 -50 -320 -37 -116 -68 -162 -120 -184 -18 -8 -82 -18 -141 -24 -59 -5 -130 -12 -158 -15 -58 -7 -62 -12 74 84 109 76 185 156 243 254 23 39 46 74 50 77 12 9 57 116 69 166 14 55 24 44 33 -38z m-1639 -342 c39 -21 115 -66 170 -100 55 -33 143 -82 195 -109 l95 -49 -55 7 c-115 15 -294 88 -380 156 -48 38 -110 112 -110 131 0 12 -2 12 85 -36z m-903 -59 c49 -39 105 -125 133 -203 17 -48 40 -89 61 -109 47 -47 155 -108 273 -154 55 -22 151 -71 213 -110 138 -85 310 -168 439 -211 69 -22 121 -48 183 -91 48 -32 94 -59 102 -59 32 0 11 -18 -38 -34 -123 -38 -284 -45 -438 -21 -124 20 -222 51 -465 144 -110 43 -220 83 -245 90 -103 29 -153 80 -212 216 -72 163 -105 323 -89 430 8 56 38 135 50 135 3 0 18 -10 33 -23z m760 -101 c18 -4 34 -18 44 -39 9 -17 30 -52 47 -76 l31 -45 -60 42 c-32 23 -86 66 -119 97 l-60 54 45 -14 c25 -7 57 -16 72 -19z m358 -81 c52 -18 129 -39 170 -46 109 -19 320 -15 485 9 163 24 319 42 371 42 30 0 34 -2 25 -14 -35 -42 -359 -207 -463 -236 -92 -25 -154 -25 -279 0 -214 44 -361 117 -425 214 -20 30 -33 60 -29 66 8 12 15 11 145 -35z m1795 -130 c8 -64 1 -132 -27 -265 -28 -136 -47 -171 -136 -259 -61 -59 -88 -96 -126 -169 -27 -52 -74 -128 -106 -170 -31 -43 -67 -96 -79 -120 -16 -31 -27 -42 -39 -38 -9 3 -36 10 -59 16 -24 6 -80 39 -129 76 -48 36 -118 82 -156 102 -37 20 -68 40 -68 43 0 4 26 17 58 29 251 100 334 195 349 406 l5 70 72 11 c88 13 172 46 260 103 61 41 71 52 103 120 58 120 68 127 78 45z m-776 -166 c-54 -76 -325 -231 -488 -280 -137 -41 -343 -9 -526 81 -87 42 -167 112 -149 130 7 7 101 13 235 17 193 5 236 4 304 -12 83 -18 101 -18 290 9 106 16 284 59 315 77 33 19 41 9 19 -22z m218 -182 c-8 -106 -40 -181 -107 -248 -49 -49 -72 -62 -204 -118 -143 -60 -180 -80 -341 -182 -66 -42 -73 -44 -145 -44 -110 1 -285 56 -390 124 -54 35 -55 36 -25 39 54 5 73 12 102 36 15 13 64 34 108 46 93 26 202 74 299 132 65 40 76 43 192 55 134 15 303 53 341 78 25 17 119 133 116 144 -1 3 12 7 29 8 l31 2 -6 -72z m-1297 -545 c168 -54 226 -67 338 -77 39 -4 75 -11 78 -16 3 -6 15 -7 27 -4 19 5 20 4 7 -7 -19 -16 -54 -69 -56 -85 -2 -9 6 -11 24 -7 33 8 163 59 217 85 44 21 70 25 60 9 -4 -6 -9 -8 -13 -6 -9 5 -7 -93 2 -101 3 -4 6 -15 6 -25 0 -11 4 -16 10 -13 6 4 7 -1 3 -11 -6 -16 0 -17 57 -11 84 9 171 51 241 115 61 56 84 97 77 137 -3 14 -3 25 -1 25 14 0 65 -45 82 -74 31 -49 27 -89 -10 -121 -76 -63 -165 -94 -407 -140 -226 -43 -391 -94 -470 -144 -64 -42 -129 -115 -172 -192 l-28 -52 -19 44 c-15 32 -18 52 -11 74 4 16 8 41 7 55 -1 16 -5 7 -12 -23 l-12 -49 -41 59 c-82 115 -292 372 -300 365 -4 -4 -4 -1 0 6 4 7 4 21 1 32 -5 16 -9 17 -20 7 -7 -6 -11 -15 -8 -19 9 -16 -5 -7 -23 14 -19 22 -19 23 1 9 11 -7 7 -2 -8 13 -16 14 -25 31 -22 36 3 6 2 10 -3 10 -5 0 -9 18 -10 40 -2 35 2 41 31 56 106 56 167 54 377 -14z"
       id="path37" />
    <path
       d="M1293 3543 c9 -2 15 -8 12 -13 -3 -4 3 -11 12 -14 10 -4 14 -4 10 0 -4 4 -2 13 4 21 9 10 5 13 -22 12 -19 -1 -26 -3 -16 -6z"
       id="path39" />
    <path
       d="M1164 3458 l-29 -33 33 29 c17 17 32 31 32 33 0 8 -8 1 -36 -29z"
       id="path41" />
    <path
       d="M520 2580 c-32 -7 -30 -7 17 -7 29 0 50 4 47 8 -6 10 -13 10 -64 -1z"
       id="path43" />
    <path
       d="M3529 1523 c-13 -16 -12 -17 4 -4 16 13 21 21 13 21 -2 0 -10 -8 -17 -17z"
       id="path45" />
  </g>
</svg>
