<?xml version="1.0" standalone="no"?>
<!DOCTYPE svg PUBLIC "-//W3C//DTD SVG 20010904//EN"
 "http://www.w3.org/TR/2001/REC-SVG-20010904/DTD/svg10.dtd">
<svg version="1.0" xmlns="http://www.w3.org/2000/svg"
 width="512.000000pt" height="512.000000pt" viewBox="0 0 512.000000 512.000000"
 preserveAspectRatio="xMidYMid meet">
<metadata>
Created by potrace 1.16, written by Peter Selinger 2001-2019
</metadata>
<g transform="translate(0.000000,512.000000) scale(0.100000,-0.100000)"
fill="#000000" stroke="none">
<path d="M212 5093 c57 -131 177 -304 264 -380 36 -32 62 -59 57 -60 -4 -2
-61 12 -125 31 -100 29 -133 44 -215 99 -54 36 -119 84 -145 107 l-48 42 0
-89 0 -88 40 -25 c22 -14 40 -28 40 -32 0 -5 -18 -8 -40 -8 -39 0 -40 -1 -40
-34 l0 -34 47 15 c67 21 245 28 327 14 37 -7 92 -21 122 -32 64 -24 200 -112
214 -139 9 -17 7 -18 -21 -10 -32 9 -64 0 -71 -20 -2 -6 -28 8 -58 31 -30 22
-68 47 -85 55 l-30 15 30 -23 c48 -36 125 -110 125 -119 0 -18 -24 -8 -86 36
-35 25 -93 57 -129 70 -83 32 -106 32 -39 1 66 -31 124 -83 165 -149 18 -29
49 -79 71 -113 21 -33 38 -63 38 -67 0 -4 -30 13 -67 37 -169 108 -309 166
-400 166 -71 0 -153 -12 -153 -21 0 -5 56 -35 124 -68 119 -56 229 -122 291
-175 l30 -26 -40 0 c-32 0 -52 9 -95 41 -30 23 -76 52 -102 65 -59 30 -199 76
-207 68 -10 -10 26 -30 157 -89 163 -73 169 -78 106 -86 -44 -5 -59 0 -152 43
-57 27 -106 47 -108 45 -3 -3 32 -26 76 -52 l82 -48 -73 -28 c-40 -15 -76 -26
-81 -23 -4 3 -8 -73 -8 -168 l0 -174 30 -48 31 -48 -31 7 c-29 6 -30 5 -30
-29 0 -35 1 -36 39 -36 65 0 179 -28 248 -61 77 -37 73 -58 -5 -29 -71 27 -89
24 -27 -4 l50 -23 -39 -16 c-37 -16 -40 -16 -123 13 -115 41 -124 37 -26 -11
49 -23 83 -46 83 -55 0 -8 11 -41 24 -74 l25 -61 -27 19 c-54 37 -56 32 -6
-15 28 -26 58 -61 68 -76 l17 -28 -35 15 c-41 17 -163 87 -223 128 l-43 29 0
-28 c0 -23 10 -34 58 -65 31 -20 106 -60 165 -89 60 -28 106 -53 104 -55 -6
-6 -153 41 -245 77 -40 16 -75 29 -77 29 -3 0 -5 -47 -5 -105 0 -99 1 -105 20
-105 12 0 51 -8 88 -17 l67 -17 -40 -8 c-22 -4 -62 -7 -90 -8 -58 0 -44 -19
15 -20 19 -1 51 -9 70 -18 31 -15 35 -22 36 -56 1 -28 8 -44 25 -58 18 -15 20
-18 5 -14 -15 5 -181 36 -192 36 -2 0 -4 -6 -4 -14 0 -9 23 -18 68 -26 90 -17
193 -49 213 -66 8 -8 42 -25 75 -39 32 -13 54 -24 48 -25 -23 0 -232 41 -296
58 -38 11 -68 18 -68 16 0 -8 73 -41 190 -85 125 -48 125 -48 75 -48 -54 -1
-220 23 -273 38 l-32 10 0 -50 0 -49 88 -1 c48 0 105 -4 127 -8 l40 -9 -40 -2
-40 -3 35 -7 c19 -4 30 -8 25 -9 -6 0 -37 -26 -69 -57 l-59 -55 -53 7 c-45 5
-54 4 -54 -9 0 -10 17 -19 50 -27 71 -17 62 -40 -16 -40 l-34 0 0 -75 c0 -68
2 -77 27 -102 l28 -27 -25 -6 c-21 -5 -25 -12 -28 -49 l-3 -42 47 7 c56 8 53
-6 -7 -36 -32 -17 -39 -26 -39 -50 l0 -29 35 24 c20 13 55 31 79 40 41 16 46
16 76 0 39 -20 30 -29 -40 -39 -25 -4 -52 -11 -60 -17 -12 -9 -12 -10 3 -5 55
18 157 27 178 16 20 -11 18 -13 -32 -34 -113 -47 -234 -113 -237 -129 -3 -15
3 -14 55 4 157 55 373 94 387 71 3 -5 -34 -35 -82 -68 -48 -32 -149 -112 -224
-177 -106 -92 -138 -124 -138 -143 0 -13 2 -24 5 -24 4 0 47 30 98 66 111 80
128 89 235 125 l83 28 -40 -48 c-22 -26 -62 -85 -88 -131 l-48 -83 -67 -23
c-37 -12 -92 -26 -123 -29 l-55 -7 0 -74 c0 -86 -8 -82 123 -55 48 10 87 17
87 16 0 -7 -129 -94 -168 -114 -51 -26 -56 -37 -7 -16 40 16 39 13 -8 -48 -16
-20 -25 -37 -22 -37 4 0 33 18 65 39 57 39 133 81 147 81 4 0 -12 -20 -36 -44
l-44 -44 62 15 c34 9 64 14 66 11 3 -3 -19 -41 -49 -85 -29 -44 -55 -85 -57
-90 -2 -5 -39 -29 -81 -53 -78 -44 -102 -67 -50 -49 67 23 139 78 197 150 119
148 238 244 339 273 65 19 80 20 70 4 -4 -7 6 -2 23 10 l30 22 -5 -93 c-5
-104 -7 -108 -94 -170 -32 -22 -58 -42 -58 -45 0 -4 12 3 107 66 45 29 59 34
93 29 26 -3 57 1 87 13 27 9 60 20 75 24 26 6 28 4 28 -26 0 -17 -8 -40 -17
-51 -10 -11 -12 -17 -6 -13 7 4 25 0 40 -8 l28 -15 -60 -57 c-59 -57 -59 -57
-13 -25 25 18 59 46 74 62 26 27 52 40 40 20 -3 -4 5 -7 17 -5 95 13 107 12
97 -5 -17 -33 -119 -130 -181 -172 -71 -48 -198 -109 -228 -109 -28 0 -28 43
-1 87 l19 32 -57 -26 c-127 -58 -223 -85 -303 -87 -43 0 -80 2 -84 6 -4 3 -17
32 -30 64 l-23 57 -13 -43 c-11 -36 -20 -46 -54 -61 -22 -9 -68 -23 -102 -29
-51 -10 -63 -16 -63 -31 0 -24 12 -24 121 2 49 11 93 19 98 17 6 -2 -42 -45
-105 -97 l-114 -94 0 -94 0 -93 65 69 c68 72 168 146 269 200 63 33 86 38 86
18 0 -7 -56 -88 -125 -180 -69 -92 -121 -167 -116 -167 12 0 103 99 194 212
111 136 152 178 176 178 11 0 21 -2 21 -4 0 -2 -11 -43 -25 -91 -43 -146 -72
-184 -265 -334 -52 -41 -88 -71 -80 -68 8 3 53 22 100 41 l84 36 -40 -43 c-22
-23 -48 -52 -58 -64 -19 -23 -19 -23 2 -23 15 0 40 23 79 72 32 39 70 85 86
102 26 29 28 30 41 13 12 -15 18 -17 36 -7 39 21 36 0 -13 -91 l-48 -89 45 0
44 0 17 53 c28 86 105 226 167 303 85 108 314 278 326 243 6 -16 -19 -109 -44
-166 -13 -28 -52 -103 -87 -165 -35 -62 -70 -124 -76 -138 -11 -22 -9 -22 14
5 14 17 79 105 144 196 138 190 146 199 167 177 25 -25 20 -50 -27 -123 -81
-126 -76 -131 9 -8 48 71 50 72 67 53 14 -16 26 -19 57 -14 38 7 38 6 29 -19
-38 -99 -122 -227 -212 -321 l-72 -76 53 0 c44 0 58 5 87 30 50 44 98 37 73
-10 -10 -20 -8 -20 108 -20 l120 0 7 56 c9 75 39 162 87 259 47 93 106 185
119 185 19 0 8 -72 -28 -187 -44 -143 -83 -284 -82 -298 0 -5 19 44 43 110 23
66 61 162 83 213 l40 93 32 -27 32 -27 131 68 130 68 -7 -34 c-12 -57 -54
-160 -95 -237 -46 -85 -36 -88 13 -3 36 61 107 239 107 269 0 18 66 69 77 59
5 -6 -4 -51 -21 -102 -4 -11 6 5 23 35 34 63 38 57 15 -21 -35 -119 -143 -296
-249 -408 l-67 -71 140 0 140 0 -5 60 c-3 33 -2 60 3 60 5 0 18 -26 29 -57 25
-71 51 -86 28 -16 -11 32 -16 88 -16 168 -1 128 4 151 65 314 29 77 33 82 41
58 5 -17 3 -43 -7 -78 -9 -29 -14 -54 -12 -57 3 -2 11 18 19 44 l14 49 12 -40
c6 -22 11 -56 12 -75 1 -19 5 -46 9 -60 6 -20 8 -15 9 25 l1 50 20 -30 c19
-27 20 -41 15 -155 -3 -69 -8 -155 -11 -192 -5 -68 -5 -68 20 -68 24 0 26 3
26 48 0 50 16 212 25 250 5 21 9 19 56 -28 31 -32 55 -65 61 -88 25 -97 50
-173 54 -169 2 2 -2 33 -11 68 -8 35 -15 78 -15 96 l0 32 65 -30 64 -30 47 27
47 28 -5 -90 c-5 -86 -4 -88 8 -39 7 28 13 68 13 91 1 28 10 52 32 82 17 23
33 42 36 42 10 0 -6 -183 -21 -237 l-14 -53 24 0 c13 0 28 9 34 20 13 25 21
25 48 0 17 -16 35 -20 86 -20 l65 0 -50 72 c-55 80 -66 118 -18 63 48 -54 57
-47 51 42 -6 94 17 371 29 351 5 -7 9 -9 9 -5 0 5 7 2 15 -6 23 -24 33 -89 45
-287 6 -102 13 -189 16 -195 2 -5 2 93 1 218 -3 144 0 224 6 218 5 -5 19 -74
32 -153 13 -78 24 -134 24 -123 1 22 -15 167 -25 225 -6 34 -6 35 15 16 34
-31 61 -138 81 -318 5 -54 10 -102 10 -108 0 -5 12 -10 26 -10 26 0 26 0 19
63 -3 34 -11 95 -16 135 -19 134 -1 96 55 -113 l21 -80 38 -3 c20 -2 37 -1 37
2 0 2 -15 44 -34 93 -18 48 -50 139 -71 201 -32 99 -36 117 -25 140 19 42 40
115 40 142 1 19 3 21 9 10 15 -26 71 -222 81 -285 l9 -60 -4 70 c-2 39 -19
123 -39 190 -60 207 -57 255 4 86 33 -89 58 -202 70 -316 8 -69 8 -62 4 50 -2
72 -7 144 -10 160 -4 23 -3 26 5 14 21 -33 53 -197 61 -309 l8 -115 -3 135
c-3 113 -9 157 -38 273 -19 76 -31 135 -27 130 20 -20 71 -136 94 -213 32
-106 46 -199 46 -312 l0 -88 106 0 c114 0 111 -2 68 55 -56 77 -126 248 -184
454 -30 106 -69 196 -71 161 0 -8 -9 7 -20 34 -11 27 -18 52 -17 57 2 5 26
-23 55 -61 41 -56 59 -94 93 -197 40 -121 122 -313 135 -313 3 0 -5 21 -18 48
-48 96 -126 336 -114 349 7 6 40 -59 57 -112 20 -60 70 -169 75 -163 3 3 -3
25 -14 50 -16 38 -51 157 -51 175 0 3 7 0 15 -7 8 -7 15 -16 15 -20 0 -13 101
-222 105 -218 3 2 -8 35 -24 74 -16 38 -32 80 -36 94 l-7 25 25 -23 c24 -22
210 -327 256 -420 12 -23 26 -42 31 -42 6 0 10 2 10 5 0 14 -50 127 -111 248
-39 77 -68 141 -66 144 11 10 105 -48 128 -79 35 -46 121 -192 155 -260 33
-69 52 -78 24 -12 -21 49 -126 241 -143 262 -17 21 -3 22 49 3 54 -21 66 -36
165 -219 l51 -93 121 5 c192 9 199 9 252 1 l50 -7 -30 26 -30 25 70 0 c49 1
91 -7 140 -24 84 -30 85 -30 85 -7 0 9 -18 27 -40 40 -22 12 -40 26 -40 31 0
4 18 13 40 20 l40 12 0 147 0 147 -87 21 c-49 12 -124 38 -167 58 -44 20 -82
33 -85 30 -3 -4 -1 -9 5 -11 7 -2 49 -48 95 -101 45 -53 89 -102 96 -108 7 -6
9 -15 5 -19 -4 -5 -2 -5 4 -2 13 7 104 -73 104 -90 0 -12 -84 -50 -129 -59
-75 -15 -204 35 -374 145 -132 86 -154 111 -159 187 l-4 61 53 -43 c30 -24 56
-44 60 -44 3 0 -12 19 -34 43 -40 43 -99 135 -92 142 3 2 45 -16 94 -41 80
-39 106 -60 230 -182 229 -226 227 -219 -19 62 -48 54 -86 100 -84 101 2 2 27
-3 57 -11 57 -14 73 -12 53 8 -20 20 -14 25 31 30 24 3 68 17 98 31 33 16 42
23 24 19 -16 -4 -75 -7 -131 -7 -96 0 -103 2 -177 38 -75 37 -76 38 -57 57 17
17 18 22 4 81 -8 34 -12 64 -9 67 2 3 19 -6 37 -20 45 -33 118 -74 148 -83 14
-4 -9 16 -50 43 -113 75 -154 118 -179 185 -11 33 -21 62 -21 65 0 4 21 -15
46 -43 l45 -50 -42 58 c-23 31 -44 57 -48 57 -4 0 -21 20 -39 45 -17 25 -26
45 -19 45 35 0 115 -51 152 -96 62 -77 230 -266 260 -294 36 -33 -69 132 -143
226 -51 64 -52 66 -26 60 16 -4 53 -12 84 -17 30 -6 71 -15 90 -21 46 -14 139
-89 228 -182 l72 -76 0 42 c0 34 -6 49 -32 75 l-32 33 32 0 32 0 0 84 0 83
-38 27 c-21 14 -52 40 -68 58 -27 29 -27 30 -4 15 14 -9 44 -23 68 -31 l42
-15 0 124 0 125 -35 0 c-94 0 -268 55 -330 104 l-20 15 20 1 c11 0 47 -7 80
-15 33 -8 71 -14 85 -14 24 0 24 0 -5 14 -28 13 -25 13 56 14 128 1 149 7 149
42 0 34 0 33 -64 14 -83 -25 -216 -15 -321 25 -26 10 -28 13 -12 21 10 6 17
22 17 39 0 17 4 30 8 30 5 0 37 -11 72 -25 35 -14 65 -24 66 -22 2 1 -26 17
-61 36 -58 30 -93 63 -165 155 -16 20 -12 20 90 0 55 -12 -6 15 -71 31 -38 10
-76 26 -86 37 -18 20 -17 20 32 13 28 -3 64 -9 80 -12 49 -9 25 4 -55 31 l-75
24 46 1 c52 1 160 -29 229 -64 56 -29 159 -104 222 -163 l48 -45 0 66 c0 54
-3 67 -18 71 -29 10 -149 136 -129 136 10 0 15 4 12 10 -4 6 20 10 64 10 68 0
71 1 71 23 0 15 -9 29 -26 37 l-25 14 25 19 c25 18 26 22 26 126 0 105 -1 108
-25 121 -31 17 -32 28 -3 32 13 2 24 11 26 20 3 16 -2 17 -40 12 -35 -5 -54
-1 -94 19 -27 14 -68 30 -91 37 -24 7 -43 16 -42 19 0 3 27 28 60 55 64 52 67
53 177 30 25 -5 32 -3 32 9 0 9 -12 18 -30 22 -39 9 -39 25 0 25 28 0 30 3 30
35 0 21 -6 37 -16 43 -14 8 -14 10 0 25 26 25 19 55 -16 74 l-33 18 33 3 c42
4 45 38 5 53 -16 5 -68 27 -116 47 l-88 37 63 5 c61 5 62 5 23 12 -22 4 -64
10 -94 14 -30 3 -73 15 -95 24 l-41 19 35 0 c19 1 42 6 50 12 11 7 -14 9 -86
4 -104 -7 -135 2 -88 24 14 6 42 11 62 12 20 1 48 5 62 9 18 6 7 8 -42 9 l-68
1 10 26 c6 14 8 29 5 34 -10 16 24 19 117 10 96 -9 205 -38 270 -71 21 -11 40
-19 43 -19 3 0 5 34 5 75 0 41 -2 75 -5 75 -3 0 -22 -7 -43 -15 l-37 -16 43
43 c32 34 42 51 42 76 l0 33 -32 -24 c-44 -33 -118 -70 -126 -62 -3 3 5 13 17
22 47 32 142 115 138 119 -2 3 -57 -13 -121 -35 l-118 -39 38 32 c21 17 76 64
121 105 80 71 83 75 83 117 0 24 -2 44 -5 44 -2 0 -32 -18 -66 -40 -34 -22
-66 -37 -71 -34 -10 7 -11 6 80 110 85 97 82 116 -10 53 -39 -27 -77 -49 -85
-49 -7 0 -27 9 -44 19 l-31 19 28 17 c16 9 20 13 9 10 -33 -11 -85 -18 -85
-12 0 4 12 13 28 21 35 20 15 20 -31 1 -41 -17 -57 -19 -57 -6 0 12 123 66
220 96 115 36 137 47 80 39 -78 -10 -160 -33 -244 -70 -44 -20 -88 -38 -96
-42 -27 -10 23 40 69 70 60 37 46 35 -46 -7 -42 -19 -78 -35 -81 -35 -3 0 7
14 24 31 59 64 240 128 362 129 l52 0 0 40 c0 31 -4 40 -17 40 -15 0 -15 1 0
18 14 15 17 40 17 120 0 56 -2 102 -5 102 -15 0 -138 -47 -187 -71 -32 -16
-61 -29 -64 -29 -14 0 41 52 149 142 69 58 107 97 107 109 0 24 -14 18 -105
-45 -89 -62 -89 -62 -76 -38 6 11 49 56 96 99 126 116 115 128 -45 48 -71 -36
-134 -65 -139 -65 -5 0 -11 6 -14 14 -4 9 30 34 101 76 138 82 172 104 147 95
-109 -40 -271 -93 -274 -89 -12 12 48 53 162 109 71 35 134 66 140 68 7 2 9 8
5 12 -14 15 -257 -85 -328 -135 -36 -26 -37 -24 -6 40 l24 50 -25 -6 c-23 -6
-25 -5 -18 17 12 41 64 87 212 187 79 53 143 103 143 109 0 7 -3 13 -7 13 -10
0 -219 -117 -330 -186 -56 -35 -137 -82 -180 -104 -42 -23 -95 -58 -118 -79
-50 -46 -130 -101 -146 -101 -17 0 16 35 141 148 163 148 254 211 470 326 58
31 102 56 98 56 -11 0 -176 -74 -269 -121 -143 -71 -387 -251 -458 -335 -29
-35 -31 -36 -21 -11 34 94 197 252 356 347 126 75 343 176 414 193 28 6 50 15
50 19 0 5 -44 8 -99 8 -99 0 -103 -1 -253 -59 -39 -15 -35 -6 14 29 l41 30
-164 0 -164 0 -69 -96 c-77 -109 -106 -167 -140 -281 l-23 -78 -4 55 c-3 38 3
76 18 125 24 75 53 212 53 251 0 13 -6 24 -13 24 -9 0 -19 -28 -30 -82 -9 -46
-27 -118 -39 -162 l-23 -78 -37 -3 c-25 -1 -65 -20 -125 -58 -49 -30 -95 -55
-103 -54 -8 1 -32 -3 -53 -7 -21 -5 -41 -6 -44 -3 -12 13 98 149 232 286 l140
145 -80 -61 c-80 -60 -245 -224 -280 -276 -10 -15 -20 -26 -22 -23 -6 5 31 78
69 136 29 43 27 43 -31 -18 -44 -44 -61 -57 -61 -44 0 46 121 181 235 263 46
33 47 34 21 37 -31 4 -56 -14 -158 -108 -38 -34 -68 -57 -68 -52 0 6 13 45 29
86 l29 75 -164 0 c-144 1 -164 -1 -173 -17 -10 -16 -10 -16 -11 1 0 15 -12 17
-103 17 l-103 0 18 -72 c11 -42 20 -114 21 -168 2 -88 0 -99 -26 -142 -26 -45
-31 -48 -68 -48 -22 0 -53 -7 -69 -15 l-30 -16 -1 48 c-1 46 -2 47 -8 13 -4
-19 -13 -46 -21 -59 -12 -24 -14 -22 -42 55 l-29 79 15 120 c9 66 18 138 21
160 7 56 -61 -146 -70 -209 l-7 -49 -13 30 c-15 35 -41 48 -63 31 -13 -11 -14
-8 -7 22 4 19 18 69 31 110 13 41 22 76 20 77 -4 5 -52 -130 -68 -190 -12 -45
-17 -50 -75 -81 l-62 -33 33 91 c50 136 50 137 7 54 -46 -87 -57 -98 -67 -66
-6 21 -7 21 -21 2 -30 -39 -3 48 47 151 26 55 47 102 45 104 -5 5 -92 -171
-117 -237 -12 -31 -21 -76 -20 -99 0 -24 -1 -43 -2 -43 -2 0 -17 21 -36 46
l-33 46 17 60 c9 33 34 95 56 138 22 44 40 82 40 85 0 10 -129 5 -136 -6 -5
-8 -9 -8 -14 1 -4 7 -25 10 -53 8 l-46 -3 34 -54 c31 -48 75 -158 75 -186 0
-6 -15 -11 -34 -11 -31 0 -35 4 -49 46 l-16 45 5 -57 c6 -55 5 -58 -40 -121
-67 -93 -104 -179 -119 -277 l-13 -85 -17 70 c-9 39 -31 164 -47 279 -17 115
-35 225 -39 245 -8 34 -4 -313 4 -369 3 -23 2 -24 -11 -5 -8 10 -14 24 -14 31
0 7 -4 16 -10 19 -6 4 -7 -1 -4 -12 4 -11 -8 -4 -30 18 -28 27 -39 47 -45 85
l-9 49 -1 -42 c-1 -34 -5 -43 -19 -43 -10 0 -33 -16 -52 -35 -19 -19 -38 -35
-43 -35 -16 0 0 187 23 274 12 43 32 100 46 127 l24 49 -40 0 c-41 0 -41 0
-73 -70 -18 -38 -35 -69 -38 -70 -4 0 -10 32 -14 70 -4 42 -12 70 -19 70 -7 0
-10 -27 -8 -87 l2 -88 -30 85 c-16 46 -30 85 -30 87 0 2 -18 3 -40 3 -22 0
-40 -2 -40 -4 0 -3 16 -42 35 -87 19 -45 33 -84 32 -86 -2 -1 -25 38 -51 87
-35 66 -53 90 -67 90 -23 0 -23 -2 -3 -43 l16 -32 -39 38 c-40 38 -40 38 -114
35 l-74 -3 -15 -47 c-16 -52 -24 -58 -39 -29 -6 10 -30 34 -53 52 -40 30 -40
29 13 -27 l57 -59 4 -148 5 -148 -25 23 c-24 23 -25 23 -13 1 24 -47 1 -39
-30 11 l-20 31 7 -38 c3 -20 2 -50 -4 -65 -5 -15 -15 -47 -22 -71 -9 -33 -14
-41 -21 -30 -10 15 -79 229 -103 319 -8 30 -15 46 -15 36 -1 -11 19 -100 44
-199 25 -99 44 -181 42 -183 -7 -7 -35 30 -70 96 -75 136 -137 337 -137 440
l0 40 -150 0 c-82 0 -150 -2 -150 -4 0 -2 12 -25 26 -52 l26 -49 -52 53 c-38
39 -59 52 -80 52 l-29 0 75 -106 c41 -59 74 -112 74 -118 0 -6 -23 14 -51 44
-28 30 -42 42 -32 25 36 -55 36 -55 -3 -39 -33 14 -38 14 -54 -1 -16 -14 -21
-11 -77 49 -33 35 -75 82 -93 105 -25 31 -41 41 -62 41 -15 0 -28 -3 -28 -6 0
-4 41 -67 90 -141 70 -104 90 -142 90 -169 0 -19 -4 -34 -9 -34 -13 0 -150
157 -222 253 -33 43 -59 76 -59 73 0 -14 75 -155 115 -218 24 -36 60 -85 80
-107 74 -82 12 -38 -88 62 -67 66 -124 135 -162 195 -51 80 -63 92 -87 92 -26
0 -27 -1 -16 -27z m3548 10 c-1 -15 -46 -58 -73 -70 -63 -29 -54 -3 17 49 39
28 56 34 56 21z m-2082 -30 c57 -26 173 -150 215 -230 38 -72 70 -187 65 -230
-2 -18 -15 2 -48 76 -24 55 -45 99 -47 98 -1 -2 4 -27 12 -56 7 -29 16 -82 20
-119 l6 -67 -44 100 c-47 109 -95 205 -101 205 -2 0 11 -37 29 -82 19 -46 36
-94 39 -108 2 -14 11 -55 19 -92 l14 -67 -23 12 c-12 7 -55 61 -93 121 -39 60
-71 106 -71 103 0 -6 5 -19 39 -104 l20 -52 -64 40 c-73 46 -80 59 -96 192
-12 98 -6 180 18 239 17 43 35 47 91 21z m2185 -23 c-3 -11 -10 -23 -16 -27
-5 -3 -8 -2 -5 3 3 5 8 17 11 27 9 24 16 22 10 -3z m-151 -142 c7 -25 12 -102
13 -182 l0 -138 -35 -30 c-19 -16 -43 -34 -52 -39 -16 -9 -16 -7 -3 26 26 61
16 62 -14 0 -22 -46 -50 -79 -119 -143 -50 -45 -93 -79 -95 -75 -3 5 -9 24
-15 44 -9 33 -6 44 29 108 21 39 36 71 34 71 -2 0 -20 -24 -40 -52 -19 -29
-35 -46 -35 -38 0 24 58 139 97 194 l37 51 -38 -35 c-20 -19 -53 -59 -73 -88
-35 -50 -38 -52 -46 -30 -11 31 -1 80 23 111 11 13 29 50 41 82 12 32 40 78
63 103 44 48 143 102 188 102 23 0 29 -6 40 -42z m-2804 -74 c52 -25 98 -59
162 -121 50 -47 88 -88 86 -91 -10 -9 -72 23 -165 85 -51 35 -98 63 -103 63
-5 0 27 -27 71 -61 99 -74 114 -93 99 -125 l-11 -25 -34 33 c-37 36 -39 35
-18 -15 8 -20 15 -39 15 -43 0 -14 -31 20 -55 63 -15 24 -28 43 -30 41 -2 -2
12 -48 30 -103 37 -110 41 -130 23 -141 -15 -9 -40 23 -90 114 -22 40 -43 71
-45 68 -3 -3 13 -39 35 -80 l40 -74 -41 13 c-23 7 -59 16 -79 20 -33 5 -39 10
-50 48 -20 65 -17 292 5 340 16 36 19 38 49 32 18 -3 66 -22 106 -41z m1808
-187 l36 -69 33 49 c66 98 195 190 233 167 20 -12 45 -60 72 -136 l18 -53 -46
-45 -47 -45 -6 60 c-3 33 -6 53 -8 45 -1 -8 -6 -48 -11 -88 -7 -53 -19 -90
-46 -138 l-36 -65 -29 27 c-21 20 -35 25 -55 21 l-26 -5 6 54 c8 70 39 151 78
205 27 39 28 41 5 21 -37 -34 -83 -128 -97 -197 -7 -33 -15 -64 -17 -69 -3 -4
-18 32 -34 81 -16 48 -35 97 -43 108 -10 13 -7 -5 9 -55 31 -102 39 -159 23
-189 -23 -43 -38 -37 -39 16 l-1 48 -9 -55 c-6 -33 -18 -63 -30 -75 l-21 -20
4 115 c4 108 4 112 -9 70 -7 -25 -22 -99 -34 -164 -22 -131 -33 -164 -44 -131
-4 11 -18 47 -31 80 -37 91 -31 192 20 360 4 11 -3 0 -15 -25 -11 -25 -29 -85
-39 -134 -11 -48 -21 -90 -23 -93 -11 -10 -19 84 -12 145 10 96 39 181 86 251
58 86 66 89 111 38 21 -23 54 -73 74 -110z m1455 56 c7 -16 12 -82 12 -148 0
-104 -3 -130 -27 -199 -28 -81 -58 -139 -101 -191 l-25 -30 0 100 c0 99 1 103
55 250 4 11 -4 3 -17 -19 l-25 -38 -6 45 c-4 26 -16 74 -27 108 l-21 63 23 18
c31 24 118 68 135 68 8 0 18 -12 24 -27z m-1990 -50 c18 -15 50 -54 71 -87
l38 -59 -28 -17 c-15 -10 -40 -32 -55 -50 -15 -18 -30 -31 -32 -28 -3 2 -11
31 -19 64 l-15 59 5 -80 c4 -75 3 -82 -21 -110 l-26 -30 -17 25 c-9 14 -34 41
-55 62 -38 36 -38 36 -27 79 7 24 21 62 32 84 23 45 86 115 104 115 7 0 27
-12 45 -27z m-579 -60 c28 -15 74 -49 102 -74 l50 -46 -14 -47 -13 -47 -18 31
c-27 44 -33 37 -9 -10 15 -30 19 -50 14 -76 l-6 -35 -43 63 c-23 35 -51 70
-61 78 -16 13 -15 11 3 -15 28 -41 69 -124 77 -158 7 -28 6 -28 -18 -12 -13 9
-27 23 -30 32 -4 9 -9 14 -11 11 -3 -3 8 -34 25 -69 41 -88 40 -93 -17 -84
-27 4 -49 8 -49 8 -1 1 -20 36 -42 77 -43 78 -57 78 -22 1 l20 -44 -47 42
c-27 23 -53 46 -59 51 -43 33 -12 291 42 351 19 21 48 14 126 -28z m2348 -18
c17 -62 10 -280 -11 -299 -7 -8 -30 -19 -51 -24 l-36 -10 24 52 c37 80 28 89
-13 12 -29 -53 -47 -75 -81 -95 -25 -14 -70 -43 -100 -63 -31 -21 -58 -35 -60
-33 -2 2 17 34 44 72 l47 68 -50 -48 -50 -48 -6 61 c-4 34 -16 82 -27 107 -20
45 -20 45 0 73 46 64 179 164 268 200 75 30 87 27 102 -25z m732 -35 c1 -44 2
-90 2 -101 1 -19 -15 -27 -114 -60 -152 -51 -174 -51 -127 -1 21 23 21 24 1
14 -11 -6 -26 -18 -34 -26 -14 -17 -40 -22 -40 -7 0 5 30 37 68 71 l67 62 -85
-64 c-103 -78 -110 -82 -110 -68 0 17 108 128 160 163 70 49 163 97 188 97 21
0 22 -4 24 -80z m-1404 17 c23 -62 38 -116 46 -175 6 -40 5 -42 -14 -30 -45
28 -152 -64 -220 -191 l-41 -76 5 53 c3 29 21 98 39 152 19 55 33 100 31 100
-2 0 -30 -52 -62 -116 l-58 -116 -33 64 -34 65 39 74 c64 121 198 246 266 249
11 0 23 -17 36 -53z m-2051 -27 c36 -18 77 -48 98 -72 35 -41 46 -66 23 -52
-6 4 -4 -3 5 -17 15 -20 24 -69 13 -69 -2 0 -25 10 -52 22 -27 11 -70 27 -96
33 l-47 13 -33 -48 -34 -49 -32 25 c-30 24 -32 30 -32 85 0 62 18 119 48 152
21 23 55 18 139 -23z m662 -100 c46 -13 136 -83 166 -129 l25 -38 -18 -42 -19
-42 -27 45 c-15 25 -29 46 -31 46 -2 0 8 -25 21 -55 21 -45 24 -63 17 -92 l-8
-36 -64 79 c-36 44 -69 84 -74 89 -5 6 17 -39 48 -98 31 -59 64 -129 71 -155
l14 -46 -41 39 c-22 22 -54 61 -71 87 -36 55 -46 56 -24 3 9 -21 16 -39 16
-40 0 -2 -26 12 -57 31 -31 19 -62 34 -69 34 -34 0 -25 196 13 293 13 32 20
37 47 37 17 0 46 -4 65 -10z m462 -67 c111 -116 165 -217 184 -340 8 -53 -8
-57 -22 -5 l-11 37 5 -41 c3 -23 1 -49 -4 -59 -8 -14 -14 -11 -39 22 -15 21
-47 58 -69 82 -26 28 -48 66 -62 110 -18 53 -21 58 -17 26 3 -22 7 -47 9 -55
3 -9 -4 -20 -17 -25 -11 -6 -39 -40 -61 -77 -22 -37 -43 -65 -47 -63 -5 3 -6
42 -4 88 l3 82 -14 -55 c-7 -30 -17 -106 -21 -170 l-7 -115 -18 50 c-10 28
-18 68 -19 90 -1 22 -6 51 -11 65 -5 16 -7 -13 -6 -83 1 -59 1 -107 -1 -107
-2 0 -12 20 -23 45 -27 61 -27 187 -1 272 27 84 82 180 141 242 57 61 59 61
132 -16z m-1510 27 c72 -14 181 -65 217 -104 l31 -31 -15 -55 c-8 -30 -12 -64
-10 -74 6 -22 -1 -16 -43 43 -41 58 -39 47 9 -49 44 -87 50 -111 23 -89 -15
13 -16 11 -10 -13 4 -14 10 -34 13 -45 11 -31 -98 118 -134 182 -46 83 -29 29
24 -77 24 -48 44 -91 44 -96 0 -4 -18 -6 -41 -4 -37 4 -44 9 -77 61 -20 31
-51 92 -69 136 -18 44 -33 75 -33 69 0 -25 35 -124 66 -186 19 -37 34 -70 34
-73 0 -3 -15 -5 -34 -5 -31 0 -37 5 -64 53 -49 86 -83 194 -89 284 l-6 83 55
0 c30 0 79 -5 109 -10z m3933 -18 c19 -31 -60 -296 -130 -434 -39 -79 -109
-172 -157 -211 -48 -40 -147 -100 -146 -89 0 4 31 32 68 64 38 31 83 76 101
100 30 38 26 36 -31 -19 -74 -71 -115 -105 -146 -122 -39 -20 -38 -12 2 30 31
33 34 38 13 24 -15 -9 -33 -15 -40 -12 -8 2 17 33 62 76 69 67 71 70 27 41
-27 -18 -51 -29 -54 -26 -7 7 16 73 61 171 20 44 29 71 20 60 -15 -18 -16 -18
-10 -2 3 10 6 27 6 38 0 11 19 41 42 67 24 26 31 37 17 25 -34 -30 -39 -29
-39 10 0 81 11 107 55 133 98 57 263 102 279 76z m-1437 -110 c26 -69 24 -205
-7 -301 l-23 -74 -18 73 c-22 84 -42 120 -67 120 -9 0 -36 -9 -59 -19 l-41
-19 14 34 c23 55 6 39 -20 -18 -13 -29 -33 -62 -45 -72 l-21 -19 14 44 c36
114 83 203 133 253 39 39 95 67 110 54 7 -5 20 -31 30 -56z m-2023 31 c98 -34
227 -152 246 -223 4 -19 16 -64 25 -100 31 -118 30 -108 13 -86 -10 13 -17 15
-22 8 -13 -21 -22 -13 -60 48 -21 33 -39 60 -41 60 -2 0 2 -17 9 -37 7 -21 16
-50 20 -65 l6 -27 -37 16 c-28 11 -60 14 -121 11 l-84 -4 -30 50 c-29 50 -30
29 -1 -28 14 -27 14 -31 -3 -43 -27 -20 -32 -17 -59 37 -31 61 -55 151 -55
205 0 51 23 129 50 173 20 32 23 33 63 27 23 -4 60 -14 81 -22z m1553 -10
c109 -118 151 -249 119 -373 l-14 -55 4 75 4 75 -14 -80 c-17 -100 -54 -225
-66 -225 -12 0 -12 46 -1 126 5 34 5 76 1 95 l-8 34 -1 -35 c-1 -49 -39 -171
-62 -200 l-19 -25 -1 105 c-1 114 -2 115 -20 25 l-11 -60 -20 75 c-16 60 -19
96 -15 185 5 110 -4 118 -17 15 -4 -30 -9 -67 -12 -82 l-6 -28 -39 50 c-21 27
-39 55 -39 62 0 8 -5 6 -11 -4 -5 -10 -16 -18 -24 -18 -11 0 -11 8 -1 48 19
69 42 109 96 163 42 42 110 87 134 89 4 0 24 -17 43 -37z m681 -18 c14 -52 9
-163 -8 -195 -5 -10 -16 -20 -25 -24 -13 -5 -15 2 -10 47 l5 52 -15 -60 c-18
-68 -39 -100 -29 -45 l5 35 -19 -40 c-46 -94 -49 -91 -55 66 -6 161 -7 159 68
198 55 29 68 24 83 -34z m842 -12 c0 -38 -27 -210 -40 -255 -11 -37 -12 -38
-58 -38 -26 0 -64 -4 -84 -9 -42 -10 -42 -13 5 59 l29 45 -29 -30 c-15 -17
-37 -42 -49 -56 -19 -25 -243 -143 -253 -134 -2 3 15 33 37 67 22 35 45 75 51
90 11 30 99 103 194 160 34 21 58 38 53 38 -9 0 -165 -89 -205 -118 -23 -16
-24 -16 -13 3 48 89 230 204 325 205 34 0 37 -2 37 -27z m-404 -38 c4 -8 2
-54 -4 -101 -13 -109 -52 -192 -132 -276 -61 -64 -97 -76 -42 -14 16 19 44 56
62 83 l31 48 -45 -48 c-41 -44 -46 -46 -46 -25 0 12 14 50 31 83 31 58 31 59
6 33 -14 -16 -28 -28 -31 -28 -6 0 8 40 25 73 12 21 11 21 -8 4 -21 -19 -33
-14 -33 14 0 22 -29 39 -64 39 -14 0 -26 4 -26 10 0 6 -9 6 -26 0 -14 -6 -23
-6 -20 -1 13 20 120 85 168 102 67 23 146 25 154 4z m-2333 -145 c16 0 15 -4
-8 -43 -14 -24 -25 -52 -26 -63 0 -18 -1 -18 -8 1 -4 11 -11 42 -14 69 -7 46
-6 48 16 42 12 -3 30 -6 40 -6z m732 -53 c67 -68 106 -143 113 -220 4 -47 2
-59 -8 -55 -8 2 -19 20 -26 39 l-12 34 -3 -35 c-2 -19 -8 -34 -13 -33 -5 1
-22 38 -37 83 -15 45 -30 84 -34 88 -5 4 -5 -2 -1 -13 5 -11 15 -56 24 -99
l16 -79 -30 -23 c-32 -26 -54 -31 -54 -11 -1 6 -7 50 -14 97 l-14 85 -1 -130
c-1 -137 -9 -148 -33 -45 l-13 55 -5 -60 -6 -60 -18 59 c-22 72 -17 155 14
238 22 60 74 138 91 138 6 0 34 -24 64 -53z m-539 2 c80 -45 164 -149 150
-185 -8 -22 -32 -17 -50 11 -9 14 -21 25 -27 25 -5 0 2 -17 16 -37 26 -39 32
-59 15 -48 -6 4 -10 -8 -10 -29 0 -71 -9 -69 -67 12 -68 96 -100 128 -46 47
63 -94 93 -150 93 -170 0 -18 -1 -18 -16 1 -15 18 -15 18 -9 -6 4 -14 10 -43
12 -65 l5 -40 -27 25 c-49 45 -96 119 -131 202 -37 91 -45 93 -14 4 29 -85 76
-168 131 -229 48 -55 49 -55 17 -44 -56 21 -135 103 -173 181 -47 95 -63 184
-48 272 21 120 66 138 179 73z m-1281 -3 c82 -26 175 -84 206 -128 12 -16 20
-31 18 -33 -3 -2 -31 14 -64 36 -61 41 -149 89 -162 89 -4 0 18 -15 48 -33 30
-18 85 -57 123 -87 l68 -55 -29 -12 c-40 -17 -54 -16 -82 10 l-24 22 21 -36
c21 -34 29 -69 16 -69 -3 0 -20 11 -37 24 -52 39 -168 93 -247 115 -96 27
-109 26 -39 -3 165 -69 283 -148 323 -216 l18 -32 -73 49 c-106 71 -112 72
-39 6 35 -32 78 -71 95 -86 l30 -28 -45 22 c-25 12 -64 35 -88 51 -66 45 -59
29 14 -30 35 -29 68 -61 74 -72 9 -17 7 -18 -28 -8 -49 14 -141 60 -227 115
-95 61 -52 15 61 -66 l84 -59 -36 -6 c-28 -6 -49 0 -107 28 -104 51 -194 129
-280 247 -11 15 -9 7 5 -20 13 -24 56 -79 97 -123 40 -43 71 -78 68 -78 -4 0
-29 5 -56 11 -45 9 -56 17 -100 72 -66 83 -111 175 -124 253 -14 82 -8 92 74
122 129 47 311 50 444 8z m3170 4 c15 -17 17 -31 12 -97 -8 -102 -29 -168 -70
-227 -35 -48 -143 -146 -162 -146 -6 0 -11 28 -12 66 -2 54 2 72 21 102 48 77
48 87 0 37 -38 -40 -48 -46 -52 -32 -4 20 25 71 87 147 25 30 37 49 28 42 -9
-8 -42 -45 -73 -83 -44 -54 -60 -67 -70 -58 -7 5 -24 13 -38 17 l-26 7 35 55
36 55 -41 -42 c-44 -47 -48 -47 -24 0 60 118 149 176 270 177 48 0 65 -4 79
-20z m-480 -45 c16 -33 20 -60 20 -150 0 -119 -16 -171 -70 -229 -41 -44 -47
-29 -14 35 42 83 32 84 -13 1 -34 -61 -129 -169 -115 -130 3 9 9 34 13 55 4
21 11 46 16 56 19 37 -1 28 -28 -13 -16 -23 -30 -37 -32 -31 -5 16 26 105 65
186 40 84 17 56 -55 -69 -52 -89 -53 -90 -47 -47 4 25 16 69 26 98 10 29 16
53 14 53 -7 0 -36 -59 -56 -114 l-19 -51 4 55 c8 112 107 273 195 321 51 27
73 21 96 -26z m-607 -40 c51 -58 83 -142 88 -230 3 -53 1 -62 -5 -37 -13 51
-21 50 -21 -4 0 -27 -5 -56 -10 -64 -7 -11 -10 4 -10 50 -1 36 -5 83 -9 105
-6 34 -8 26 -12 -52 -3 -51 -8 -96 -12 -100 -9 -8 -30 19 -58 75 -18 36 -20
56 -17 133 2 71 1 85 -8 64 -5 -14 -13 -22 -17 -19 -4 4 -7 -22 -8 -57 l-1
-64 -15 67 c-9 37 -12 79 -9 94 7 27 57 84 74 84 6 0 28 -20 50 -45z m-1667
-11 c108 -32 169 -75 169 -119 0 -30 -3 -31 -49 -4 -35 21 -35 21 9 -20 39
-36 41 -42 20 -36 -14 3 -61 14 -105 25 -44 11 -93 22 -108 25 -48 10 -90 128
-49 138 33 9 59 7 113 -9z m3302 -73 c-2 -44 -59 -179 -90 -213 -11 -13 -31
-18 -65 -18 l-48 0 0 53 c0 46 3 55 32 81 31 26 31 27 5 11 -16 -9 -30 -15
-31 -13 -1 2 -10 15 -19 30 -9 14 -27 28 -39 30 -20 3 -17 7 22 27 67 36 150
61 195 58 l40 -2 -2 -44z m-2793 -20 c58 -22 113 -61 137 -97 23 -35 10 -40
-29 -11 -67 50 -81 49 -25 -3 33 -30 82 -88 110 -129 l50 -76 -75 71 c-72 69
-178 147 -215 161 -10 3 9 -14 42 -40 72 -55 169 -153 140 -142 -11 4 -51 10
-88 12 l-68 6 -67 71 c-68 73 -67 69 6 -20 44 -54 42 -64 -11 -64 -12 0 -34
-7 -50 -15 -27 -14 -28 -13 -59 28 -39 53 -74 131 -81 180 -5 34 -3 38 26 54
75 38 178 44 257 14z m2558 -43 c15 -15 16 -100 2 -150 -9 -33 -16 -38 -63
-54 -28 -9 -78 -30 -109 -45 l-58 -29 25 57 c14 31 31 64 37 72 7 9 0 5 -15
-9 -24 -21 -30 -22 -38 -10 -7 12 3 26 43 64 56 51 40 49 -26 -3 -35 -28 -64
-33 -85 -15 -15 14 99 90 173 116 60 21 97 23 114 6z m-1948 -23 c52 -27 100
-111 100 -174 0 -22 -4 -19 -30 26 -41 72 -52 74 -16 2 26 -53 28 -62 16 -87
l-12 -27 -34 73 c-18 39 -35 72 -37 72 -3 0 6 -32 19 -71 29 -87 31 -119 6
-119 -21 0 -52 31 -75 75 -21 38 -21 20 -2 -35 17 -47 14 -60 -9 -41 -28 24
-50 103 -51 181 0 126 42 168 125 125z m-1088 -34 c94 -24 170 -62 192 -95 19
-30 16 -32 -24 -11 -41 21 -38 11 5 -15 70 -43 166 -190 124 -190 -7 0 -58 25
-115 56 -57 30 -104 53 -104 50 0 -2 29 -25 64 -50 35 -25 96 -80 134 -122
l71 -77 -24 -19 c-14 -11 -25 -26 -25 -34 0 -20 -2 -19 -102 32 -92 48 -174
104 -256 176 -26 22 -16 11 21 -26 77 -73 159 -134 260 -192 37 -21 67 -42 67
-46 0 -11 3 -11 -71 13 -121 40 -227 107 -316 202 -86 91 -134 183 -158 303
-6 30 -4 31 42 47 65 21 125 21 215 -2z m2426 -37 c9 -25 12 -72 10 -134 -5
-119 -28 -174 -96 -223 -86 -61 -92 -60 -34 5 20 24 29 37 20 29 -16 -12 -18
-11 -18 8 0 13 -6 21 -16 21 -17 0 -16 22 2 90 6 21 4 23 -7 13 -7 -7 -17 -13
-21 -13 -19 0 -5 32 38 87 l46 58 -56 -56 c-49 -50 -57 -55 -73 -44 -17 13
-17 15 0 48 31 58 106 136 140 146 45 13 50 10 65 -35z m-903 -25 c41 -36 65
-78 65 -111 -1 -22 -1 -22 -15 -4 -15 19 -15 19 -15 -5 -1 -19 -6 -14 -24 25
-32 65 -50 82 -41 39 9 -43 -11 -44 -28 -2 l-12 32 -20 -37 c-11 -20 -22 -36
-25 -36 -3 0 -14 13 -23 30 -20 33 -13 58 25 84 35 25 73 19 113 -15z m363
-11 c27 -30 42 -70 42 -117 0 -33 4 -39 35 -54 19 -9 41 -29 49 -46 14 -27 14
-30 -2 -36 -9 -3 -18 -1 -20 4 -6 18 -22 13 -22 -6 -1 -16 -2 -16 -15 2 -8 11
-26 32 -41 47 -20 19 -25 30 -18 40 6 7 7 29 4 48 l-6 35 -8 -37 -8 -38 -18
23 c-9 12 -21 33 -25 46 l-8 25 -12 -30 -13 -29 -2 35 -1 35 -15 -29 c-23 -41
-40 -19 -21 26 16 38 60 78 87 78 9 0 26 -10 38 -22z m1893 -14 c30 -9 71 -25
93 -36 37 -19 38 -21 32 -61 -15 -102 -134 -283 -221 -337 l-34 -21 -46 36
c-26 19 -51 35 -56 35 -6 0 -8 4 -4 9 3 6 -15 13 -40 17 -25 3 -47 9 -50 13
-2 4 21 22 51 41 66 40 80 57 27 34 -87 -38 -135 -54 -160 -54 -38 0 -26 9
120 85 70 37 126 70 122 73 -3 3 -76 -30 -163 -74 l-158 -79 33 44 c39 50 73
113 73 134 0 8 -9 22 -20 32 -11 10 -17 22 -14 27 3 4 2 7 -3 6 -4 -2 -10 2
-12 7 -6 13 70 51 139 69 75 20 223 20 291 0z m-1017 -20 c34 -13 14 -93 -43
-170 -16 -23 -28 -44 -25 -46 2 -3 -19 -29 -47 -59 l-51 -54 49 60 c42 51 44
56 17 38 -17 -12 -37 -29 -44 -38 -14 -17 -55 -20 -65 -5 -3 5 26 50 65 100
39 49 67 90 63 90 -5 0 -42 -36 -83 -81 -62 -67 -79 -81 -93 -73 -16 9 -15 14
12 55 43 64 130 152 171 172 38 18 50 20 74 11z m-1394 -39 c14 -17 6 -46 -20
-70 -19 -18 -20 -17 -20 5 l0 23 -25 -23 c-16 -15 -25 -19 -25 -10 0 8 -15 -3
-34 -23 -57 -62 -77 -43 -28 28 49 71 123 105 152 70z m1888 -37 c25 -13 50
-30 56 -40 24 -40 -81 -182 -186 -250 -48 -30 -52 -31 -94 -20 -24 7 -61 12
-81 12 l-37 0 35 36 34 37 -58 -38 c-31 -21 -60 -36 -63 -33 -5 5 100 101 171
156 26 21 23 20 -20 -4 -52 -28 -100 -64 -202 -149 -80 -67 -206 -158 -197
-142 4 6 31 41 59 77 29 36 65 83 81 105 l29 40 -43 -37 c-47 -43 -57 -47 -42
-19 9 18 55 64 150 151 35 32 35 32 3 11 -17 -12 -79 -64 -138 -117 -58 -53
-109 -94 -112 -91 -3 4 52 65 123 136 134 134 189 171 289 198 72 18 186 10
243 -19z m-2640 -46 c55 -40 65 -58 60 -107 -3 -25 -8 -49 -11 -52 -3 -3 -18
4 -34 14 -53 37 -58 37 -24 -2 22 -25 29 -41 22 -43 -7 -2 -18 1 -24 7 -15 15
-32 14 -19 -2 9 -10 -4 -13 -62 -14 -68 -2 -76 1 -99 25 -55 58 -76 161 -37
182 59 32 178 27 228 -8z m1127 -3 c37 -33 49 -68 18 -53 -10 5 -44 9 -75 8
-63 0 -80 15 -58 56 17 32 72 27 115 -11z m451 -7 c12 -17 25 -52 28 -77 8
-52 -8 -144 -30 -171 -14 -17 -14 -15 -9 26 l6 45 -25 -59 c-26 -62 -57 -106
-37 -53 6 16 11 48 11 72 0 35 -3 43 -15 39 -19 -8 -31 42 -18 75 27 68 27 67
5 41 l-21 -25 -1 23 c0 46 46 107 75 98 6 -1 20 -17 31 -34z m-680 16 c8 -13
-22 -38 -45 -38 -9 0 -23 5 -31 10 -13 9 -12 12 4 25 24 18 62 20 72 3z m-128
-40 c18 -18 15 -43 -8 -63 -19 -17 -20 -17 -21 1 0 15 -2 14 -11 -6 -9 -23
-11 -24 -17 -5 -8 19 -8 19 -19 0 -14 -26 -22 -17 -15 17 10 53 62 85 91 56z
m203 -19 c15 -30 1 -38 -53 -32 -50 6 -63 23 -30 42 30 18 70 13 83 -10z
m-702 -25 c26 -21 29 -29 20 -45 -10 -19 -11 -19 -43 6 -44 34 -50 32 -15 -6
16 -17 29 -39 29 -48 -1 -14 -2 -14 -14 1 -11 15 -13 12 -12 -25 1 -29 -3 -41
-11 -39 -17 3 -16 -21 2 -65 19 -45 19 -52 0 -27 -10 13 -14 15 -15 5 0 -21
-46 24 -81 78 -24 37 -29 56 -29 106 0 34 5 66 12 73 7 7 38 12 69 12 47 0 63
-5 88 -26z m1005 -5 c18 -14 26 -30 26 -52 0 -29 -1 -30 -15 -11 -14 18 -14
18 -15 -10 l0 -29 -19 24 c-60 78 -45 132 23 78z m-2139 -15 c45 -15 121 -71
111 -82 -3 -2 -39 8 -81 22 -96 32 -121 33 -39 2 85 -33 129 -57 225 -122 l84
-56 -45 7 c-25 4 -101 25 -169 46 -68 22 -125 38 -127 36 -2 -2 58 -29 134
-61 75 -32 139 -61 142 -63 12 -12 -76 12 -225 62 -176 59 -271 82 -170 41 50
-20 212 -91 305 -135 24 -11 24 -11 -5 -5 -16 4 -93 8 -170 9 -150 2 -165 6
-295 86 l-35 21 29 -24 c15 -12 55 -39 88 -60 32 -20 55 -38 51 -41 -27 -15
-113 -28 -130 -18 -59 31 -187 230 -168 261 11 18 122 70 183 85 73 19 238 13
307 -11z m1473 -18 c4 -21 -31 -62 -60 -69 -15 -4 -18 -2 -13 11 5 14 4 14
-13 -1 -18 -16 -42 -23 -42 -12 0 15 38 60 65 77 36 22 58 20 63 -6z m-149 -8
c5 -13 5 -25 1 -28 -4 -3 -17 -24 -29 -47 -26 -53 -35 -55 -28 -5 8 49 -7 25
-30 -48 l-17 -55 -6 45 -5 45 -12 -35 c-6 -19 -14 -53 -18 -75 -7 -38 -8 -39
-17 -15 -23 58 15 203 59 229 10 6 35 11 56 11 30 0 39 -5 46 -22z m609 1 c18
-28 12 -32 -42 -24 -42 7 -57 21 -39 38 15 16 69 7 81 -14z m120 -15 c25 -17
52 -64 52 -91 0 -14 -5 -11 -25 12 -23 29 -24 29 -18 5 6 -24 6 -24 -18 -9
-31 21 -54 61 -46 82 8 21 26 22 55 1z m238 -7 c21 -19 27 -34 31 -78 l5 -54
-22 43 c-12 23 -26 42 -31 42 -6 0 -5 -8 1 -19 5 -11 10 -39 10 -63 l0 -43
-15 29 c-9 16 -27 39 -40 52 -29 26 -32 60 -9 92 19 28 36 28 70 -1z m-585
-17 c17 -10 28 -40 14 -40 -14 0 -65 32 -65 40 0 13 26 13 51 0z m147 -15 c7
-6 -70 -45 -79 -40 -28 18 13 57 49 49 15 -4 28 -8 30 -9z m-219 -8 c14 -18 4
-27 -30 -27 -15 0 -40 -5 -55 -10 -38 -15 -44 -2 -11 26 31 26 78 32 96 11z
m1126 -9 c34 -16 39 -41 21 -125 -18 -89 -53 -157 -105 -208 -43 -41 -55 -38
-21 5 25 32 26 48 2 27 -18 -17 -42 -23 -42 -11 0 3 14 25 32 48 29 37 29 39
5 17 -15 -14 -28 -23 -30 -20 -40 54 -40 59 -12 110 14 27 24 49 22 49 -2 0
-19 -21 -37 -46 -28 -39 -34 -44 -42 -30 -14 25 8 81 43 111 17 14 26 25 21
25 -12 0 -83 -52 -101 -73 -29 -36 -30 -15 -2 27 58 85 172 128 246 94z m-817
-4 c12 -4 22 -10 22 -14 0 -11 -57 -21 -76 -13 -15 6 -15 7 2 20 20 15 21 15
52 7z m-500 -26 c7 -7 12 -18 12 -25 0 -15 -55 -73 -70 -73 -4 0 -22 -12 -39
-26 -25 -21 -31 -23 -31 -9 0 9 5 26 11 37 6 11 7 18 2 15 -13 -8 -73 -130
-73 -148 0 -9 -3 -10 -11 -2 -7 7 -7 23 1 54 25 91 78 161 136 179 41 12 48
12 62 -2z m357 -48 c-3 -6 -10 -10 -16 -10 -10 0 -12 33 -2 44 9 9 26 -22 18
-34z m-898 5 c38 -19 61 -41 94 -88 l43 -62 -49 39 c-76 60 -83 65 -66 44 9
-12 10 -18 2 -18 -6 0 18 -37 54 -82 96 -122 89 -124 -59 -13 -110 81 -175
118 -106 59 25 -21 68 -60 95 -87 l50 -48 -40 22 -40 22 44 -40 c107 -95 -29
-68 -148 30 -20 16 -9 3 25 -30 33 -33 85 -74 115 -91 l54 -32 -41 0 c-57 0
-171 59 -234 120 -57 56 -100 137 -100 191 0 62 49 87 176 88 67 1 89 -3 131
-24z m751 7 c2 -7 -7 -12 -22 -12 -27 0 -35 15 -13 23 17 7 30 3 35 -11z m242
4 c0 -18 -39 -31 -52 -18 -15 15 0 32 28 32 14 0 24 -6 24 -14z m152 -17 c23
-21 26 -27 11 -20 -12 6 -35 11 -52 11 -39 0 -61 9 -61 26 0 28 67 17 102 -17z
m-299 -21 c-10 -21 -12 -21 -18 -5 -10 25 2 54 17 39 8 -8 8 -18 1 -34z m-179
22 c-5 -5 -25 -13 -44 -16 -32 -7 -34 -6 -21 9 7 9 27 17 44 17 20 0 28 -3 21
-10z m2150 -11 c53 -19 106 -66 106 -93 0 -26 -64 -107 -118 -151 -107 -84
-232 -133 -362 -142 l-85 -5 40 31 c22 17 50 31 62 31 25 0 106 30 100 36 -2
3 -21 -3 -41 -11 -43 -18 -73 -15 -38 4 25 13 29 31 8 31 -12 0 -10 12 10 58
14 31 33 70 41 86 16 29 16 30 -22 63 l-38 33 44 19 c69 29 69 29 156 30 60 1
97 -5 137 -20z m-1490 -20 c35 -42 36 -72 1 -39 l-26 24 16 -37 c19 -46 19
-67 0 -41 -13 17 -14 16 -5 -13 12 -46 1 -41 -37 15 -31 45 -43 99 -26 115 16
16 53 5 77 -24z m-554 -10 c0 -12 -37 -12 -44 0 -7 11 14 20 32 13 6 -2 12 -8
12 -13z m274 15 c28 -11 17 -24 -19 -24 -33 0 -43 8 -28 23 8 9 27 9 47 1z
m-364 -19 c0 -17 -35 -33 -87 -42 -42 -7 -46 20 -5 41 37 21 92 21 92 1z m216
-4 c13 12 24 18 24 12 0 -5 -11 -20 -24 -32 -21 -19 -24 -20 -30 -6 -3 9 -5
24 -5 33 1 9 4 6 6 -6 l5 -24 24 23z m270 -16 c44 -39 31 -45 -33 -15 -24 10
-43 26 -43 35 0 26 35 17 76 -20z m1220 4 c22 -10 51 -31 65 -45 l23 -25 -34
-65 c-44 -81 -116 -155 -200 -204 -68 -39 -248 -115 -256 -107 -8 8 64 62 150
111 47 27 108 70 134 95 27 25 37 37 23 25 -65 -54 -200 -134 -224 -134 -2 0
-2 12 1 26 3 15 -1 29 -8 34 -9 6 0 16 29 35 56 37 52 42 -8 10 -27 -15 -55
-24 -61 -20 -17 10 31 57 118 116 41 27 71 49 67 49 -4 0 -59 -25 -121 -56
-63 -31 -117 -54 -121 -51 -3 4 7 23 23 44 15 21 22 33 14 27 -81 -60 -130
-93 -130 -86 0 19 169 171 220 198 108 55 211 63 296 23z m-1546 -24 c0 -14
-4 -25 -10 -25 -11 0 -14 33 -3 43 11 11 13 8 13 -18z m130 10 c6 -8 9 -19 5
-25 -4 -6 1 -17 11 -25 28 -20 13 -26 -29 -13 -41 13 -49 34 -14 41 16 3 14 5
-9 6 -23 1 -36 -5 -47 -21 -8 -13 -18 -20 -22 -17 -9 10 57 69 76 69 9 0 22
-7 29 -15z m-227 -2 c4 -3 2 -12 -4 -20 -13 -15 -55 -18 -64 -4 -11 19 52 41
68 24z m320 -2 c22 -9 43 -38 34 -48 -9 -8 -77 29 -77 42 0 17 9 19 43 6z
m-1003 -26 c13 -14 21 -25 18 -25 -2 0 -15 11 -28 25 -13 14 -21 25 -18 25 2
0 15 -11 28 -25z m460 6 c0 -11 -18 -41 -41 -68 -58 -68 -63 -72 -45 -36 22
43 20 50 -6 27 -20 -18 -21 -18 -15 -1 4 10 7 22 7 27 0 5 14 22 31 39 35 36
69 41 69 12z m290 9 c0 -5 -4 -10 -9 -10 -6 0 -13 5 -16 10 -3 6 1 10 9 10 9
0 16 -4 16 -10z m-175 -20 c3 -5 -3 -26 -14 -47 -10 -21 -24 -57 -30 -80 -6
-22 -23 -67 -38 -100 -26 -57 -27 -58 -33 -28 -6 29 -7 29 -22 -20 -15 -48
-16 -49 -23 -22 -4 15 -5 52 -3 81 4 45 2 52 -9 41 -7 -8 -13 -18 -13 -24 0
-5 -5 -13 -11 -17 -8 -4 -9 4 -4 27 17 78 77 154 145 183 42 18 47 19 55 6z
m-994 -21 c37 -20 18 -27 -72 -28 -50 0 -94 -2 -97 -6 -3 -3 26 -5 64 -5 95 0
137 -14 168 -55 14 -18 26 -35 26 -37 0 -2 -45 5 -99 16 -80 15 -110 17 -153
9 l-53 -10 64 -2 c108 -2 285 -60 250 -82 -8 -5 -25 -9 -39 -10 -16 0 3 -10
50 -26 62 -22 71 -27 52 -34 -12 -5 -22 -10 -22 -13 0 -2 32 -10 71 -16 39 -7
68 -14 66 -17 -3 -2 -47 3 -98 11 -159 27 -302 46 -306 42 -3 -3 60 -21 157
-44 l35 -9 -32 -17 c-30 -15 -38 -15 -99 -1 -36 8 -75 20 -86 26 -14 7 -18 7
-14 0 4 -5 38 -20 76 -32 65 -21 68 -24 49 -37 -44 -31 -168 18 -255 100 -61
57 -112 135 -98 147 33 29 134 101 161 115 69 35 183 43 234 15z m1587 -22
c34 -32 47 -55 58 -105 6 -25 4 -24 -20 11 -33 46 -39 47 -20 2 23 -55 16 -64
-12 -15 -14 25 -44 64 -66 87 -44 45 -44 69 1 58 14 -3 41 -21 59 -38z m-448
23 c0 -12 -46 -43 -58 -38 -6 2 -6 13 -1 26 6 15 17 22 34 22 14 0 25 -4 25
-10z m649 0 c24 -12 47 -72 55 -135 5 -42 4 -45 -4 -19 -6 17 -16 37 -24 43
-12 10 -12 6 0 -26 17 -49 17 -92 -1 -123 -14 -25 -14 -25 -15 15 l-2 40 -16
-46 c-9 -25 -24 -56 -32 -68 -14 -21 -15 -15 -13 66 l2 88 -13 -45 c-14 -44
-14 -44 -15 65 -1 140 19 177 78 145z m201 -15 c34 -36 40 -125 12 -188 -25
-57 -104 -142 -154 -168 -49 -25 -62 -24 -20 1 39 24 112 133 112 168 l0 24
-20 -23 c-23 -29 -25 -16 -5 41 15 43 15 43 -5 25 -20 -18 -20 -18 -20 11 1
16 7 46 15 67 l13 39 -24 -23 c-34 -32 -40 -18 -9 20 33 39 72 41 105 6z
m-563 -15 c4 -16 9 -18 25 -9 29 16 61 -2 98 -52 30 -42 38 -81 20 -109 -11
-18 -16 -13 -35 36 -9 21 -13 28 -11 14 4 -20 -6 -14 -52 37 -31 33 -67 66
-79 72 -31 16 -29 31 3 31 17 0 28 -6 31 -20z m-792 -12 c27 -21 85 -129 85
-157 0 -12 -40 28 -87 88 -8 9 -6 -4 4 -31 18 -51 11 -75 -14 -43 -14 19 -14
17 -8 -24 5 -33 4 -42 -5 -36 -19 11 -37 64 -45 126 -12 97 12 123 70 77z
m415 8 c0 -15 -55 -66 -71 -66 -10 0 6 47 23 67 14 17 48 17 48 -1z m305 -26
c13 -14 15 -24 8 -31 -8 -8 -15 -4 -27 12 -28 41 -14 55 19 19z m-1783 -5 c16
-6 14 -11 -13 -36 -24 -23 -30 -34 -25 -54 6 -23 4 -24 -26 -20 -26 4 -29 3
-13 -4 11 -5 32 -10 46 -10 24 -1 32 -11 58 -65 2 -5 -35 -7 -90 -3 -109 6
-81 -8 43 -22 68 -8 81 -13 111 -42 l35 -34 -117 6 c-123 7 -232 26 -340 59
-36 11 -67 18 -69 16 -10 -11 245 -89 401 -123 68 -14 36 -28 -63 -27 -73 1
-86 0 -55 -7 22 -4 84 -8 138 -8 63 -1 96 -5 92 -11 -3 -5 -34 -10 -68 -11
-87 -1 -131 -16 -57 -19 30 -1 69 -6 85 -9 61 -15 -102 -24 -207 -12 -223 25
-466 147 -488 244 -7 35 -6 39 28 67 115 95 276 142 462 136 63 -2 123 -7 132
-11z m1558 1 c0 -8 -8 -24 -18 -36 -16 -19 -20 -20 -25 -8 -6 17 18 58 34 58
5 0 9 -6 9 -14z m270 -6 c9 -16 8 -18 -5 -14 -8 4 -15 12 -15 20 0 20 7 17 20
-6z m-132 -47 c23 -46 38 -133 23 -133 -6 0 -11 -7 -11 -15 0 -29 -18 -15 -28
23 l-10 37 -1 -44 c-1 -42 -2 -43 -16 -25 -8 11 -15 14 -15 7 0 -7 -4 -13 -10
-13 -6 0 -10 29 -10 68 0 58 4 71 27 100 15 17 28 32 30 32 1 0 11 -17 21 -37z
m91 -44 c46 -69 71 -142 71 -207 l0 -45 -35 71 c-25 49 -40 69 -50 66 -10 -4
-16 5 -20 33 -3 21 -13 58 -21 83 -30 89 -29 83 -6 71 11 -6 39 -38 61 -72z
m-188 -50 c-8 -103 -21 -149 -41 -149 -6 0 -10 10 -10 23 0 40 -14 40 -26 0
-18 -57 -17 -10 2 88 16 86 25 111 52 142 26 30 32 6 23 -104z m-97 82 c17
-19 17 -25 -9 -138 -37 -162 -35 -158 -46 -142 -5 8 -9 25 -9 39 -1 23 -2 22
-17 -10 l-17 -35 -4 33 c-3 27 7 70 34 152 4 11 1 10 -9 -3 -8 -9 -23 -43 -33
-75 -13 -41 -19 -51 -22 -34 -5 31 -22 28 -22 -5 -1 -21 -3 -24 -9 -13 -23 38
34 189 85 229 33 26 56 27 78 2z m367 9 c19 -11 51 -65 63 -110 6 -21 4 -20
-13 8 -27 42 -34 41 -15 -3 17 -42 18 -59 2 -49 -8 5 -9 -2 -5 -27 5 -23 -11
0 -48 70 -30 57 -52 107 -49 112 7 12 41 11 65 -1z m1987 -45 c91 -31 196 -99
247 -161 36 -44 36 -45 20 -70 -52 -79 -164 -171 -266 -218 l-54 -25 -25 23
c-14 13 -51 42 -83 64 l-59 41 34 5 c18 3 44 7 58 9 14 3 -9 5 -50 6 -41 2
-92 8 -114 14 -37 12 -33 13 138 46 98 18 175 35 173 37 -2 3 -92 -5 -200 -16
-108 -11 -229 -20 -269 -20 l-73 1 57 24 c31 14 99 36 150 49 113 30 77 34
-57 6 -113 -23 -189 -26 -183 -8 3 7 54 38 115 68 61 31 141 79 179 108 68 51
70 52 127 47 32 -3 93 -16 135 -30z m-1058 -43 c21 -17 22 -21 10 -57 -13 -39
-78 -118 -113 -136 -16 -9 -17 -8 -8 10 16 29 14 37 -20 76 -19 21 -46 39 -71
46 -37 9 -39 12 -22 23 34 23 128 55 165 55 21 1 46 -7 59 -17z m1310 -18 c0
-2 -9 0 -20 6 -11 6 -20 13 -20 16 0 2 9 0 20 -6 11 -6 20 -13 20 -16z m-2975
-10 c13 -8 31 -26 40 -40 22 -33 34 -107 22 -129 -8 -16 -13 -13 -33 21 -27
45 -33 22 -8 -29 l15 -32 -30 35 c-17 19 -35 49 -41 65 -9 27 -10 26 -6 -14 4
-40 3 -42 -11 -28 -20 20 -28 103 -14 140 12 31 31 34 66 11z m928 -8 c31 -29
51 -96 41 -139 l-7 -32 -11 40 -12 40 0 -57 c0 -55 -12 -87 -22 -59 -2 8 -12
-3 -22 -25 l-18 -39 -2 85 c-2 86 -16 82 -19 -5 -2 -37 -3 -39 -16 -21 -15 19
-15 19 -15 -4 0 -23 0 -23 -15 -4 -22 29 -18 67 15 154 38 97 56 109 103 66z
m-1113 -32 c50 -20 51 -34 3 -35 l-38 -1 48 -23 c68 -32 69 -38 7 -31 l-55 7
58 -32 c31 -18 57 -36 57 -40 0 -5 -26 -9 -57 -9 -55 -1 -57 -1 -33 -15 14 -8
33 -14 43 -15 10 0 15 -4 12 -10 -3 -5 -20 -7 -38 -4 -30 5 -31 5 -12 -10 23
-19 78 -36 120 -37 26 0 27 -2 10 -9 -96 -41 -253 59 -304 193 -10 25 -8 29
27 51 62 39 94 43 152 20z m1682 -26 c49 -24 26 -91 -58 -168 -50 -46 -99 -70
-143 -70 -42 0 -47 16 -9 29 18 6 44 20 58 31 l25 20 -37 -15 c-47 -19 -67
-20 -50 -3 21 21 14 38 -15 38 -25 0 -22 3 25 30 55 32 66 45 30 35 -20 -5
-19 -3 7 20 29 26 28 26 -35 -5 l-65 -32 35 37 c19 20 44 42 55 48 46 25 133
28 177 5z m-853 -24 c25 -31 28 -91 6 -120 -14 -18 -14 -18 -16 11 l-1 30 -8
-30 c-8 -34 -10 -30 -35 58 -9 32 -13 62 -10 67 11 18 43 10 64 -16z m-79 -39
c18 -22 24 -125 9 -160 -7 -18 -13 -24 -15 -15 -1 8 -6 33 -9 55 l-7 40 -21
-63 c-21 -67 -29 -67 -42 3 l-8 40 -11 -45 -10 -45 -6 40 -6 40 -8 -30 c-4
-16 -9 -34 -10 -40 -2 -5 -8 1 -15 14 -18 33 3 103 44 147 25 26 40 34 67 34
20 0 41 -7 48 -15z m-1030 -18 l35 -15 -70 -2 c-78 -2 -69 -10 30 -29 32 -6
65 -17 73 -24 11 -12 1 -15 -65 -21 -124 -10 -141 -20 -43 -26 71 -4 85 -8 82
-21 -3 -18 34 -29 94 -29 18 0 35 -4 38 -9 7 -10 -62 -20 -153 -23 -42 -1 -52
-3 -28 -5 l38 -4 -37 -25 c-45 -31 -81 -27 -167 19 -86 45 -130 114 -99 158
24 35 53 57 87 69 41 13 142 6 185 -13z m649 -21 c15 -16 25 -40 27 -70 2 -25
6 -67 8 -93 l4 -48 -19 24 c-10 12 -24 42 -31 64 l-13 42 -6 -40 -5 -40 -17
37 c-9 21 -17 50 -18 65 -1 27 -1 27 -13 -7 -12 -33 -13 -33 -19 -10 -7 27 0
68 16 88 16 20 62 14 86 -12z m1862 -6 c35 -11 77 -30 92 -43 28 -22 28 -24
14 -52 -9 -17 -24 -50 -33 -75 -27 -65 -113 -152 -182 -183 -67 -30 -132 -44
-132 -29 0 6 -3 17 -6 25 -4 10 10 19 48 32 29 9 60 21 68 27 17 11 21 12 -73
-18 l-59 -18 -18 24 c-10 13 -16 28 -14 32 3 4 -1 8 -9 8 -17 0 -67 38 -67 50
0 5 33 12 73 17 l72 8 -95 5 -95 5 88 30 c96 33 100 42 11 26 -32 -6 -60 -9
-62 -6 -5 4 68 39 118 56 32 11 -52 1 -133 -16 -65 -13 -64 -7 8 28 82 41 170
60 260 55 44 -3 71 -1 60 3 -11 4 -36 8 -55 8 -26 1 -31 4 -20 11 23 15 72 12
141 -10z m-2851 -66 c0 -15 10 -42 21 -61 12 -19 20 -35 18 -37 -2 -1 -30 -10
-62 -20 -32 -10 -57 -19 -55 -21 2 -3 34 1 71 7 65 11 67 10 92 -14 l25 -25
-60 -23 c-33 -13 -59 -24 -57 -27 2 -2 37 4 76 14 51 12 74 14 79 6 4 -6 26
-16 49 -23 42 -13 61 -41 39 -59 -6 -5 -47 -14 -91 -20 -44 -6 -93 -13 -110
-15 -16 -2 22 -3 87 -3 64 1 114 -1 112 -5 -10 -16 -93 -31 -174 -31 -97 0
-170 21 -244 72 -46 32 -106 108 -106 134 0 19 76 93 128 124 44 26 113 51
145 52 12 1 17 -7 17 -25z m1126 18 c10 -7 34 -45 34 -55 0 -5 -61 -20 -72
-19 -4 1 -10 -8 -13 -19 -7 -20 -7 -20 -21 -2 -17 22 -18 75 -2 91 13 13 57
16 74 4z m464 -17 c16 -19 5 -77 -18 -98 -16 -15 -17 -13 -15 31 l3 47 -21
-52 c-24 -58 -44 -61 -35 -4 l6 36 -15 -40 c-22 -57 -35 -66 -35 -24 l-1 34
-19 -35 c-17 -30 -19 -32 -20 -12 0 31 35 97 62 116 28 20 92 21 108 1z m387
-14 c54 -25 77 -60 69 -104 -8 -45 -57 -119 -96 -147 -37 -26 -109 -37 -136
-21 -16 9 -14 10 18 11 49 0 98 50 51 50 -10 0 -36 9 -58 19 l-40 19 55 1 55
1 -43 20 c-52 24 -47 40 11 34 l42 -4 -30 14 c-16 9 -48 16 -70 16 l-40 1 50
19 c60 24 109 25 150 5 l30 -15 -30 25 c-16 14 -35 25 -41 25 -6 0 -22 9 -36
19 -13 11 -40 21 -59 24 -19 2 -2 4 36 5 50 1 82 -4 112 -17z m1232 -50 c101
-31 188 -98 264 -202 l27 -35 -48 -50 c-135 -140 -199 -181 -357 -229 -161
-49 -279 -52 -296 -7 -8 22 -7 22 79 22 55 0 125 9 192 24 109 25 265 80 276
97 3 6 -7 4 -24 -5 -81 -42 -333 -96 -447 -96 -72 0 -92 8 -113 45 l-20 32 70
-5 c65 -4 70 -3 67 14 -4 18 -61 53 -111 68 -31 10 -22 13 107 35 l110 19 -90
2 c-81 1 -88 2 -71 15 33 25 170 74 237 84 l64 10 -85 -4 c-47 -2 -93 -7 -102
-10 -11 -4 -18 -3 -18 4 0 17 74 50 132 60 32 5 41 9 23 9 -16 1 -51 -3 -77
-7 -54 -9 -57 -5 -28 32 11 14 20 37 20 51 0 14 8 30 18 35 28 17 136 12 201
-8z m-2379 -26 c0 -2 -16 -13 -36 -23 l-36 -18 62 4 c38 3 66 0 73 -7 8 -8 -2
-11 -38 -12 -65 -1 -109 -17 -50 -18 94 -2 151 -24 88 -34 -22 -3 -19 -4 12
-6 74 -4 81 -14 28 -40 -41 -20 -45 -25 -28 -31 18 -7 16 -10 -17 -24 -21 -9
-45 -16 -55 -16 -33 0 8 -18 57 -25 34 -5 62 -1 104 14 49 17 56 18 44 4 -37
-45 -139 -65 -209 -42 -72 24 -149 124 -149 193 0 49 45 86 106 86 24 0 44 -2
44 -5z m358 -19 c16 -14 39 -45 52 -70 23 -43 24 -46 8 -78 -14 -28 -17 -29
-17 -11 -1 31 -21 40 -21 9 0 -13 -3 -32 -6 -40 -6 -15 -8 -15 -20 1 -13 17
-13 17 -14 1 0 -10 -4 -18 -10 -18 -5 0 -10 21 -11 48 l-1 47 -11 -32 c-7 -17
-15 -35 -19 -38 -11 -11 -21 40 -16 80 5 47 -14 40 -28 -10 -8 -30 -12 -35
-17 -21 -18 46 3 111 45 140 31 22 52 20 86 -8z m-1803 -11 c-5 -2 -49 -15
-97 -29 -48 -15 -90 -31 -93 -36 -4 -6 16 -1 44 10 61 24 245 62 278 58 21 -3
13 -11 -58 -64 -65 -49 -92 -63 -133 -70 l-51 -8 40 -5 40 -6 -35 -21 c-19
-12 -65 -27 -102 -33 -37 -6 -78 -16 -90 -21 -23 -9 -4 -9 102 5 22 3 40 2 40
-2 -1 -5 -22 -31 -48 -60 l-47 -52 -95 -9 -95 -8 83 -8 c45 -5 82 -10 82 -12
0 -3 -70 -125 -76 -132 -4 -6 -93 36 -124 58 -17 12 -42 37 -56 55 l-26 35 29
37 c16 21 50 73 76 115 64 104 138 157 267 194 37 10 176 19 145 9z m1228 -37
c33 -17 16 -28 -45 -29 -35 0 -79 -6 -98 -13 -33 -13 -31 -13 40 -10 74 4 75
4 35 -10 l-40 -13 70 -4 70 -4 -53 -28 c-60 -31 -64 -42 -11 -27 51 15 57 12
24 -10 l-30 -20 26 0 c42 0 44 -28 4 -51 -19 -12 -35 -22 -35 -24 0 -3 110 21
140 30 8 3 2 -6 -13 -19 -38 -31 -124 -50 -190 -41 -62 9 -106 26 -168 66
l-46 29 8 45 c5 25 16 56 25 70 19 29 75 61 131 74 41 10 127 4 156 -11z
m1114 -13 l36 -36 -5 -77 c-3 -49 -11 -90 -24 -112 l-19 -35 -6 45 c-3 25 -7
36 -8 25 l-2 -20 -10 20 c-6 15 -8 9 -4 -20 7 -51 -9 -81 -23 -45 -5 14 -12
32 -15 40 -3 8 -6 -9 -6 -37 -1 -29 -5 -53 -10 -53 -5 0 -16 17 -25 38 l-16
37 3 -37 c3 -33 1 -36 -13 -24 -8 7 -21 11 -27 9 -21 -7 -16 64 9 140 21 65
24 68 50 65 23 -4 29 0 37 24 11 32 25 36 41 11 9 -15 10 -14 4 7 -3 14 -12
35 -20 48 -24 37 12 28 53 -13z m698 0 c42 -22 68 -44 92 -79 48 -69 42 -84
-42 -121 -63 -27 -80 -30 -175 -30 -92 0 -112 4 -160 27 -30 14 -71 39 -90 56
l-35 30 55 -18 c49 -16 189 -39 150 -24 -8 3 -34 12 -57 20 -47 17 -55 31 -20
36 15 2 21 9 19 21 -3 16 1 18 25 13 56 -12 176 -26 181 -22 2 3 -16 10 -39
16 -24 6 -75 23 -114 39 -38 16 -77 32 -85 35 -8 3 3 4 25 1 136 -15 141 -16
115 -4 -92 41 -92 39 6 36 78 -2 98 -6 149 -32z m-2751 -50 c17 -32 21 -47 13
-50 -67 -23 -128 -48 -125 -50 2 -2 32 3 68 11 94 20 108 18 151 -20 l38 -35
-92 -30 c-51 -17 -101 -31 -112 -32 -11 0 -14 -3 -7 -6 7 -2 57 5 112 17 156
34 156 14 0 -31 -60 -18 -61 -19 -22 -16 23 1 42 2 42 1 0 0 -23 -15 -51 -34
-46 -29 -55 -32 -101 -26 -61 8 -138 37 -185 68 -28 19 -33 28 -29 50 3 16 0
31 -10 39 -31 26 106 135 214 170 31 10 60 18 64 18 3 1 18 -19 32 -44z m1817
6 c30 -30 38 -72 20 -100 -7 -11 -13 -3 -22 30 -11 36 -13 40 -16 19 -2 -14
-8 -43 -14 -65 -11 -38 -12 -39 -20 -16 -5 13 -7 33 -4 45 3 12 -5 -1 -17 -27
-24 -50 -38 -53 -38 -8 l-1 26 -15 -27 c-20 -38 -27 -35 -22 12 2 22 1 40 -1
40 -3 0 -15 -10 -28 -22 -22 -21 -23 -21 -23 -2 0 29 27 63 78 95 58 37 86 37
123 0z m2243 -45 c55 -27 166 -134 166 -161 0 -35 -114 -101 -225 -130 -87
-22 -295 -19 -295 4 0 4 14 17 31 30 23 17 60 26 162 40 l132 19 -110 3 c-103
4 -108 5 -78 18 18 7 31 17 28 21 -8 13 33 23 130 29 l90 7 -80 7 c-44 5 -101
4 -127 -1 -53 -10 -54 -4 -5 37 22 19 27 29 22 48 -6 24 -4 25 37 19 39 -5 38
-4 -11 9 -89 22 -89 38 1 33 56 -4 91 -12 132 -32z m-1761 -164 c63 -48 132
-128 153 -179 21 -48 17 -112 -10 -169 -25 -54 -39 -64 -88 -64 -100 0 -182
67 -247 202 -48 99 -51 112 -14 66 38 -47 106 -118 113 -118 4 0 -6 26 -21 58
-16 31 -29 62 -29 68 0 6 14 14 31 18 36 7 75 -19 141 -93 33 -37 36 -39 17
-11 -12 19 -38 53 -56 74 -18 22 -33 44 -33 50 0 6 -26 37 -57 69 l-58 59 90
-57 c50 -32 101 -67 114 -79 l25 -21 -21 30 c-12 17 -33 41 -48 55 -37 34 -94
106 -75 95 8 -5 41 -28 73 -53z m-736 -76 c-28 -60 -96 -140 -138 -162 -16 -8
-48 -14 -73 -14 -56 0 -70 21 -64 95 5 62 28 98 94 144 38 27 44 29 28 10 -12
-13 -30 -37 -40 -54 l-18 -30 24 20 c14 10 42 35 64 55 l38 35 -48 -90 -47
-90 53 55 c41 42 55 51 58 38 2 -9 -2 -27 -9 -40 l-12 -23 26 23 c14 13 38 51
53 85 28 60 29 61 32 29 2 -19 -7 -54 -21 -86z m-966 77 c5 -14 8 -31 5 -37
-4 -10 -88 -46 -274 -117 -46 -17 -82 -33 -80 -35 5 -4 127 34 265 84 l111 41
11 -31 c10 -28 8 -35 -16 -60 -31 -32 -28 -43 7 -25 46 23 150 66 150 62 0 -9
-129 -95 -187 -124 -69 -34 -85 -50 -26 -26 49 21 53 13 4 -10 -22 -9 -45 -14
-52 -10 -7 5 -10 4 -6 -2 4 -6 -36 -25 -101 -47 -73 -25 -93 -35 -62 -30 57 8
193 50 245 76 l40 20 -30 -26 c-50 -43 -185 -105 -265 -122 -125 -26 -240 -5
-348 66 -73 46 -76 61 -33 135 71 123 212 198 431 228 52 8 119 14 148 15 48
2 53 0 63 -25z m456 -28 c-37 -25 -67 -48 -67 -50 0 -3 26 7 58 21 31 14 63
28 70 31 7 3 12 -3 12 -14 0 -21 -37 -60 -90 -93 -19 -12 -27 -19 -17 -16 10
3 22 6 27 6 4 0 36 21 71 46 52 38 59 41 35 15 -31 -32 -26 -41 8 -16 26 20
46 19 46 -1 0 -11 6 -15 20 -11 18 5 18 3 4 -19 -21 -31 -101 -80 -155 -94
-48 -13 -133 -5 -166 16 -19 12 -23 24 -23 64 0 67 25 92 125 129 112 40 120
38 42 -14z m-1413 13 c8 -12 13 -24 11 -28 -2 -4 22 -22 54 -41 l59 -34 -32
-18 c-25 -14 -26 -16 -6 -10 34 10 75 8 136 -8 l51 -14 -31 -65 -31 -65 -65
-6 c-47 -4 -54 -6 -25 -7 62 -3 83 -12 89 -37 4 -16 16 -26 38 -30 18 -4 38
-11 44 -16 6 -5 35 -22 63 -38 l52 -28 -50 -37 c-28 -21 -51 -40 -51 -42 0 -6
12 1 69 39 46 32 42 32 166 2 6 -1 -30 -23 -80 -48 -49 -25 -86 -46 -82 -46 4
-1 58 19 118 45 167 68 164 49 -6 -41 -27 -14 -39 -23 -25 -19 14 3 61 25 106
48 68 35 80 38 81 24 1 -10 -4 -21 -10 -25 -7 -5 -1 -10 17 -13 l29 -5 -41
-29 c-73 -50 -203 -88 -320 -94 -93 -4 -111 -2 -187 23 -77 26 -85 31 -85 54
0 43 46 128 101 186 l52 55 -46 0 c-63 0 -183 24 -238 48 -60 26 -119 78 -119
106 0 46 136 236 169 236 6 0 17 -10 25 -22z m2137 -35 c25 -58 22 -137 -6
-174 -34 -45 -134 -118 -172 -125 -32 -6 -40 -3 -60 20 -31 36 -31 106 0 160
25 45 41 48 45 10 3 -24 4 -25 17 -7 13 16 14 12 15 -37 l1 -55 14 32 c7 18
17 53 20 78 8 50 25 71 25 31 0 -53 29 -21 31 32 0 24 1 25 9 7 5 -11 9 -38
10 -60 l1 -40 16 45 c9 26 13 62 10 87 -2 24 -3 43 0 43 2 0 13 -21 24 -47z
m1146 12 c83 -35 153 -118 153 -181 0 -28 -5 -34 -37 -46 -24 -8 -78 -12 -143
-12 -160 2 -296 45 -394 123 -45 36 -41 39 15 10 23 -11 43 -18 45 -16 3 2 -7
18 -21 35 -14 16 -25 33 -25 36 0 3 41 -14 91 -40 50 -25 93 -43 96 -41 2 3
-5 8 -16 12 -11 3 -45 26 -77 50 l-57 44 54 -5 c84 -9 227 -34 255 -44 33 -13
41 -13 28 0 -6 6 -53 26 -105 45 -58 21 -84 34 -69 35 14 1 41 7 60 14 37 14
83 8 147 -19z m-910 -293 c54 -97 55 -79 3 45 -22 53 -39 98 -37 100 2 1 23
-29 48 -67 64 -102 72 -111 49 -56 -11 27 -19 51 -16 53 8 9 74 -58 90 -91 20
-43 20 -98 0 -139 -37 -72 -56 -79 -139 -51 -60 21 -115 76 -153 151 -35 68
-46 114 -37 144 6 19 12 12 40 -47 40 -85 75 -133 46 -64 -17 42 -34 110 -27
110 1 0 17 -22 35 -50 18 -27 34 -50 36 -50 2 0 -7 35 -21 78 -13 42 -24 81
-24 86 0 18 65 -74 107 -152z m1433 90 c92 -50 214 -176 264 -273 23 -43 37
-82 33 -91 -9 -26 -147 -88 -221 -101 -66 -11 -69 -11 -87 12 -33 40 -25 51
34 46 l52 -4 -56 11 -56 11 -17 56 c-10 31 -33 82 -52 114 -39 67 -47 66 99
12 48 -18 87 -31 87 -29 0 7 -135 71 -195 93 -33 13 -80 40 -105 61 l-44 39
69 -20 c39 -12 98 -34 133 -50 34 -15 62 -26 62 -25 0 2 -37 28 -81 57 l-82
53 29 13 c16 7 36 13 44 13 8 1 2 6 -13 12 -23 8 -26 13 -16 24 15 18 35 12
119 -34z m-2679 -8 c-17 -19 -28 -40 -25 -46 4 -6 3 -8 -3 -5 -6 4 -19 -3 -29
-16 -11 -12 -12 -17 -4 -11 25 17 55 11 55 -11 0 -12 -24 -38 -64 -70 -36 -27
-83 -67 -105 -88 -37 -34 -31 -32 49 20 119 79 123 81 107 61 -22 -28 -35
-126 -22 -176 l11 -45 -52 -46 c-99 -86 -99 -86 -64 -66 17 10 48 32 70 50 56
44 64 48 78 37 7 -6 23 -12 37 -14 24 -4 22 -8 -41 -69 -114 -112 -228 -152
-364 -129 -96 16 -110 27 -109 79 3 96 126 282 267 399 73 61 229 181 236 182
1 0 -11 -16 -28 -36z m378 -66 c-18 -24 -57 -70 -88 -102 -39 -41 -46 -53 -25
-38 17 12 59 51 93 88 50 53 59 60 46 33 -10 -19 -24 -42 -33 -51 -33 -39 5
-15 70 43 38 34 71 59 74 57 2 -3 -15 -34 -37 -69 -91 -141 -245 -249 -355
-249 -29 0 -65 5 -80 10 -26 10 -27 12 -22 78 6 78 31 142 78 195 33 38 57 49
46 21 -4 -12 -1 -14 14 -9 23 7 60 -10 60 -28 0 -7 -12 -30 -27 -52 l-27 -40
42 37 c57 51 159 111 200 117 2 1 -11 -18 -29 -41z m1463 -46 c66 -70 92 -125
92 -192 -1 -76 -19 -109 -78 -138 -137 -68 -313 -16 -397 116 -33 53 -34 78
-3 99 20 13 27 10 95 -47 85 -71 141 -106 184 -114 24 -5 23 -4 -8 9 -21 8
-56 27 -78 43 -47 35 -137 135 -99 111 14 -9 43 -22 65 -29 22 -7 50 -20 63
-28 l23 -15 -17 30 c-17 29 -17 31 4 53 12 13 22 31 22 39 0 9 6 36 14 60 l13
45 54 -50 c43 -40 50 -43 35 -19 -10 17 -35 50 -55 75 l-36 45 30 -22 c17 -12
51 -43 77 -71z m549 21 c60 -40 137 -138 181 -229 50 -107 49 -114 -5 -114
-97 0 -250 68 -341 151 -31 28 -55 54 -52 56 3 3 39 -14 80 -37 42 -23 76 -39
76 -36 0 10 -150 87 -160 81 -5 -3 -41 19 -79 49 -103 82 -104 91 -4 56 67
-23 74 -24 51 -6 -16 11 -8 14 55 19 39 4 90 13 112 21 22 8 41 15 43 15 1 1
21 -11 43 -26z m-1421 -116 c10 -40 18 -61 19 -48 1 17 5 22 17 17 9 -3 26 -9
38 -12 13 -3 30 -21 40 -41 20 -43 33 -37 17 8 -6 18 -11 36 -11 42 0 20 64
-79 76 -118 l13 -40 0 37 1 37 36 -21 c35 -20 36 -23 30 -65 -7 -50 -45 -130
-75 -157 -63 -57 -179 76 -216 249 -13 64 -20 227 -8 197 3 -7 13 -46 23 -85z
m-446 61 c-4 -7 -16 -26 -27 -43 l-20 -30 29 26 c24 22 33 25 56 17 l28 -10
-21 -40 c-12 -23 -42 -64 -67 -91 -46 -50 -46 -50 -9 -23 38 29 116 127 143
179 20 38 57 34 64 -6 l5 -28 18 30 c10 17 22 31 28 31 17 0 9 -35 -25 -107
-63 -130 -155 -207 -252 -208 -59 0 -88 19 -110 72 -28 65 -21 82 68 165 78
72 109 94 92 66z m2459 -32 c26 -19 67 -74 67 -90 0 -3 -15 -6 -34 -6 -32 0
-37 5 -70 64 -20 35 -36 67 -36 70 0 8 36 -11 73 -38z m-794 -129 c129 -82
225 -125 301 -138 101 -16 112 -19 108 -31 -2 -6 -19 -17 -38 -23 -18 -6 -37
-18 -41 -26 -3 -8 -16 -35 -27 -61 -30 -67 -63 -82 -167 -75 -69 4 -75 3 -47
-7 18 -6 30 -15 25 -19 -4 -5 1 -5 11 -1 15 6 17 4 11 -6 -5 -8 -4 -11 3 -6 6
4 27 -4 47 -16 43 -28 58 -70 53 -158 -3 -60 -5 -66 -31 -78 -44 -21 -195 -37
-252 -26 l-49 9 -11 55 c-12 60 -55 193 -60 188 -2 -2 3 -32 10 -68 22 -102
28 -221 13 -249 -40 -76 -208 -24 -327 102 -64 67 -78 91 -111 199 -36 115
-37 127 -10 103 11 -10 20 -14 20 -9 0 5 31 -38 68 -96 38 -58 77 -112 87
-120 10 -8 1 8 -21 37 -22 29 -63 98 -92 154 -48 92 -51 100 -30 94 13 -4 23
-8 24 -9 82 -123 135 -193 180 -241 31 -33 42 -43 26 -23 -77 94 -158 231
-147 249 4 5 10 7 15 4 5 -3 5 8 0 25 -8 28 -7 30 28 36 34 7 39 4 75 -37 21
-24 61 -80 88 -123 27 -44 49 -76 49 -71 0 17 -80 157 -111 196 -16 20 -29 39
-29 43 0 3 18 10 41 16 39 11 42 10 84 -29 38 -35 241 -148 250 -139 2 2 -45
36 -103 75 -59 40 -118 83 -132 98 -22 24 -23 27 -7 42 15 15 19 14 56 -20 22
-20 55 -43 73 -52 32 -15 33 -15 8 2 -14 10 -47 38 -73 62 -40 38 -47 49 -42
70 4 14 9 29 13 33 4 4 34 -16 67 -43 98 -82 125 -96 52 -28 -82 78 -117 125
-117 158 l0 24 23 -19 c51 -46 61 -48 31 -9 -17 22 -41 55 -54 74 l-24 35 59
-34 c33 -18 102 -60 154 -93z m-1394 -3 c-8 -38 -9 -77 -5 -92 5 -16 9 -20 9
-9 1 9 8 17 16 17 12 0 15 -18 15 -102 0 -56 2 -99 4 -97 3 3 12 63 21 134 9
72 20 146 25 165 7 33 8 31 9 -21 1 -47 4 -57 18 -55 29 2 48 -52 48 -134 0
-41 -4 -88 -8 -105 -5 -16 -6 -27 -2 -23 4 3 14 36 24 73 l16 67 28 -43 c27
-40 28 -46 17 -88 -24 -96 -111 -211 -160 -211 -27 0 -82 58 -110 116 -34 72
-39 213 -12 319 19 74 48 155 56 155 1 0 -3 -30 -9 -66z m-1908 -11 c-17 -33
-29 -116 -21 -138 4 -10 19 -15 45 -15 21 0 39 -4 39 -8 0 -4 -31 -32 -70 -61
-38 -30 -70 -55 -70 -57 0 -2 38 21 85 51 83 53 117 65 130 45 3 -5 -9 -24
-27 -41 l-33 -31 30 17 c17 10 39 24 50 32 30 20 65 17 60 -6 -10 -53 -52
-117 -90 -138 -108 -61 -323 -104 -360 -73 -50 42 37 237 169 377 38 40 70 73
73 73 2 0 -3 -12 -10 -27z m1413 -75 c0 -7 -7 -38 -15 -68 -21 -78 -18 -83 11
-20 41 91 46 43 8 -76 -19 -57 -34 -111 -34 -121 1 -10 11 14 24 52 19 59 49
130 62 144 1 1 13 -4 26 -13 12 -9 33 -16 45 -16 13 0 23 -3 23 -6 0 -3 -13
-44 -30 -91 -16 -46 -30 -88 -30 -91 0 -4 20 35 45 86 33 70 49 92 64 92 10 0
26 3 35 6 13 5 12 -5 -5 -67 -11 -40 -33 -107 -49 -148 -16 -41 -28 -76 -26
-78 4 -4 75 156 106 239 19 52 63 99 78 84 5 -5 -17 -86 -63 -231 -14 -44 25
33 52 103 40 105 73 91 73 -33 0 -112 -72 -251 -182 -350 -59 -53 -186 -119
-211 -110 -25 10 -84 105 -106 172 -28 82 -28 219 -1 324 31 126 100 275 100
217z m1159 -65 c108 -215 130 -418 58 -524 -20 -30 -28 -34 -63 -32 -101 4
-223 82 -269 172 -23 46 -55 153 -55 185 0 10 9 16 23 16 13 0 28 5 34 11 7 7
12 2 17 -18 16 -65 37 -135 41 -131 2 2 -2 28 -10 58 -23 84 -19 108 21 156
19 24 39 44 44 44 9 0 31 -54 60 -150 17 -57 19 -59 14 -20 -4 25 -15 78 -25
119 -11 41 -19 77 -19 80 0 10 56 41 73 41 17 0 60 -109 88 -223 21 -87 25
-65 4 30 -12 58 -45 164 -70 226 -4 9 -4 17 -1 17 3 0 19 -26 35 -57z m-1983
-6 c-9 -37 -27 -62 -77 -114 -64 -66 -64 -66 -16 -32 92 66 84 63 84 28 0 -23
8 -39 29 -57 16 -14 28 -30 26 -36 -2 -8 0 -8 8 0 9 9 74 3 129 -12 20 -6 -2
-28 -70 -71 -33 -20 -59 -38 -59 -40 0 -5 -7 -9 113 62 54 32 100 55 103 52 3
-2 -10 -22 -28 -43 -29 -34 -26 -32 23 11 33 30 75 57 105 66 27 9 66 24 87
33 25 11 37 13 37 5 0 -7 -46 -58 -102 -114 -155 -154 -307 -234 -454 -238
-73 -2 -94 11 -94 59 0 58 55 182 122 277 11 16 18 31 15 34 -16 15 -132 -150
-158 -224 -11 -34 -18 -37 -129 -62 -85 -20 -84 -21 -77 62 10 127 98 312 157
328 14 4 72 23 130 41 58 19 106 34 107 34 1 -1 -4 -22 -11 -49z m3552 -43
c96 -84 181 -213 182 -276 0 -29 1 -28 -105 -42 -51 -7 -160 16 -216 45 -60
30 -153 104 -186 148 l-28 36 28 -18 c103 -67 279 -157 306 -157 9 0 -12 15
-45 34 -66 35 -144 89 -211 147 -39 35 -40 37 -20 43 12 3 31 6 42 6 26 0 127
-48 193 -93 76 -52 54 -27 -39 43 -43 34 -79 63 -79 65 0 2 9 9 21 16 18 9 26
6 58 -23 l36 -33 -35 38 c-34 37 -34 39 -16 53 33 23 59 16 114 -32z m-2954
-121 c-20 -32 -44 -69 -53 -83 -8 -14 -33 -50 -54 -80 l-39 -55 69 70 c60 62
68 67 70 46 0 -13 -25 -65 -58 -119 -51 -83 -165 -329 -156 -338 1 -2 31 53
66 121 34 68 90 161 124 206 l62 82 6 -31 c8 -42 5 -65 -21 -141 -11 -35 -26
-100 -32 -145 -5 -45 -12 -92 -15 -106 -2 -14 -37 -57 -76 -96 -113 -111 -308
-196 -345 -151 -7 8 -17 53 -23 100 -12 100 3 214 42 312 21 52 32 65 95 110
125 87 252 207 330 309 48 63 52 58 8 -11z m2559 -99 c97 -129 193 -342 185
-411 -3 -25 -10 -30 -63 -45 -79 -22 -225 -23 -296 -2 -72 22 -161 67 -226
116 -29 22 -53 41 -53 43 0 6 166 -45 222 -69 71 -30 62 -16 -12 21 l-75 38
52 3 c29 2 57 9 63 17 17 21 37 19 73 -9 34 -25 89 -55 72 -39 -5 5 -29 24
-52 42 -38 29 -42 35 -32 54 11 20 7 145 -7 223 -9 50 21 53 70 7 40 -38 33
-22 -11 28 -20 22 -22 30 -14 52 15 38 32 27 104 -69z m-1854 -174 l4 -65 11
51 11 51 32 -13 31 -13 7 -98 c9 -134 11 -135 19 -7 7 109 8 112 38 134 44 32
50 16 45 -120 -6 -124 7 -104 19 33 7 80 17 96 29 50 l8 -28 6 25 c5 19 14 26
38 28 30 3 32 2 39 -43 9 -61 -9 -146 -44 -209 -31 -55 -128 -141 -167 -148
-33 -7 -76 14 -107 50 -26 31 -61 150 -73 253 -9 70 9 142 33 137 13 -3 18
-17 21 -68z m889 -52 c59 -64 84 -148 85 -288 1 -166 -27 -229 -94 -210 -85
25 -217 131 -282 227 -40 59 -105 203 -92 203 2 0 29 -12 59 -26 40 -20 59
-37 75 -68 21 -40 22 -38 6 12 -6 22 -5 23 15 12 12 -6 35 -10 52 -8 28 3 32
-1 50 -47 21 -54 35 -76 23 -35 -33 103 -33 106 -20 131 l14 24 20 -45 c24
-52 28 -41 7 18 -13 36 -13 44 7 96 12 30 24 55 27 53 3 -1 25 -23 48 -49z
m-1456 -151 c29 -37 30 -40 19 -84 -15 -56 -9 -67 8 -15 l13 37 63 0 c71 0 70
3 25 -85 -11 -22 -18 -40 -15 -40 2 0 20 30 39 68 29 58 42 71 88 96 29 16 83
60 120 97 76 75 76 75 28 -67 -31 -93 -79 -171 -141 -232 -49 -48 -269 -165
-293 -156 -25 10 -65 104 -77 184 -11 76 -7 172 12 245 6 22 15 58 21 79 l10
40 25 -65 c14 -35 39 -81 55 -102z m502 16 c10 -67 60 -156 112 -202 42 -37
54 -42 86 -39 28 3 39 -1 42 -12 3 -8 12 -50 22 -92 10 -43 19 -76 21 -75 2 2
-4 46 -11 98 l-15 94 37 29 c20 17 58 52 85 78 l47 48 0 -92 c0 -119 9 -110
11 12 2 89 4 98 34 143 38 56 42 54 81 -49 46 -118 34 -306 -26 -424 -40 -78
-148 -158 -197 -145 -40 10 -130 71 -184 125 -110 110 -176 260 -186 422 -3
48 -3 94 0 102 12 30 34 17 41 -21z m1479 -10 c34 -25 80 -62 102 -82 22 -20
31 -25 20 -12 l-20 24 50 -25 c28 -14 76 -34 107 -43 39 -13 59 -25 64 -39 6
-21 7 -21 11 -1 3 18 10 20 71 15 l67 -5 23 -58 c13 -32 28 -94 34 -137 11
-72 10 -81 -7 -100 -22 -24 -67 -26 -150 -5 -152 39 -261 100 -366 205 -106
106 -119 134 -32 71 37 -27 97 -66 132 -85 70 -40 203 -90 222 -84 6 2 -15 24
-47 48 -97 73 -239 206 -291 273 -83 104 -82 110 10 40z m-844 -440 c-1 -65
-2 -72 -9 -43 -8 31 -3 120 6 120 2 0 4 -35 3 -77z m-2439 -122 c-5 -11 -15
-23 -22 -27 -7 -5 -8 -2 -3 7 21 37 44 55 25 20z m746 -258 c-8 -15 -15 -25
-16 -21 0 12 23 58 27 54 3 -2 -2 -17 -11 -33z"/>
<path d="M3537 4805 c-20 -14 -37 -28 -37 -31 0 -2 18 8 40 22 35 23 47 34 37
34 -1 0 -19 -11 -40 -25z"/>
<path d="M3464 4748 l-19 -23 23 19 c21 18 27 26 19 26 -2 0 -12 -10 -23 -22z"/>
<path d="M2992 4685 c0 -16 2 -22 5 -12 2 9 2 23 0 30 -3 6 -5 -1 -5 -18z"/>
<path d="M3714 4398 l-19 -23 23 19 c12 11 22 21 22 23 0 8 -8 2 -26 -19z"/>
<path d="M3664 4333 c-16 -21 -35 -47 -43 -58 -14 -18 -14 -18 -1 -8 18 14 84
103 76 103 -3 0 -17 -17 -32 -37z"/>
<path d="M1271 4108 c12 -24 40 -71 61 -105 39 -61 57 -80 44 -46 -8 21 -117
193 -123 193 -2 0 6 -19 18 -42z"/>
<path d="M2751 4154 c0 -11 3 -14 6 -6 3 7 2 16 -1 19 -3 4 -6 -2 -5 -13z"/>
<path d="M2645 4109 c-4 -6 -5 -12 -2 -15 2 -3 7 2 10 11 7 17 1 20 -8 4z"/>
<path d="M3780 4150 c-8 -5 -10 -10 -5 -10 6 0 17 5 25 10 8 5 11 10 5 10 -5
0 -17 -5 -25 -10z"/>
<path d="M3730 4130 c-8 -5 -10 -10 -5 -10 6 0 17 5 25 10 8 5 11 10 5 10 -5
0 -17 -5 -25 -10z"/>
<path d="M1711 3864 c0 -11 3 -14 6 -6 3 7 2 16 -1 19 -3 4 -6 -2 -5 -13z"/>
<path d="M1570 3477 c17 -18 103 -78 106 -74 5 5 -51 49 -86 67 -14 7 -23 10
-20 7z"/>
<path d="M1820 3211 c0 -5 5 -13 10 -16 6 -3 10 -2 10 4 0 5 -4 13 -10 16 -5
3 -10 2 -10 -4z"/>
<path d="M688 2683 c6 -2 18 -2 25 0 6 3 1 5 -13 5 -14 0 -19 -2 -12 -5z"/>
<path d="M4528 2773 c7 -3 16 -2 19 1 4 3 -2 6 -13 5 -11 0 -14 -3 -6 -6z"/>
<path d="M1768 2793 c7 -3 16 -2 19 1 4 3 -2 6 -13 5 -11 0 -14 -3 -6 -6z"/>
<path d="M1468 2523 c6 -2 18 -2 25 0 6 3 1 5 -13 5 -14 0 -19 -2 -12 -5z"/>
<path d="M773 2263 c9 -2 23 -2 30 0 6 3 -1 5 -18 5 -16 0 -22 -2 -12 -5z"/>
<path d="M728 2253 c7 -3 16 -2 19 1 4 3 -2 6 -13 5 -11 0 -14 -3 -6 -6z"/>
<path d="M3868 1303 c7 -3 16 -2 19 1 4 3 -2 6 -13 5 -11 0 -14 -3 -6 -6z"/>
<path d="M3810 1176 c0 -3 14 -12 30 -21 17 -9 30 -13 30 -11 0 3 -13 12 -30
21 -16 9 -30 13 -30 11z"/>
<path d="M699 1383 l-34 -38 40 35 c22 19 42 36 44 38 2 1 0 2 -5 2 -6 0 -26
-17 -45 -37z"/>
<path d="M1912 1220 c0 -19 2 -27 5 -17 2 9 2 25 0 35 -3 9 -5 1 -5 -18z"/>
<path d="M899 1293 c-13 -16 -12 -17 4 -4 9 7 17 15 17 17 0 8 -8 3 -21 -13z"/>
<path d="M869 1253 c-13 -16 -12 -17 4 -4 9 7 17 15 17 17 0 8 -8 3 -21 -13z"/>
<path d="M1414 988 c-32 -63 -76 -179 -71 -185 2 -2 14 25 27 59 12 35 36 89
51 121 16 31 27 57 24 57 -2 0 -17 -23 -31 -52z"/>
<path d="M1619 813 c-29 -35 -41 -53 -36 -53 2 0 17 16 31 35 28 36 31 49 5
18z"/>
<path d="M4254 866 c11 -9 24 -16 30 -16 12 0 7 5 -24 19 -24 11 -24 11 -6 -3z"/>
<path d="M2443 945 c0 -22 2 -30 4 -17 2 12 2 30 0 40 -3 9 -5 -1 -4 -23z"/>
<path d="M2612 830 c0 -14 2 -19 5 -12 2 6 2 18 0 25 -3 6 -5 1 -5 -13z"/>
<path d="M1252 4975 c0 -16 2 -22 5 -12 2 9 2 23 0 30 -3 6 -5 -1 -5 -18z"/>
<path d="M60 4937 c0 -2 15 -16 33 -33 l32 -29 -29 33 c-28 30 -36 37 -36 29z"/>
<path d="M232 4885 c45 -60 150 -165 164 -165 6 0 -32 41 -195 210 -8 8 6 -12
31 -45z"/>
<path d="M3322 4874 c-1 -34 -4 -83 -7 -110 -5 -45 -4 -46 5 -16 6 18 9 68 7
110 -3 72 -3 73 -5 16z"/>
<path d="M1331 4873 c-2 -21 48 -168 64 -188 10 -14 9 -3 -6 35 -12 30 -30 80
-39 110 -10 30 -19 50 -19 43z"/>
<path d="M15 4580 c27 -12 43 -12 25 0 -8 5 -22 9 -30 9 -10 0 -8 -3 5 -9z"/>
<path d="M251 4496 c10 -9 89 -46 89 -41 0 5 -75 45 -86 45 -4 0 -5 -2 -3 -4z"/>
<path d="M500 4306 c0 -2 8 -10 18 -17 15 -13 16 -12 3 4 -13 16 -21 21 -21
13z"/>
<path d="M118 2453 c7 -3 16 -2 19 1 4 3 -2 6 -13 5 -11 0 -14 -3 -6 -6z"/>
<path d="M5038 1943 c7 -3 16 -2 19 1 4 3 -2 6 -13 5 -11 0 -14 -3 -6 -6z"/>
<path d="M404 968 c-58 -61 -89 -98 -83 -98 3 0 35 34 72 75 78 86 85 100 11
23z"/>
<path d="M607 826 c-48 -29 -61 -43 -22 -23 31 16 74 46 65 46 -3 0 -22 -10
-43 -23z"/>
<path d="M4950 747 c3 -3 42 -30 88 -61 69 -47 82 -52 82 -36 0 11 -12 26 -28
34 -37 19 -147 68 -142 63z"/>
<path d="M2261 424 c0 -11 3 -14 6 -6 3 7 2 16 -1 19 -3 4 -6 -2 -5 -13z"/>
<path d="M4500 386 c0 -2 25 -20 55 -40 59 -40 108 -60 170 -69 37 -6 35 -5
-15 14 -30 10 -90 37 -132 59 -43 22 -78 38 -78 36z"/>
<path d="M1791 217 c-27 -45 -102 -209 -97 -214 5 -5 40 52 59 97 8 19 27 61
41 93 29 64 28 74 -3 24z"/>
<path d="M676 135 c-3 -9 -6 -22 -5 -28 0 -7 5 -1 10 12 5 13 8 26 5 28 -2 2
-6 -3 -10 -12z"/>
<path d="M2481 44 c0 -11 3 -14 6 -6 3 7 2 16 -1 19 -3 4 -6 -2 -5 -13z"/>
</g>
</svg>